Anta-Regular.ufo
<glyph name="exclam" format="2">
  <advance width="540"/>
  <unicode hex="0021"/>
  <outline>
    <contour>
      <point x="140" y="120" type="curve" smooth="yes"/>
      <point x="140" y="192"/>
      <point x="198" y="250"/>
      <point x="270" y="250" type="curve" smooth="yes"/>
      <point x="343" y="250"/>
      <point x="400" y="193"/>
      <point x="400" y="120" type="curve" smooth="yes"/>
      <point x="400" y="47"/>
      <point x="343" y="-10"/>
      <point x="270" y="-10" type="curve" smooth="yes"/>
      <point x="198" y="-10"/>
      <point x="140" y="48"/>
    </contour>
    <contour>
      <point x="165" y="333" type="line"/>
      <point x="165" y="1422" type="line"/>
      <point x="376" y="1422" type="line"/>
      <point x="376" y="333" type="line"/>
    </contour>
  </outline>
</glyph>
<glyph name="quotedbl" format="2">
  <advance width="622"/>
  <unicode hex="0022"/>
  <outline>
    <contour>
      <point x="120" y="1422" type="line"/>
      <point x="269" y="1422" type="line"/>
      <point x="262" y="1164" type="line"/>
      <point x="127" y="1164" type="line"/>
    </contour>
    <contour>
      <point x="353" y="1422" type="line"/>
      <point x="502" y="1422" type="line"/>
      <point x="495" y="1164" type="line"/>
      <point x="360" y="1164" type="line"/>
    </contour>
  </outline>
</glyph>
<glyph name="dollar" format="2">
  <advance width="1439"/>
  <unicode hex="0024"/>
  <outline>
    <contour>
      <point x="140" y="973" type="curve" smooth="yes"/>
      <point x="140" y="1078" type="line" smooth="yes"/>
      <point x="140" y="1269"/>
      <point x="298" y="1422"/>
      <point x="493" y="1422" type="curve" smooth="yes"/>
      <point x="625" y="1422" type="line"/>
      <point x="625" y="1535" type="line"/>
      <point x="811" y="1535" type="line"/>
      <point x="811" y="1422" type="line"/>
      <point x="1228" y="1422" type="line"/>
      <point x="1228" y="1212" type="line"/>
      <point x="811" y="1212" type="line"/>
      <point x="811" y="845" type="line"/>
      <point x="946" y="845" type="line" smooth="yes"/>
      <point x="1142" y="845"/>
      <point x="1299" y="691"/>
      <point x="1299" y="500" type="curve" smooth="yes"/>
      <point x="1299" y="345" type="line" smooth="yes"/>
      <point x="1299" y="154"/>
      <point x="1142" y="0"/>
      <point x="946" y="0" type="curve" smooth="yes"/>
      <point x="811" y="0" type="line"/>
      <point x="811" y="-113" type="line"/>
      <point x="625" y="-113" type="line"/>
      <point x="625" y="0" type="line"/>
      <point x="141" y="0" type="line"/>
      <point x="141" y="211" type="line"/>
      <point x="625" y="211" type="line"/>
      <point x="625" y="635" type="line"/>
      <point x="493" y="635" type="line" smooth="yes"/>
      <point x="297" y="635"/>
      <point x="140" y="786"/>
    </contour>
    <contour>
      <point x="351" y="974" type="line" smooth="yes"/>
      <point x="351" y="902"/>
      <point x="414" y="845"/>
      <point x="493" y="845" type="curve" smooth="yes"/>
      <point x="625" y="845" type="line"/>
      <point x="625" y="1212" type="line"/>
      <point x="493" y="1212" type="line" smooth="yes"/>
      <point x="414" y="1212"/>
      <point x="351" y="1150"/>
      <point x="351" y="1072" type="curve" smooth="yes"/>
    </contour>
    <contour>
      <point x="811" y="211" type="line"/>
      <point x="946" y="211" type="line" smooth="yes"/>
      <point x="1025" y="211"/>
      <point x="1088" y="270"/>
      <point x="1088" y="346" type="curve" smooth="yes"/>
      <point x="1088" y="500" type="line" smooth="yes"/>
      <point x="1088" y="575"/>
      <point x="1024" y="635"/>
      <point x="946" y="635" type="curve" smooth="yes"/>
      <point x="811" y="635" type="line"/>
    </contour>
  </outline>
</glyph>
<glyph name="ampersand" format="2">
  <advance width="1411"/>
  <unicode hex="0026"/>
  <outline>
    <contour>
      <point x="331" y="479" type="curve" smooth="yes"/>
      <point x="331" y="340" type="line" smooth="yes"/>
      <point x="331" y="269"/>
      <point x="388" y="211"/>
      <point x="459" y="211" type="curve" smooth="yes"/>
      <point x="760" y="211" type="line" smooth="yes"/>
      <point x="792" y="211"/>
      <point x="821" y="213"/>
      <point x="844" y="218" type="curve"/>
      <point x="387" y="599" type="line"/>
      <point x="350" y="564"/>
      <point x="331" y="523"/>
    </contour>
    <contour>
      <point x="120" y="340" type="curve" smooth="yes"/>
      <point x="120" y="479" type="line" smooth="yes"/>
      <point x="120" y="592"/>
      <point x="165" y="696"/>
      <point x="243" y="761" type="curve"/>
      <point x="197" y="841"/>
      <point x="175" y="932"/>
      <point x="175" y="1045" type="curve" smooth="yes"/>
      <point x="175" y="1082" type="line" smooth="yes"/>
      <point x="175" y="1270"/>
      <point x="327" y="1422"/>
      <point x="514" y="1422" type="curve" smooth="yes"/>
      <point x="1106" y="1422" type="line"/>
      <point x="1106" y="1212" type="line"/>
      <point x="514" y="1212" type="line" smooth="yes"/>
      <point x="443" y="1212"/>
      <point x="385" y="1154"/>
      <point x="385" y="1083" type="curve" smooth="yes"/>
      <point x="385" y="1045" type="line" smooth="yes"/>
      <point x="385" y="939"/>
      <point x="427" y="840"/>
      <point x="493" y="786" type="curve" smooth="yes"/>
      <point x="895" y="460" type="line"/>
      <point x="895" y="818" type="line"/>
      <point x="1106" y="818" type="line"/>
      <point x="1106" y="267" type="line"/>
      <point x="1371" y="0" type="line"/>
      <point x="1074" y="0" type="line"/>
      <point x="1015" y="59" type="line"/>
      <point x="960" y="20"/>
      <point x="890" y="0"/>
      <point x="814" y="0" type="curve" smooth="yes"/>
      <point x="459" y="0" type="line" smooth="yes"/>
      <point x="272" y="0"/>
      <point x="120" y="152"/>
    </contour>
  </outline>
</glyph>
<glyph name="asterisk" format="2">
  <advance width="881"/>
  <unicode hex="002A"/>
  <outline>
    <contour>
      <point x="120" y="644" type="line"/>
      <point x="193" y="769" type="line"/>
      <point x="366" y="670" type="line"/>
      <point x="366" y="871" type="line"/>
      <point x="513" y="871" type="line"/>
      <point x="513" y="670" type="line"/>
      <point x="690" y="770" type="line"/>
      <point x="759" y="643" type="line"/>
      <point x="586" y="542" type="line"/>
      <point x="761" y="441" type="line"/>
      <point x="688" y="316" type="line"/>
      <point x="513" y="416" type="line"/>
      <point x="513" y="213" type="line"/>
      <point x="366" y="213" type="line"/>
      <point x="366" y="415" type="line"/>
      <point x="193" y="314" type="line"/>
      <point x="121" y="442" type="line"/>
      <point x="294" y="544" type="line"/>
    </contour>
  </outline>
</glyph>
<glyph name="comma" format="2">
  <advance width="470"/>
  <unicode hex="002C"/>
  <outline>
    <contour>
      <point x="40" y="-150" type="line"/>
      <point x="150" y="220" type="line"/>
      <point x="350" y="220" type="line"/>
      <point x="200" y="-150" type="line"/>
    </contour>
  </outline>
</glyph>
<glyph name="period" format="2">
  <advance width="490"/>
  <unicode hex="002E"/>
  <outline>
    <contour>
      <point x="115" y="120" type="curve" smooth="yes"/>
      <point x="115" y="192"/>
      <point x="173" y="250"/>
      <point x="245" y="250" type="curve" smooth="yes"/>
      <point x="318" y="250"/>
      <point x="375" y="193"/>
      <point x="375" y="120" type="curve" smooth="yes"/>
      <point x="375" y="47"/>
      <point x="318" y="-10"/>
      <point x="245" y="-10" type="curve" smooth="yes"/>
      <point x="173" y="-10"/>
      <point x="115" y="48"/>
    </contour>
  </outline>
</glyph>
<glyph name="slash" format="2">
  <advance width="1391"/>
  <unicode hex="002F"/>
  <outline>
    <contour>
      <point x="20" y="-42" type="line"/>
      <point x="1131" y="1540" type="line"/>
      <point x="1371" y="1540" type="line"/>
      <point x="260" y="-42" type="line"/>
    </contour>
  </outline>
</glyph>
<glyph name="zero" format="2">
  <advance width="1343"/>
  <unicode hex="0030"/>
  <outline>
    <contour>
      <point x="120" y="398" type="curve" smooth="yes"/>
      <point x="120" y="1022" type="line" smooth="yes"/>
      <point x="120" y="1243"/>
      <point x="301" y="1422"/>
      <point x="523" y="1422" type="curve" smooth="yes"/>
      <point x="799" y="1422" type="line" smooth="yes"/>
      <point x="1033" y="1422"/>
      <point x="1223" y="1243"/>
      <point x="1223" y="1022" type="curve" smooth="yes"/>
      <point x="1223" y="398" type="line" smooth="yes"/>
      <point x="1223" y="178"/>
      <point x="1034" y="0"/>
      <point x="801" y="0" type="curve" smooth="yes"/>
      <point x="544" y="0" type="line" smooth="yes"/>
      <point x="310" y="0"/>
      <point x="120" y="178"/>
    </contour>
    <contour>
      <point x="331" y="398" type="line" smooth="yes"/>
      <point x="331" y="295"/>
      <point x="426" y="211"/>
      <point x="544" y="211" type="curve" smooth="yes"/>
      <point x="801" y="211" type="line" smooth="yes"/>
      <point x="918" y="211"/>
      <point x="1013" y="295"/>
      <point x="1013" y="398" type="curve" smooth="yes"/>
      <point x="1013" y="1022" type="line" smooth="yes"/>
      <point x="1013" y="1127"/>
      <point x="917" y="1212"/>
      <point x="799" y="1212" type="curve" smooth="yes"/>
      <point x="523" y="1212" type="line" smooth="yes"/>
      <point x="417" y="1212"/>
      <point x="331" y="1127"/>
      <point x="331" y="1022" type="curve" smooth="yes"/>
    </contour>
  </outline>
</glyph>
<glyph name="two" format="2">
  <advance width="1341"/>
  <unicode hex="0032"/>
  <outline>
    <contour>
      <point x="120" y="0" type="line"/>
      <point x="120" y="480" type="line" smooth="yes"/>
      <point x="120" y="634"/>
      <point x="181" y="697"/>
      <point x="367" y="732" type="curve" smooth="yes"/>
      <point x="897" y="834" type="line" smooth="yes"/>
      <point x="962" y="846"/>
      <point x="1010" y="908"/>
      <point x="1010" y="980" type="curve" smooth="yes"/>
      <point x="1010" y="1072" type="line" smooth="yes"/>
      <point x="1010" y="1149"/>
      <point x="948" y="1212"/>
      <point x="871" y="1212" type="curve" smooth="yes"/>
      <point x="191" y="1212" type="line"/>
      <point x="191" y="1422" type="line"/>
      <point x="871" y="1422" type="line" smooth="yes"/>
      <point x="1064" y="1422"/>
      <point x="1221" y="1268"/>
      <point x="1221" y="1078" type="curve" smooth="yes"/>
      <point x="1221" y="976" type="line" smooth="yes"/>
      <point x="1221" y="808"/>
      <point x="1117" y="665"/>
      <point x="975" y="637" type="curve" smooth="yes"/>
      <point x="380" y="524" type="line" smooth="yes"/>
      <point x="341" y="516"/>
      <point x="330" y="507"/>
      <point x="330" y="481" type="curve" smooth="yes"/>
      <point x="330" y="210" type="line"/>
      <point x="1220" y="210" type="line"/>
      <point x="1220" y="0" type="line"/>
    </contour>
  </outline>
</glyph>
<glyph name="three" format="2">
  <advance width="1334"/>
  <unicode hex="0033"/>
  <outline>
    <contour>
      <point x="120" y="0" type="line"/>
      <point x="120" y="211" type="line"/>
      <point x="865" y="211" type="line" smooth="yes"/>
      <point x="942" y="211"/>
      <point x="1004" y="273"/>
      <point x="1004" y="348" type="curve" smooth="yes"/>
      <point x="1004" y="482" type="line" smooth="yes"/>
      <point x="1004" y="568"/>
      <point x="919" y="639"/>
      <point x="817" y="639" type="curve" smooth="yes"/>
      <point x="493" y="639" type="line"/>
      <point x="493" y="849" type="line"/>
      <point x="817" y="849" type="line" smooth="yes"/>
      <point x="905" y="849"/>
      <point x="976" y="919"/>
      <point x="976" y="1005" type="curve" smooth="yes"/>
      <point x="976" y="1072" type="line" smooth="yes"/>
      <point x="976" y="1149"/>
      <point x="914" y="1212"/>
      <point x="837" y="1212" type="curve" smooth="yes"/>
      <point x="120" y="1212" type="line"/>
      <point x="120" y="1422" type="line"/>
      <point x="837" y="1422" type="line" smooth="yes"/>
      <point x="1031" y="1422"/>
      <point x="1187" y="1266"/>
      <point x="1187" y="1072" type="curve" smooth="yes"/>
      <point x="1187" y="1001" type="line" smooth="yes"/>
      <point x="1187" y="898"/>
      <point x="1146" y="813"/>
      <point x="1067" y="755" type="curve"/>
      <point x="1170" y="693"/>
      <point x="1214" y="610"/>
      <point x="1214" y="480" type="curve" smooth="yes"/>
      <point x="1214" y="346" type="line" smooth="yes"/>
      <point x="1214" y="155"/>
      <point x="1057" y="0"/>
      <point x="865" y="0" type="curve" smooth="yes"/>
    </contour>
  </outline>
</glyph>
<glyph name="six" format="2">
  <advance width="1320"/>
  <unicode hex="0036"/>
  <outline>
    <contour>
      <point x="331" y="705" type="line"/>
      <point x="331" y="347" type="line" smooth="yes"/>
      <point x="331" y="272"/>
      <point x="393" y="211"/>
      <point x="470" y="211" type="curve" smooth="yes"/>
      <point x="853" y="211" type="line" smooth="yes"/>
      <point x="929" y="211"/>
      <point x="990" y="272"/>
      <point x="990" y="347" type="curve" smooth="yes"/>
      <point x="990" y="579" type="line" smooth="yes"/>
      <point x="990" y="649"/>
      <point x="929" y="705"/>
      <point x="853" y="705" type="curve" smooth="yes"/>
    </contour>
    <contour>
      <point x="120" y="347" type="curve" smooth="yes"/>
      <point x="120" y="1072" type="line" smooth="yes"/>
      <point x="120" y="1266"/>
      <point x="276" y="1422"/>
      <point x="470" y="1422" type="curve" smooth="yes"/>
      <point x="1133" y="1422" type="line"/>
      <point x="1133" y="1212" type="line"/>
      <point x="470" y="1212" type="line" smooth="yes"/>
      <point x="393" y="1212"/>
      <point x="331" y="1149"/>
      <point x="331" y="1072" type="curve" smooth="yes"/>
      <point x="331" y="898" type="line"/>
      <point x="853" y="898" type="line" smooth="yes"/>
      <point x="1045" y="898"/>
      <point x="1200" y="755"/>
      <point x="1200" y="579" type="curve" smooth="yes"/>
      <point x="1200" y="347" type="line" smooth="yes"/>
      <point x="1200" y="155"/>
      <point x="1045" y="0"/>
      <point x="853" y="0" type="curve" smooth="yes"/>
      <point x="470" y="0" type="line" smooth="yes"/>
      <point x="277" y="0"/>
      <point x="120" y="155"/>
    </contour>
  </outline>
</glyph>
<glyph name="eight" format="2">
  <advance width="1311"/>
  <unicode hex="0038"/>
  <outline>
    <contour>
      <point x="326" y="485" type="curve" smooth="yes"/>
      <point x="326" y="364" type="line" smooth="yes"/>
      <point x="326" y="280"/>
      <point x="396" y="211"/>
      <point x="482" y="211" type="curve" smooth="yes"/>
      <point x="835" y="211" type="line" smooth="yes"/>
      <point x="918" y="211"/>
      <point x="986" y="279"/>
      <point x="986" y="363" type="curve" smooth="yes"/>
      <point x="986" y="500" type="line" smooth="yes"/>
      <point x="986" y="577"/>
      <point x="925" y="639"/>
      <point x="850" y="639" type="curve" smooth="yes"/>
      <point x="465" y="639" type="line" smooth="yes"/>
      <point x="388" y="639"/>
      <point x="326" y="570"/>
    </contour>
    <contour>
      <point x="353" y="1072" type="curve" smooth="yes"/>
      <point x="353" y="984" type="line" smooth="yes"/>
      <point x="353" y="905"/>
      <point x="417" y="849"/>
      <point x="507" y="849" type="curve" smooth="yes"/>
      <point x="805" y="849" type="line" smooth="yes"/>
      <point x="895" y="849"/>
      <point x="959" y="905"/>
      <point x="959" y="984" type="curve" smooth="yes"/>
      <point x="959" y="1072" type="line" smooth="yes"/>
      <point x="959" y="1149"/>
      <point x="890" y="1211"/>
      <point x="805" y="1211" type="curve" smooth="yes"/>
      <point x="493" y="1211" type="line" smooth="yes"/>
      <point x="416" y="1211"/>
      <point x="353" y="1149"/>
    </contour>
    <contour>
      <point x="115" y="366" type="curve" smooth="yes"/>
      <point x="115" y="500" type="line" smooth="yes"/>
      <point x="115" y="604"/>
      <point x="176" y="701"/>
      <point x="274" y="754" type="curve"/>
      <point x="189" y="802"/>
      <point x="142" y="883"/>
      <point x="142" y="984" type="curve" smooth="yes"/>
      <point x="142" y="1072" type="line" smooth="yes"/>
      <point x="142" y="1265"/>
      <point x="299" y="1422"/>
      <point x="493" y="1422" type="curve" smooth="yes"/>
      <point x="819" y="1422" type="line" smooth="yes"/>
      <point x="1012" y="1422"/>
      <point x="1169" y="1265"/>
      <point x="1169" y="1072" type="curve" smooth="yes"/>
      <point x="1169" y="984" type="line" smooth="yes"/>
      <point x="1169" y="883"/>
      <point x="1122" y="801"/>
      <point x="1038" y="754" type="curve"/>
      <point x="1136" y="701"/>
      <point x="1196" y="605"/>
      <point x="1196" y="500" type="curve" smooth="yes"/>
      <point x="1196" y="366" type="line" smooth="yes"/>
      <point x="1196" y="164"/>
      <point x="1040" y="0"/>
      <point x="847" y="0" type="curve" smooth="yes"/>
      <point x="465" y="0" type="line" smooth="yes"/>
      <point x="272" y="0"/>
      <point x="115" y="164"/>
    </contour>
  </outline>
</glyph>
<glyph name="nine" format="2">
  <advance width="1320"/>
  <unicode hex="0039"/>
  <outline>
    <contour>
      <point x="120" y="844" type="curve" smooth="yes"/>
      <point x="120" y="1075" type="line" smooth="yes"/>
      <point x="120" y="1267"/>
      <point x="276" y="1422"/>
      <point x="468" y="1422" type="curve" smooth="yes"/>
      <point x="851" y="1422" type="line" smooth="yes"/>
      <point x="1044" y="1422"/>
      <point x="1200" y="1267"/>
      <point x="1200" y="1075" type="curve" smooth="yes"/>
      <point x="1200" y="350" type="line" smooth="yes"/>
      <point x="1200" y="157"/>
      <point x="1044" y="0"/>
      <point x="851" y="0" type="curve" smooth="yes"/>
      <point x="188" y="0" type="line"/>
      <point x="188" y="211" type="line"/>
      <point x="851" y="211" type="line" smooth="yes"/>
      <point x="928" y="211"/>
      <point x="990" y="273"/>
      <point x="990" y="350" type="curve" smooth="yes"/>
      <point x="990" y="525" type="line"/>
      <point x="468" y="525" type="line" smooth="yes"/>
      <point x="276" y="525"/>
      <point x="120" y="668"/>
    </contour>
    <contour>
      <point x="331" y="846" type="line" smooth="yes"/>
      <point x="331" y="775"/>
      <point x="392" y="718"/>
      <point x="468" y="718" type="curve" smooth="yes"/>
      <point x="990" y="718" type="line"/>
      <point x="990" y="1075" type="line" smooth="yes"/>
      <point x="990" y="1149"/>
      <point x="927" y="1212"/>
      <point x="851" y="1212" type="curve" smooth="yes"/>
      <point x="468" y="1212" type="line" smooth="yes"/>
      <point x="392" y="1212"/>
      <point x="331" y="1151"/>
      <point x="331" y="1075" type="curve" smooth="yes"/>
    </contour>
  </outline>
</glyph>
<glyph name="colon" format="2">
  <advance width="500"/>
  <unicode hex="003A"/>
  <outline>
    <contour>
      <point x="120" y="120" type="curve" smooth="yes"/>
      <point x="120" y="192"/>
      <point x="178" y="250"/>
      <point x="250" y="250" type="curve" smooth="yes"/>
      <point x="323" y="250"/>
      <point x="380" y="193"/>
      <point x="380" y="120" type="curve" smooth="yes"/>
      <point x="380" y="47"/>
      <point x="323" y="-10"/>
      <point x="250" y="-10" type="curve" smooth="yes"/>
      <point x="178" y="-10"/>
      <point x="120" y="48"/>
    </contour>
    <contour>
      <point x="120" y="883" type="curve" smooth="yes"/>
      <point x="120" y="955"/>
      <point x="178" y="1013"/>
      <point x="250" y="1013" type="curve" smooth="yes"/>
      <point x="323" y="1013"/>
      <point x="380" y="956"/>
      <point x="380" y="883" type="curve" smooth="yes"/>
      <point x="380" y="810"/>
      <point x="323" y="753"/>
      <point x="250" y="753" type="curve" smooth="yes"/>
      <point x="177" y="753"/>
      <point x="120" y="810"/>
    </contour>
  </outline>
</glyph>
<glyph name="less" format="2">
  <advance width="1230"/>
  <unicode hex="003C"/>
  <outline>
    <contour>
      <point x="110" y="475" type="line"/>
      <point x="110" y="631" type="line"/>
      <point x="1120" y="998" type="line"/>
      <point x="1120" y="790" type="line"/>
      <point x="471" y="553" type="line"/>
      <point x="1120" y="317" type="line"/>
      <point x="1120" y="108" type="line"/>
    </contour>
  </outline>
</glyph>
<glyph name="question" format="2">
  <advance width="1149"/>
  <unicode hex="003F"/>
  <outline>
    <contour>
      <point x="90" y="1212" type="line"/>
      <point x="90" y="1422" type="line"/>
      <point x="709" y="1422" type="line" smooth="yes"/>
      <point x="889" y="1422"/>
      <point x="1029" y="1283"/>
      <point x="1029" y="1103" type="curve" smooth="yes"/>
      <point x="1029" y="961" type="line" smooth="yes"/>
      <point x="1029" y="773"/>
      <point x="945" y="678"/>
      <point x="703" y="591" type="curve" smooth="yes"/>
      <point x="571" y="542"/>
      <point x="533" y="517"/>
      <point x="533" y="478" type="curve" smooth="yes"/>
      <point x="533" y="307" type="line"/>
      <point x="322" y="307" type="line"/>
      <point x="322" y="478" type="line" smooth="yes"/>
      <point x="322" y="625"/>
      <point x="412" y="710"/>
      <point x="663" y="799" type="curve" smooth="yes"/>
      <point x="776" y="839"/>
      <point x="818" y="884"/>
      <point x="818" y="967" type="curve" smooth="yes"/>
      <point x="818" y="1103" type="line" smooth="yes"/>
      <point x="818" y="1163"/>
      <point x="769" y="1212"/>
      <point x="709" y="1212" type="curve" smooth="yes"/>
    </contour>
    <contour>
      <point x="308" y="109" type="curve" smooth="yes"/>
      <point x="308" y="175"/>
      <point x="361" y="228"/>
      <point x="427" y="228" type="curve" smooth="yes"/>
      <point x="493" y="228"/>
      <point x="546" y="175"/>
      <point x="546" y="109" type="curve" smooth="yes"/>
      <point x="546" y="43"/>
      <point x="493" y="-10"/>
      <point x="427" y="-10" type="curve" smooth="yes"/>
      <point x="361" y="-10"/>
      <point x="308" y="43"/>
    </contour>
  </outline>
</glyph>
<glyph name="B" format="2">
  <advance width="1408"/>
  <unicode hex="0042"/>
  <outline>
    <contour>
      <point x="140" y="0" type="line"/>
      <point x="140" y="1422" type="line"/>
      <point x="889" y="1422" type="line" smooth="yes"/>
      <point x="1086" y="1422"/>
      <point x="1243" y="1267"/>
      <point x="1243" y="1072" type="curve" smooth="yes"/>
      <point x="1243" y="979" type="line" smooth="yes"/>
      <point x="1243" y="892"/>
      <point x="1213" y="813"/>
      <point x="1163" y="768" type="curve"/>
      <point x="1258" y="707"/>
      <point x="1298" y="627"/>
      <point x="1298" y="500" type="curve" smooth="yes"/>
      <point x="1298" y="343" type="line" smooth="yes"/>
      <point x="1298" y="154"/>
      <point x="1140" y="0"/>
      <point x="946" y="0" type="curve" smooth="yes"/>
    </contour>
    <contour>
      <point x="351" y="211" type="line"/>
      <point x="948" y="211" type="line" smooth="yes"/>
      <point x="1025" y="211"/>
      <point x="1088" y="271"/>
      <point x="1088" y="346" type="curve" smooth="yes"/>
      <point x="1088" y="503" type="line" smooth="yes"/>
      <point x="1088" y="578"/>
      <point x="1025" y="639"/>
      <point x="947" y="639" type="curve" smooth="yes"/>
      <point x="471" y="639" type="line"/>
      <point x="471" y="849" type="line"/>
      <point x="889" y="849" type="line" smooth="yes"/>
      <point x="968" y="849"/>
      <point x="1033" y="908"/>
      <point x="1033" y="981" type="curve" smooth="yes"/>
      <point x="1033" y="1072" type="line" smooth="yes"/>
      <point x="1033" y="1149"/>
      <point x="968" y="1212"/>
      <point x="889" y="1212" type="curve" smooth="yes"/>
      <point x="351" y="1212" type="line"/>
    </contour>
  </outline>
</glyph>
<glyph name="C" format="2">
  <advance width="1381"/>
  <unicode hex="0043"/>
  <outline>
    <contour>
      <point x="120" y="393" type="curve" smooth="yes"/>
      <point x="120" y="1022" type="line" smooth="yes"/>
      <point x="120" y="1243"/>
      <point x="302" y="1422"/>
      <point x="526" y="1422" type="curve" smooth="yes"/>
      <point x="1271" y="1422" type="line"/>
      <point x="1271" y="1212" type="line"/>
      <point x="526" y="1212" type="line" smooth="yes"/>
      <point x="418" y="1212"/>
      <point x="331" y="1127"/>
      <point x="331" y="1022" type="curve" smooth="yes"/>
      <point x="331" y="396" type="line" smooth="yes"/>
      <point x="331" y="294"/>
      <point x="418" y="211"/>
      <point x="526" y="211" type="curve" smooth="yes"/>
      <point x="1271" y="211" type="line"/>
      <point x="1271" y="0" type="line"/>
      <point x="526" y="0" type="line" smooth="yes"/>
      <point x="302" y="0"/>
      <point x="120" y="176"/>
    </contour>
  </outline>
</glyph>
<glyph name="E" format="2">
  <advance width="1363"/>
  <unicode hex="0045"/>
  <outline>
    <contour>
      <point x="140" y="0" type="line"/>
      <point x="140" y="1422" type="line"/>
      <point x="1243" y="1422" type="line"/>
      <point x="1243" y="1212" type="line"/>
      <point x="351" y="1212" type="line"/>
      <point x="351" y="211" type="line"/>
      <point x="1243" y="211" type="line"/>
      <point x="1243" y="0" type="line"/>
    </contour>
    <contour>
      <point x="471" y="635" type="line"/>
      <point x="471" y="845" type="line"/>
      <point x="1243" y="845" type="line"/>
      <point x="1243" y="635" type="line"/>
    </contour>
  </outline>
</glyph>
<glyph name="G" format="2">
  <advance width="1421"/>
  <unicode hex="0047"/>
  <outline>
    <contour>
      <point x="120" y="400" type="curve" smooth="yes"/>
      <point x="120" y="1022" type="line" smooth="yes"/>
      <point x="120" y="1243"/>
      <point x="310" y="1422"/>
      <point x="544" y="1422" type="curve" smooth="yes"/>
      <point x="1217" y="1422" type="line"/>
      <point x="1217" y="1212" type="line"/>
      <point x="544" y="1212" type="line" smooth="yes"/>
      <point x="426" y="1212"/>
      <point x="331" y="1127"/>
      <point x="331" y="1023" type="curve" smooth="yes"/>
      <point x="331" y="399" type="line" smooth="yes"/>
      <point x="331" y="295"/>
      <point x="426" y="210"/>
      <point x="544" y="210" type="curve" smooth="yes"/>
      <point x="877" y="210" type="line" smooth="yes"/>
      <point x="995" y="210"/>
      <point x="1090" y="295"/>
      <point x="1090" y="399" type="curve" smooth="yes"/>
      <point x="1090" y="585" type="line"/>
      <point x="704" y="585" type="line"/>
      <point x="704" y="795" type="line"/>
      <point x="1301" y="795" type="line"/>
      <point x="1301" y="400" type="line" smooth="yes"/>
      <point x="1301" y="179"/>
      <point x="1111" y="0"/>
      <point x="877" y="0" type="curve" smooth="yes"/>
      <point x="544" y="0" type="line" smooth="yes"/>
      <point x="310" y="0"/>
      <point x="120" y="179"/>
    </contour>
  </outline>
</glyph>
<glyph name="H" format="2">
  <advance width="1438"/>
  <unicode hex="0048"/>
  <outline>
    <contour>
      <point x="140" y="0" type="line"/>
      <point x="140" y="1422" type="line"/>
      <point x="351" y="1422" type="line"/>
      <point x="351" y="845" type="line"/>
      <point x="1088" y="845" type="line"/>
      <point x="1088" y="1422" type="line"/>
      <point x="1298" y="1422" type="line"/>
      <point x="1298" y="0" type="line"/>
      <point x="1088" y="0" type="line"/>
      <point x="1088" y="635" type="line"/>
      <point x="351" y="635" type="line"/>
      <point x="351" y="0" type="line"/>
    </contour>
  </outline>
</glyph>
<glyph name="L" format="2">
  <advance width="1282"/>
  <unicode hex="004C"/>
  <outline>
    <contour>
      <point x="140" y="398" type="curve" smooth="yes"/>
      <point x="140" y="1422" type="line"/>
      <point x="350" y="1422" type="line"/>
      <point x="350" y="398" type="line" smooth="yes"/>
      <point x="350" y="294"/>
      <point x="434" y="210"/>
      <point x="537" y="210" type="curve" smooth="yes"/>
      <point x="1242" y="210" type="line"/>
      <point x="1242" y="0" type="line"/>
      <point x="537" y="0" type="line" smooth="yes"/>
      <point x="318" y="0"/>
      <point x="140" y="178"/>
    </contour>
  </outline>
</glyph>
<glyph name="M" format="2">
  <advance width="1584"/>
  <unicode hex="004D"/>
  <outline>
    <contour>
      <point x="140" y="0" type="line"/>
      <point x="140" y="1422" type="line"/>
      <point x="333" y="1422" type="line"/>
      <point x="792" y="861" type="line"/>
      <point x="1251" y="1422" type="line"/>
      <point x="1444" y="1422" type="line"/>
      <point x="1444" y="0" type="line"/>
      <point x="1233" y="0" type="line"/>
      <point x="1233" y="1063" type="line"/>
      <point x="880" y="635" type="line"/>
      <point x="705" y="635" type="line"/>
      <point x="351" y="1063" type="line"/>
      <point x="351" y="0" type="line"/>
    </contour>
  </outline>
</glyph>
<glyph name="T" format="2">
  <advance width="1238"/>
  <unicode hex="0054"/>
  <outline>
    <contour>
      <point x="40" y="1212" type="line"/>
      <point x="40" y="1422" type="line"/>
      <point x="1198" y="1422" type="line"/>
      <point x="1198" y="1212" type="line"/>
      <point x="725" y="1212" type="line"/>
      <point x="725" y="0" type="line"/>
      <point x="513" y="0" type="line"/>
      <point x="513" y="1212" type="line"/>
    </contour>
  </outline>
</glyph>
<glyph name="W" format="2">
  <advance width="1646"/>
  <unicode hex="0057"/>
  <outline>
    <contour>
      <point x="70" y="1422" type="line"/>
      <point x="282" y="1422" type="line"/>
      <point x="468" y="350" type="line"/>
      <point x="724" y="816" type="line"/>
      <point x="923" y="816" type="line"/>
      <point x="1179" y="350" type="line"/>
      <point x="1365" y="1422" type="line"/>
      <point x="1576" y="1422" type="line"/>
      <point x="1329" y="0" type="line"/>
      <point x="1139" y="0" type="line"/>
      <point x="823" y="572" type="line"/>
      <point x="508" y="0" type="line"/>
      <point x="317" y="0" type="line"/>
    </contour>
  </outline>
</glyph>
<glyph name="Y" format="2">
  <advance width="1371"/>
  <unicode hex="0059"/>
  <outline>
    <contour>
      <point x="40" y="1422" type="line"/>
      <point x="297" y="1422" type="line"/>
      <point x="687" y="883" type="line"/>
      <point x="1075" y="1422" type="line"/>
      <point x="1331" y="1422" type="line"/>
      <point x="795" y="679" type="line"/>
      <point x="795" y="0" type="line"/>
      <point x="579" y="0" type="line"/>
      <point x="579" y="679" type="line"/>
    </contour>
  </outline>
</glyph>
<glyph name="bracketleft" format="2">
  <advance width="610"/>
  <unicode hex="005B"/>
  <outline>
    <contour>
      <point x="115" y="-390" type="line"/>
      <point x="115" y="1630" type="line"/>
      <point x="575" y="1630" type="line"/>
      <point x="575" y="1422" type="line"/>
      <point x="323" y="1422" type="line"/>
      <point x="323" y="-183" type="line"/>
      <point x="575" y="-183" type="line"/>
      <point x="575" y="-390" type="line"/>
    </contour>
  </outline>
</glyph>
<glyph name="asciicircum" format="2">
  <advance width="873"/>
  <unicode hex="005E"/>
  <outline>
    <contour>
      <point x="100" y="1022" type="line"/>
      <point x="377" y="1422" type="line"/>
      <point x="496" y="1422" type="line"/>
      <point x="773" y="1022" type="line"/>
      <point x="615" y="1022" type="line"/>
      <point x="436" y="1270" type="line"/>
      <point x="257" y="1022" type="line"/>
    </contour>
  </outline>
</glyph>
<glyph name="d" format="2">
  <advance width="1182"/>
  <unicode hex="0064"/>
  <outline>
    <contour>
      <point x="110" y="372" type="curve" smooth="yes"/>
      <point x="110" y="662" type="line" smooth="yes"/>
      <point x="110" y="868"/>
      <point x="278" y="1036"/>
      <point x="484" y="1036" type="curve" smooth="yes"/>
      <point x="731" y="1036" type="line"/>
      <point x="731" y="825" type="line"/>
      <point x="484" y="825" type="line" smooth="yes"/>
      <point x="394" y="825"/>
      <point x="321" y="751"/>
      <point x="321" y="660" type="curve" smooth="yes"/>
      <point x="321" y="374" type="line" smooth="yes"/>
      <point x="321" y="284"/>
      <point x="394" y="211"/>
      <point x="484" y="211" type="curve" smooth="yes"/>
      <point x="851" y="211" type="line"/>
      <point x="851" y="1422" type="line"/>
      <point x="1062" y="1422" type="line"/>
      <point x="1062" y="211" type="line" smooth="yes"/>
      <point x="1062" y="95"/>
      <point x="967" y="0"/>
      <point x="851" y="0" type="curve" smooth="yes"/>
      <point x="484" y="0" type="line" smooth="yes"/>
      <point x="278" y="0"/>
      <point x="110" y="167"/>
    </contour>
  </outline>
</glyph>
<glyph name="f" format="2">
  <advance width="723"/>
  <unicode hex="0066"/>
  <anchor x="360" y="1544" name="top"/>
  <outline>
    <contour>
      <point x="120" y="0" type="line"/>
      <point x="120" y="1125" type="line" smooth="yes"/>
      <point x="120" y="1289"/>
      <point x="254" y="1422"/>
      <point x="418" y="1422" type="curve" smooth="yes"/>
      <point x="649" y="1422" type="line"/>
      <point x="649" y="1212" type="line"/>
      <point x="418" y="1212" type="line" smooth="yes"/>
      <point x="370" y="1212"/>
      <point x="331" y="1173"/>
      <point x="331" y="1125" type="curve" smooth="yes"/>
      <point x="331" y="1036" type="line"/>
      <point x="653" y="1036" type="line"/>
      <point x="653" y="826" type="line"/>
      <point x="331" y="826" type="line"/>
      <point x="331" y="0" type="line"/>
    </contour>
  </outline>
</glyph>
<glyph name="i" format="2">
  <advance width="452"/>
  <unicode hex="0069"/>
  <outline>
    <contour>
      <point x="96" y="1318" type="curve" smooth="yes"/>
      <point x="96" y="1390"/>
      <point x="154" y="1448"/>
      <point x="226" y="1448" type="curve" smooth="yes"/>
      <point x="298" y="1448"/>
      <point x="356" y="1390"/>
      <point x="356" y="1318" type="curve" smooth="yes"/>
      <point x="356" y="1246"/>
      <point x="298" y="1188"/>
      <point x="226" y="1188" type="curve" smooth="yes"/>
      <point x="154" y="1188"/>
      <point x="96" y="1246"/>
    </contour>
    <contour>
      <point x="120" y="0" type="line"/>
      <point x="120" y="1036" type="line"/>
      <point x="332" y="1036" type="line"/>
      <point x="332" y="0" type="line"/>
    </contour>
  </outline>
</glyph>
<glyph name="j" format="2">
  <advance width="527"/>
  <unicode hex="006A"/>
  <outline>
    <contour>
      <point x="40" y="-180" type="line"/>
      <point x="187" y="-180"/>
      <point x="199" y="-171"/>
      <point x="199" y="-60" type="curve" smooth="yes"/>
      <point x="199" y="1036" type="line"/>
      <point x="410" y="1036" type="line"/>
      <point x="410" y="-60" type="line" smooth="yes"/>
      <point x="410" y="-313"/>
      <point x="323" y="-391"/>
      <point x="40" y="-391" type="curve"/>
    </contour>
    <contour>
      <point x="171" y="1317" type="curve" smooth="yes"/>
      <point x="171" y="1389"/>
      <point x="230" y="1448"/>
      <point x="302" y="1448" type="curve" smooth="yes"/>
      <point x="373" y="1448"/>
      <point x="431" y="1390"/>
      <point x="431" y="1317" type="curve" smooth="yes"/>
      <point x="431" y="1245"/>
      <point x="374" y="1188"/>
      <point x="302" y="1188" type="curve" smooth="yes"/>
      <point x="229" y="1188"/>
      <point x="171" y="1246"/>
    </contour>
  </outline>
</glyph>
<glyph name="l" format="2">
  <advance width="451"/>
  <unicode hex="006C"/>
  <outline>
    <contour>
      <point x="120" y="0" type="line"/>
      <point x="120" y="1422" type="line"/>
      <point x="331" y="1422" type="line"/>
      <point x="331" y="0" type="line"/>
    </contour>
  </outline>
</glyph>
<glyph name="m" format="2">
  <advance width="1718"/>
  <unicode hex="006D"/>
  <outline>
    <contour>
      <point x="120" y="0" type="line"/>
      <point x="120" y="825" type="line" smooth="yes"/>
      <point x="120" y="941"/>
      <point x="215" y="1036"/>
      <point x="332" y="1036" type="curve" smooth="yes"/>
      <point x="648" y="1036" type="line" smooth="yes"/>
      <point x="730" y="1036"/>
      <point x="806" y="1007"/>
      <point x="858" y="956" type="curve"/>
      <point x="910" y="1008"/>
      <point x="984" y="1036"/>
      <point x="1068" y="1036" type="curve" smooth="yes"/>
      <point x="1224" y="1036" type="line" smooth="yes"/>
      <point x="1430" y="1036"/>
      <point x="1598" y="869"/>
      <point x="1598" y="663" type="curve" smooth="yes"/>
      <point x="1598" y="0" type="line"/>
      <point x="1388" y="0" type="line"/>
      <point x="1388" y="660" type="line" smooth="yes"/>
      <point x="1388" y="752"/>
      <point x="1315" y="826"/>
      <point x="1224" y="826" type="curve" smooth="yes"/>
      <point x="1068" y="826" type="line" smooth="yes"/>
      <point x="1009" y="826"/>
      <point x="962" y="784"/>
      <point x="962" y="732" type="curve" smooth="yes"/>
      <point x="962" y="0" type="line"/>
      <point x="751" y="0" type="line"/>
      <point x="751" y="732" type="line" smooth="yes"/>
      <point x="751" y="784"/>
      <point x="705" y="826"/>
      <point x="648" y="826" type="curve" smooth="yes"/>
      <point x="331" y="826" type="line"/>
      <point x="331" y="0" type="line"/>
    </contour>
  </outline>
</glyph>
<glyph name="p" format="2">
  <advance width="1182"/>
  <unicode hex="0070"/>
  <outline>
    <contour>
      <point x="110" y="-386" type="line"/>
      <point x="110" y="825" type="line" smooth="yes"/>
      <point x="110" y="941"/>
      <point x="205" y="1036"/>
      <point x="321" y="1036" type="curve" smooth="yes"/>
      <point x="688" y="1036" type="line" smooth="yes"/>
      <point x="894" y="1036"/>
      <point x="1062" y="869"/>
      <point x="1062" y="664" type="curve" smooth="yes"/>
      <point x="1062" y="374" type="line" smooth="yes"/>
      <point x="1062" y="168"/>
      <point x="894" y="0"/>
      <point x="688" y="0" type="curve" smooth="yes"/>
      <point x="441" y="0" type="line"/>
      <point x="441" y="211" type="line"/>
      <point x="688" y="211" type="line" smooth="yes"/>
      <point x="778" y="211"/>
      <point x="851" y="285"/>
      <point x="851" y="376" type="curve" smooth="yes"/>
      <point x="851" y="662" type="line" smooth="yes"/>
      <point x="851" y="752"/>
      <point x="778" y="825"/>
      <point x="688" y="825" type="curve" smooth="yes"/>
      <point x="321" y="825" type="line"/>
      <point x="321" y="-386" type="line"/>
    </contour>
  </outline>
</glyph>
<glyph name="v" format="2">
  <advance width="1076"/>
  <unicode hex="0076"/>
  <outline>
    <contour>
      <point x="40" y="1036" type="line"/>
      <point x="262" y="1036" type="line"/>
      <point x="539" y="305" type="line"/>
      <point x="814" y="1036" type="line"/>
      <point x="1036" y="1036" type="line"/>
      <point x="641" y="0" type="line"/>
      <point x="434" y="0" type="line"/>
    </contour>
  </outline>
</glyph>
<glyph name="w" format="2">
  <advance width="1492"/>
  <unicode hex="0077"/>
  <outline>
    <contour>
      <point x="60" y="1036" type="line"/>
      <point x="272" y="1036" type="line"/>
      <point x="391" y="350" type="line"/>
      <point x="647" y="787" type="line"/>
      <point x="846" y="787" type="line"/>
      <point x="1102" y="350" type="line"/>
      <point x="1221" y="1036" type="line"/>
      <point x="1432" y="1036" type="line"/>
      <point x="1253" y="0" type="line"/>
      <point x="1068" y="0" type="line"/>
      <point x="747" y="543" type="line"/>
      <point x="425" y="0" type="line"/>
      <point x="240" y="0" type="line"/>
    </contour>
  </outline>
</glyph>
<glyph name="x" format="2">
  <advance width="1199"/>
  <unicode hex="0078"/>
  <outline>
    <contour>
      <point x="40" y="0" type="line"/>
      <point x="462" y="519" type="line"/>
      <point x="40" y="1036" type="line"/>
      <point x="309" y="1036" type="line"/>
      <point x="600" y="677" type="line"/>
      <point x="891" y="1036" type="line"/>
      <point x="1159" y="1036" type="line"/>
      <point x="738" y="519" type="line"/>
      <point x="1159" y="0" type="line"/>
      <point x="892" y="0" type="line"/>
      <point x="600" y="359" type="line"/>
      <point x="308" y="0" type="line"/>
    </contour>
  </outline>
</glyph>
<glyph name="y" format="2">
  <advance width="1121"/>
  <unicode hex="0079"/>
  <outline>
    <contour>
      <point x="60" y="1036" type="line"/>
      <point x="284" y="1036" type="line"/>
      <point x="553" y="318" type="line"/>
      <point x="828" y="1036" type="line"/>
      <point x="1061" y="1036" type="line"/>
      <point x="511" y="-390" type="line"/>
      <point x="280" y="-390" type="line"/>
      <point x="441" y="34" type="line"/>
    </contour>
  </outline>
</glyph>
<glyph name="z" format="2">
  <advance width="1175"/>
  <unicode hex="007A"/>
  <outline>
    <contour>
      <point x="110" y="0" type="line"/>
      <point x="110" y="161" type="line"/>
      <point x="733" y="826" type="line"/>
      <point x="110" y="826" type="line"/>
      <point x="110" y="1036" type="line"/>
      <point x="1065" y="1036" type="line"/>
      <point x="1065" y="878" type="line"/>
      <point x="439" y="210" type="line"/>
      <point x="1065" y="210" type="line"/>
      <point x="1065" y="0" type="line"/>
    </contour>
  </outline>
</glyph>
<glyph name="bar" format="2">
  <advance width="428"/>
  <unicode hex="007C"/>
  <outline>
    <contour>
      <point x="120" y="-382" type="line"/>
      <point x="120" y="1532" type="line"/>
      <point x="309" y="1532" type="line"/>
      <point x="309" y="-382" type="line"/>
    </contour>
  </outline>
</glyph>
<glyph name="braceright" format="2">
  <advance width="725"/>
  <unicode hex="007D"/>
  <outline>
    <contour>
      <point x="40" y="-180" type="line"/>
      <point x="257" y="-180"/>
      <point x="291" y="-161"/>
      <point x="291" y="-38" type="curve" smooth="yes"/>
      <point x="291" y="406" type="line" smooth="yes"/>
      <point x="291" y="493"/>
      <point x="315" y="573"/>
      <point x="358" y="629" type="curve"/>
      <point x="317" y="685"/>
      <point x="291" y="771"/>
      <point x="291" y="853" type="curve" smooth="yes"/>
      <point x="291" y="1261" type="line" smooth="yes"/>
      <point x="291" y="1415"/>
      <point x="280" y="1422"/>
      <point x="40" y="1422" type="curve"/>
      <point x="40" y="1632" type="line"/>
      <point x="431" y="1632"/>
      <point x="502" y="1575"/>
      <point x="502" y="1261" type="curve" smooth="yes"/>
      <point x="502" y="853" type="line" smooth="yes"/>
      <point x="502" y="745"/>
      <point x="513" y="735"/>
      <point x="635" y="735" type="curve"/>
      <point x="635" y="521" type="line"/>
      <point x="531" y="521"/>
      <point x="502" y="496"/>
      <point x="502" y="406" type="curve" smooth="yes"/>
      <point x="502" y="-38" type="line" smooth="yes"/>
      <point x="502" y="-333"/>
      <point x="427" y="-390"/>
      <point x="40" y="-390" type="curve"/>
    </contour>
  </outline>
</glyph>
<glyph name="exclamdown" format="2">
  <advance width="500"/>
  <unicode hex="00A1"/>
  <outline>
    <contour>
      <point x="120" y="1123" type="curve" smooth="yes"/>
      <point x="120" y="1195"/>
      <point x="178" y="1253"/>
      <point x="250" y="1253" type="curve" smooth="yes"/>
      <point x="322" y="1253"/>
      <point x="380" y="1195"/>
      <point x="380" y="1123" type="curve" smooth="yes"/>
      <point x="380" y="1051"/>
      <point x="322" y="993"/>
      <point x="250" y="993" type="curve" smooth="yes"/>
      <point x="178" y="993"/>
      <point x="120" y="1051"/>
    </contour>
    <contour>
      <point x="144" y="-390" type="line"/>
      <point x="144" y="841" type="line"/>
      <point x="356" y="841" type="line"/>
      <point x="356" y="-390" type="line"/>
    </contour>
  </outline>
</glyph>
<glyph name="cent" format="2">
  <advance width="1202"/>
  <unicode hex="00A2"/>
  <outline>
    <contour>
      <point x="331" y="856" type="curve" smooth="yes"/>
      <point x="331" y="575" type="line" smooth="yes"/>
      <point x="331" y="482"/>
      <point x="409" y="407"/>
      <point x="504" y="407" type="curve" smooth="yes"/>
      <point x="585" y="407" type="line"/>
      <point x="585" y="1022" type="line"/>
      <point x="504" y="1022" type="line" smooth="yes"/>
      <point x="409" y="1022"/>
      <point x="331" y="948"/>
    </contour>
    <contour>
      <point x="120" y="572" type="curve" smooth="yes"/>
      <point x="120" y="858" type="line" smooth="yes"/>
      <point x="120" y="1065"/>
      <point x="292" y="1233"/>
      <point x="504" y="1233" type="curve" smooth="yes"/>
      <point x="585" y="1233" type="line"/>
      <point x="585" y="1422" type="line"/>
      <point x="770" y="1422" type="line"/>
      <point x="770" y="1233" type="line"/>
      <point x="1088" y="1233" type="line"/>
      <point x="1088" y="1022" type="line"/>
      <point x="770" y="1022" type="line"/>
      <point x="770" y="407" type="line"/>
      <point x="1088" y="407" type="line"/>
      <point x="1088" y="197" type="line"/>
      <point x="770" y="197" type="line"/>
      <point x="770" y="0" type="line"/>
      <point x="585" y="0" type="line"/>
      <point x="585" y="197" type="line"/>
      <point x="504" y="197" type="line" smooth="yes"/>
      <point x="292" y="197"/>
      <point x="120" y="365"/>
    </contour>
  </outline>
</glyph>
<glyph name="currency" format="2">
  <advance width="1024"/>
  <unicode hex="00A4"/>
  <outline>
    <contour>
      <point x="110" y="355" type="line"/>
      <point x="201" y="447" type="line"/>
      <point x="160" y="508"/>
      <point x="139" y="578"/>
      <point x="139" y="653" type="curve" smooth="yes"/>
      <point x="139" y="723"/>
      <point x="161" y="796"/>
      <point x="201" y="859" type="curve"/>
      <point x="110" y="951" type="line"/>
      <point x="213" y="1056" type="line"/>
      <point x="305" y="963" type="line"/>
      <point x="368" y="1005"/>
      <point x="439" y="1027"/>
      <point x="512" y="1027" type="curve" smooth="yes"/>
      <point x="584" y="1027"/>
      <point x="656" y="1005"/>
      <point x="719" y="963" type="curve"/>
      <point x="810" y="1056" type="line"/>
      <point x="914" y="951" type="line"/>
      <point x="823" y="859" type="line"/>
      <point x="864" y="794"/>
      <point x="885" y="725"/>
      <point x="885" y="653" type="curve" smooth="yes"/>
      <point x="885" y="580"/>
      <point x="863" y="507"/>
      <point x="823" y="447" type="curve"/>
      <point x="914" y="355" type="line"/>
      <point x="810" y="250" type="line"/>
      <point x="719" y="343" type="line"/>
      <point x="655" y="301"/>
      <point x="584" y="279"/>
      <point x="512" y="279" type="curve" smooth="yes"/>
      <point x="442" y="279"/>
      <point x="370" y="301"/>
      <point x="305" y="343" type="curve"/>
      <point x="213" y="250" type="line"/>
    </contour>
    <contour>
      <point x="299" y="653" type="curve" smooth="yes"/>
      <point x="299" y="535"/>
      <point x="394" y="439"/>
      <point x="512" y="439" type="curve" smooth="yes"/>
      <point x="630" y="439"/>
      <point x="726" y="535"/>
      <point x="726" y="653" type="curve" smooth="yes"/>
      <point x="726" y="771"/>
      <point x="630" y="867"/>
      <point x="512" y="867" type="curve" smooth="yes"/>
      <point x="394" y="867"/>
      <point x="299" y="771"/>
    </contour>
  </outline>
</glyph>
<glyph name="brokenbar" format="2">
  <advance width="437"/>
  <unicode hex="00A6"/>
  <outline>
    <contour>
      <point x="120" y="-390" type="line"/>
      <point x="120" y="424" type="line"/>
      <point x="317" y="424" type="line"/>
      <point x="317" y="-390" type="line"/>
    </contour>
    <contour>
      <point x="120" y="725" type="line"/>
      <point x="120" y="1540" type="line"/>
      <point x="317" y="1540" type="line"/>
      <point x="317" y="725" type="line"/>
    </contour>
  </outline>
</glyph>
<glyph name="section" format="2">
  <advance width="1192"/>
  <unicode hex="00A7"/>
  <outline>
    <contour>
      <point x="331" y="761" type="curve" smooth="yes"/>
      <point x="331" y="690" type="line" smooth="yes"/>
      <point x="331" y="655"/>
      <point x="356" y="626"/>
      <point x="386" y="626" type="curve" smooth="yes"/>
      <point x="810" y="626" type="line" smooth="yes"/>
      <point x="839" y="626"/>
      <point x="862" y="655"/>
      <point x="862" y="690" type="curve" smooth="yes"/>
      <point x="862" y="761" type="line" smooth="yes"/>
      <point x="862" y="796"/>
      <point x="839" y="825"/>
      <point x="810" y="825" type="curve" smooth="yes"/>
      <point x="386" y="825" type="line" smooth="yes"/>
      <point x="356" y="825"/>
      <point x="331" y="796"/>
    </contour>
    <contour>
      <point x="120" y="681" type="curve" smooth="yes"/>
      <point x="120" y="768" type="line" smooth="yes"/>
      <point x="120" y="851"/>
      <point x="141" y="923"/>
      <point x="180" y="971" type="curve"/>
      <point x="163" y="1011"/>
      <point x="155" y="1057"/>
      <point x="155" y="1108" type="curve" smooth="yes"/>
      <point x="155" y="1129" type="line" smooth="yes"/>
      <point x="155" y="1292"/>
      <point x="286" y="1422"/>
      <point x="449" y="1422" type="curve" smooth="yes"/>
      <point x="998" y="1422" type="line"/>
      <point x="998" y="1212" type="line"/>
      <point x="449" y="1212" type="line" smooth="yes"/>
      <point x="403" y="1212"/>
      <point x="366" y="1175"/>
      <point x="366" y="1129" type="curve" smooth="yes"/>
      <point x="366" y="1108" type="line" smooth="yes"/>
      <point x="366" y="1068"/>
      <point x="394" y="1036"/>
      <point x="430" y="1036" type="curve" smooth="yes"/>
      <point x="807" y="1036" type="line" smooth="yes"/>
      <point x="953" y="1036"/>
      <point x="1072" y="916"/>
      <point x="1072" y="767" type="curve" smooth="yes"/>
      <point x="1072" y="681" type="line" smooth="yes"/>
      <point x="1072" y="583"/>
      <point x="1042" y="513"/>
      <point x="976" y="455" type="curve"/>
      <point x="988" y="415"/>
      <point x="993" y="380"/>
      <point x="993" y="327" type="curve" smooth="yes"/>
      <point x="993" y="301" type="line" smooth="yes"/>
      <point x="993" y="135"/>
      <point x="865" y="0"/>
      <point x="708" y="0" type="curve" smooth="yes"/>
      <point x="164" y="0" type="line"/>
      <point x="164" y="211" type="line"/>
      <point x="707" y="211" type="line" smooth="yes"/>
      <point x="748" y="211"/>
      <point x="782" y="250"/>
      <point x="782" y="298" type="curve" smooth="yes"/>
      <point x="782" y="327" type="line" smooth="yes"/>
      <point x="782" y="371"/>
      <point x="745" y="415"/>
      <point x="707" y="415" type="curve" smooth="yes"/>
      <point x="386" y="415" type="line" smooth="yes"/>
      <point x="239" y="415"/>
      <point x="120" y="534"/>
    </contour>
  </outline>
</glyph>
<glyph name="copyright" format="2">
  <advance width="1277"/>
  <unicode hex="00A9"/>
  <outline>
    <contour>
      <point x="267" y="1144" type="curve" smooth="yes"/>
      <point x="267" y="647" type="line" smooth="yes"/>
      <point x="267" y="562"/>
      <point x="336" y="493"/>
      <point x="421" y="493" type="curve" smooth="yes"/>
      <point x="856" y="493" type="line" smooth="yes"/>
      <point x="941" y="493"/>
      <point x="1010" y="562"/>
      <point x="1010" y="647" type="curve" smooth="yes"/>
      <point x="1010" y="1144" type="line" smooth="yes"/>
      <point x="1010" y="1228"/>
      <point x="941" y="1297"/>
      <point x="856" y="1297" type="curve" smooth="yes"/>
      <point x="421" y="1297" type="line" smooth="yes"/>
      <point x="336" y="1297"/>
      <point x="267" y="1228"/>
    </contour>
    <contour>
      <point x="373" y="806" type="curve" smooth="yes"/>
      <point x="373" y="988" type="line" smooth="yes"/>
      <point x="373" y="1114"/>
      <point x="476" y="1216"/>
      <point x="602" y="1216" type="curve" smooth="yes"/>
      <point x="872" y="1216" type="line"/>
      <point x="872" y="1089" type="line"/>
      <point x="602" y="1089" type="line" smooth="yes"/>
      <point x="547" y="1089"/>
      <point x="501" y="1043"/>
      <point x="501" y="988" type="curve" smooth="yes"/>
      <point x="501" y="806" type="line" smooth="yes"/>
      <point x="501" y="750"/>
      <point x="546" y="705"/>
      <point x="602" y="705" type="curve" smooth="yes"/>
      <point x="872" y="705" type="line"/>
      <point x="872" y="578" type="line"/>
      <point x="602" y="578" type="line" smooth="yes"/>
      <point x="476" y="578"/>
      <point x="373" y="680"/>
    </contour>
    <contour>
      <point x="140" y="647" type="curve" smooth="yes"/>
      <point x="140" y="1144" type="line" smooth="yes"/>
      <point x="140" y="1299"/>
      <point x="266" y="1424"/>
      <point x="421" y="1424" type="curve" smooth="yes"/>
      <point x="856" y="1424" type="line" smooth="yes"/>
      <point x="1011" y="1424"/>
      <point x="1137" y="1299"/>
      <point x="1137" y="1144" type="curve" smooth="yes"/>
      <point x="1137" y="647" type="line" smooth="yes"/>
      <point x="1137" y="492"/>
      <point x="1011" y="366"/>
      <point x="856" y="366" type="curve" smooth="yes"/>
      <point x="421" y="366" type="line" smooth="yes"/>
      <point x="266" y="366"/>
      <point x="140" y="492"/>
    </contour>
  </outline>
</glyph>
<glyph name="guillemotleft" format="2">
  <advance width="1288"/>
  <unicode hex="00AB"/>
  <outline>
    <contour>
      <point x="110" y="497" type="line"/>
      <point x="110" y="604" type="line"/>
      <point x="686" y="1007" type="line"/>
      <point x="686" y="783" type="line"/>
      <point x="355" y="549" type="line"/>
      <point x="686" y="317" type="line"/>
      <point x="686" y="94" type="line"/>
    </contour>
    <contour>
      <point x="603" y="497" type="line"/>
      <point x="603" y="604" type="line"/>
      <point x="1178" y="1007" type="line"/>
      <point x="1178" y="783" type="line"/>
      <point x="848" y="549" type="line"/>
      <point x="1178" y="317" type="line"/>
      <point x="1178" y="94" type="line"/>
    </contour>
  </outline>
</glyph>
<glyph name="uni00AD" format="2">
  <advance width="847"/>
  <unicode hex="00AD"/>
  <outline>
    <contour>
      <point x="110" y="466" type="line"/>
      <point x="110" y="642" type="line"/>
      <point x="737" y="642" type="line"/>
      <point x="737" y="466" type="line"/>
    </contour>
  </outline>
</glyph>
<glyph name="twosuperior" format="2">
  <advance width="786"/>
  <unicode hex="00B2"/>
  <outline>
    <contour>
      <point x="70" y="596" type="line"/>
      <point x="70" y="879" type="line" smooth="yes"/>
      <point x="70" y="970"/>
      <point x="108" y="1009"/>
      <point x="216" y="1029" type="curve" smooth="yes"/>
      <point x="523" y="1086" type="line" smooth="yes"/>
      <point x="560" y="1093"/>
      <point x="586" y="1126"/>
      <point x="586" y="1164" type="curve" smooth="yes"/>
      <point x="586" y="1216" type="line" smooth="yes"/>
      <point x="586" y="1258"/>
      <point x="552" y="1291"/>
      <point x="509" y="1291" type="curve" smooth="yes"/>
      <point x="111" y="1291" type="line"/>
      <point x="111" y="1422" type="line"/>
      <point x="509" y="1422" type="line" smooth="yes"/>
      <point x="623" y="1422"/>
      <point x="716" y="1332"/>
      <point x="716" y="1222" type="curve" smooth="yes"/>
      <point x="716" y="1164" type="line" smooth="yes"/>
      <point x="716" y="1066"/>
      <point x="654" y="982"/>
      <point x="570" y="966" type="curve" smooth="yes"/>
      <point x="226" y="901" type="line" smooth="yes"/>
      <point x="205" y="897"/>
      <point x="200" y="893"/>
      <point x="200" y="880" type="curve" smooth="yes"/>
      <point x="200" y="727" type="line"/>
      <point x="715" y="727" type="line"/>
      <point x="715" y="596" type="line"/>
    </contour>
  </outline>
</glyph>
<glyph name="cedilla" format="2">
  <advance width="502"/>
  <unicode hex="00B8"/>
  <outline>
    <contour>
      <point x="100" y="-149" type="line"/>
      <point x="182" y="-162"/>
      <point x="193" y="-163"/>
      <point x="210" y="-163" type="curve" smooth="yes"/>
      <point x="240" y="-163"/>
      <point x="251" y="-154"/>
      <point x="251" y="-132" type="curve" smooth="yes"/>
      <point x="251" y="-112"/>
      <point x="244" y="-89"/>
      <point x="212" y="0" type="curve"/>
      <point x="360" y="0" type="line"/>
      <point x="388" y="-75"/>
      <point x="402" y="-136"/>
      <point x="402" y="-183" type="curve" smooth="yes"/>
      <point x="402" y="-272"/>
      <point x="354" y="-313"/>
      <point x="250" y="-313" type="curve" smooth="yes"/>
      <point x="217" y="-313"/>
      <point x="188" y="-310"/>
      <point x="100" y="-297" type="curve"/>
    </contour>
  </outline>
</glyph>
<glyph name="guillemotright" format="2">
  <advance width="1288"/>
  <unicode hex="00BB"/>
  <outline>
    <contour>
      <point x="110" y="94" type="line"/>
      <point x="110" y="317" type="line"/>
      <point x="440" y="549" type="line"/>
      <point x="110" y="783" type="line"/>
      <point x="110" y="1007" type="line"/>
      <point x="685" y="604" type="line"/>
      <point x="685" y="497" type="line"/>
    </contour>
    <contour>
      <point x="602" y="94" type="line"/>
      <point x="602" y="317" type="line"/>
      <point x="933" y="549" type="line"/>
      <point x="602" y="783" type="line"/>
      <point x="602" y="1007" type="line"/>
      <point x="1178" y="604" type="line"/>
      <point x="1178" y="497" type="line"/>
    </contour>
  </outline>
</glyph>
<glyph name="onequarter" format="2">
  <advance width="2043"/>
  <unicode hex="00BC"/>
  <outline>
    <contour>
      <point x="120" y="1292" type="line"/>
      <point x="120" y="1422" type="line"/>
      <point x="393" y="1422" type="line"/>
      <point x="393" y="588" type="line"/>
      <point x="263" y="588" type="line"/>
      <point x="263" y="1292" type="line"/>
    </contour>
    <contour>
      <point x="265" y="0" type="line"/>
      <point x="1272" y="1422" type="line"/>
      <point x="1433" y="1422" type="line"/>
      <point x="426" y="0" type="line"/>
    </contour>
    <contour>
      <point x="1305" y="541" type="curve" smooth="yes"/>
      <point x="1305" y="830" type="line"/>
      <point x="1435" y="830" type="line"/>
      <point x="1435" y="543" type="line" smooth="yes"/>
      <point x="1435" y="500"/>
      <point x="1468" y="466"/>
      <point x="1511" y="466" type="curve" smooth="yes"/>
      <point x="1793" y="466" type="line"/>
      <point x="1793" y="830" type="line"/>
      <point x="1923" y="830" type="line"/>
      <point x="1923" y="0" type="line"/>
      <point x="1793" y="0" type="line"/>
      <point x="1793" y="335" type="line"/>
      <point x="1512" y="335" type="line" smooth="yes"/>
      <point x="1397" y="335"/>
      <point x="1305" y="427"/>
    </contour>
  </outline>
</glyph>
<glyph name="Atilde" format="2">
  <advance width="1361"/>
  <unicode hex="00C3"/>
  <outline>
    <contour>
      <point x="352" y="1552" type="line"/>
      <point x="353" y="1680"/>
      <point x="434" y="1773"/>
      <point x="546" y="1773" type="curve" smooth="yes"/>
      <point x="577" y="1773"/>
      <point x="609" y="1764"/>
      <point x="677" y="1736" type="curve" smooth="yes"/>
      <point x="750" y="1706"/>
      <point x="777" y="1698"/>
      <point x="808" y="1698" type="curve" smooth="yes"/>
      <point x="839" y="1698"/>
      <point x="853" y="1720"/>
      <point x="853" y="1768" type="curve"/>
      <point x="1010" y="1768" type="line"/>
      <point x="1010" y="1644"/>
      <point x="925" y="1544"/>
      <point x="818" y="1544" type="curve" smooth="yes"/>
      <point x="787" y="1544"/>
      <point x="755" y="1554"/>
      <point x="685" y="1584" type="curve" smooth="yes"/>
      <point x="610" y="1616"/>
      <point x="583" y="1625"/>
      <point x="552" y="1625" type="curve" smooth="yes"/>
      <point x="521" y="1625"/>
      <point x="507" y="1602"/>
      <point x="507" y="1552" type="curve"/>
    </contour>
    <contour>
      <point x="40" y="0" type="line"/>
      <point x="549" y="1422" type="line"/>
      <point x="812" y="1422" type="line"/>
      <point x="1321" y="0" type="line"/>
      <point x="1096" y="0" type="line"/>
      <point x="941" y="428" type="line"/>
      <point x="544" y="428" type="line"/>
      <point x="620" y="638" type="line"/>
      <point x="865" y="638" type="line"/>
      <point x="681" y="1146" type="line"/>
      <point x="265" y="0" type="line"/>
    </contour>
  </outline>
</glyph>
<glyph name="Adieresis" format="2">
  <advance width="1361"/>
  <unicode hex="00C4"/>
  <outline>
    <contour>
      <point x="400" y="1654" type="curve" smooth="yes"/>
      <point x="400" y="1716"/>
      <point x="449" y="1765"/>
      <point x="510" y="1765" type="curve" smooth="yes"/>
      <point x="572" y="1765"/>
      <point x="621" y="1716"/>
      <point x="621" y="1654" type="curve" smooth="yes"/>
      <point x="621" y="1593"/>
      <point x="572" y="1544"/>
      <point x="510" y="1544" type="curve" smooth="yes"/>
      <point x="449" y="1544"/>
      <point x="400" y="1593"/>
    </contour>
    <contour>
      <point x="740" y="1654" type="curve" smooth="yes"/>
      <point x="740" y="1716"/>
      <point x="789" y="1765"/>
      <point x="850" y="1765" type="curve" smooth="yes"/>
      <point x="912" y="1765"/>
      <point x="961" y="1716"/>
      <point x="961" y="1654" type="curve" smooth="yes"/>
      <point x="961" y="1593"/>
      <point x="912" y="1544"/>
      <point x="850" y="1544" type="curve" smooth="yes"/>
      <point x="789" y="1544"/>
      <point x="740" y="1593"/>
    </contour>
    <contour>
      <point x="40" y="0" type="line"/>
      <point x="549" y="1422" type="line"/>
      <point x="812" y="1422" type="line"/>
      <point x="1321" y="0" type="line"/>
      <point x="1096" y="0" type="line"/>
      <point x="941" y="428" type="line"/>
      <point x="544" y="428" type="line"/>
      <point x="620" y="638" type="line"/>
      <point x="865" y="638" type="line"/>
      <point x="681" y="1146" type="line"/>
      <point x="265" y="0" type="line"/>
    </contour>
  </outline>
</glyph>
<glyph name="Aring" format="2">
  <advance width="1361"/>
  <unicode hex="00C5"/>
  <outline>
    <contour>
      <point x="608" y="1671" type="curve" smooth="yes"/>
      <point x="608" y="1628" type="line" smooth="yes"/>
      <point x="608" y="1600"/>
      <point x="631" y="1577"/>
      <point x="660" y="1577" type="curve" smooth="yes"/>
      <point x="700" y="1577" type="line" smooth="yes"/>
      <point x="729" y="1577"/>
      <point x="752" y="1600"/>
      <point x="752" y="1628" type="curve" smooth="yes"/>
      <point x="752" y="1671" type="line" smooth="yes"/>
      <point x="752" y="1699"/>
      <point x="729" y="1722"/>
      <point x="700" y="1722" type="curve" smooth="yes"/>
      <point x="660" y="1722" type="line" smooth="yes"/>
      <point x="631" y="1722"/>
      <point x="608" y="1699"/>
    </contour>
    <contour>
      <point x="265" y="0" type="line"/>
      <point x="40" y="0" type="line"/>
      <point x="549" y="1422" type="line"/>
      <point x="812" y="1422" type="line"/>
      <point x="1321" y="0" type="line"/>
      <point x="1096" y="0" type="line"/>
      <point x="941" y="428" type="line"/>
      <point x="544" y="428" type="line"/>
      <point x="620" y="638" type="line"/>
      <point x="865" y="638" type="line"/>
      <point x="681" y="1146" type="line"/>
    </contour>
    <contour>
      <point x="490" y="1628" type="curve" smooth="yes"/>
      <point x="490" y="1671" type="line" smooth="yes"/>
      <point x="490" y="1765"/>
      <point x="566" y="1840"/>
      <point x="660" y="1840" type="curve" smooth="yes"/>
      <point x="700" y="1840" type="line" smooth="yes"/>
      <point x="794" y="1840"/>
      <point x="870" y="1765"/>
      <point x="870" y="1671" type="curve" smooth="yes"/>
      <point x="870" y="1628" type="line" smooth="yes"/>
      <point x="870" y="1534"/>
      <point x="794" y="1459"/>
      <point x="700" y="1459" type="curve" smooth="yes"/>
      <point x="660" y="1459" type="line" smooth="yes"/>
      <point x="566" y="1459"/>
      <point x="490" y="1534"/>
    </contour>
  </outline>
</glyph>
<glyph name="Ccedilla" format="2">
  <advance width="1381"/>
  <unicode hex="00C7"/>
  <outline>
    <contour>
      <point x="120" y="393" type="curve" smooth="yes"/>
      <point x="120" y="1022" type="line" smooth="yes"/>
      <point x="120" y="1243"/>
      <point x="302" y="1422"/>
      <point x="526" y="1422" type="curve" smooth="yes"/>
      <point x="1271" y="1422" type="line"/>
      <point x="1271" y="1212" type="line"/>
      <point x="526" y="1212" type="line" smooth="yes"/>
      <point x="418" y="1212"/>
      <point x="331" y="1127"/>
      <point x="331" y="1022" type="curve" smooth="yes"/>
      <point x="331" y="396" type="line" smooth="yes"/>
      <point x="331" y="294"/>
      <point x="418" y="211"/>
      <point x="526" y="211" type="curve" smooth="yes"/>
      <point x="1271" y="211" type="line"/>
      <point x="1271" y="0" type="line"/>
      <point x="773" y="0" type="line"/>
      <point x="799" y="-74"/>
      <point x="812" y="-130"/>
      <point x="812" y="-173" type="curve" smooth="yes"/>
      <point x="812" y="-262"/>
      <point x="764" y="-303"/>
      <point x="660" y="-303" type="curve" smooth="yes"/>
      <point x="627" y="-303"/>
      <point x="598" y="-300"/>
      <point x="510" y="-287" type="curve"/>
      <point x="510" y="-139" type="line"/>
      <point x="592" y="-152"/>
      <point x="603" y="-153"/>
      <point x="620" y="-153" type="curve" smooth="yes"/>
      <point x="649" y="-153"/>
      <point x="660" y="-145"/>
      <point x="660" y="-122" type="curve" smooth="yes"/>
      <point x="660" y="-103"/>
      <point x="654" y="-82"/>
      <point x="625" y="0" type="curve"/>
      <point x="526" y="0" type="line" smooth="yes"/>
      <point x="302" y="0"/>
      <point x="120" y="176"/>
    </contour>
  </outline>
</glyph>
<glyph name="Edieresis" format="2">
  <advance width="1363"/>
  <unicode hex="00CB"/>
  <outline>
    <contour>
      <point x="411" y="1654" type="curve" smooth="yes"/>
      <point x="411" y="1716"/>
      <point x="460" y="1765"/>
      <point x="521" y="1765" type="curve" smooth="yes"/>
      <point x="583" y="1765"/>
      <point x="632" y="1716"/>
      <point x="632" y="1654" type="curve" smooth="yes"/>
      <point x="632" y="1593"/>
      <point x="583" y="1544"/>
      <point x="521" y="1544" type="curve" smooth="yes"/>
      <point x="460" y="1544"/>
      <point x="411" y="1593"/>
    </contour>
    <contour>
      <point x="751" y="1654" type="curve" smooth="yes"/>
      <point x="751" y="1716"/>
      <point x="800" y="1765"/>
      <point x="861" y="1765" type="curve" smooth="yes"/>
      <point x="923" y="1765"/>
      <point x="972" y="1716"/>
      <point x="972" y="1654" type="curve" smooth="yes"/>
      <point x="972" y="1593"/>
      <point x="923" y="1544"/>
      <point x="861" y="1544" type="curve" smooth="yes"/>
      <point x="800" y="1544"/>
      <point x="751" y="1593"/>
    </contour>
    <contour>
      <point x="140" y="0" type="line"/>
      <point x="140" y="1422" type="line"/>
      <point x="1243" y="1422" type="line"/>
      <point x="1243" y="1212" type="line"/>
      <point x="351" y="1212" type="line"/>
      <point x="351" y="211" type="line"/>
      <point x="1243" y="211" type="line"/>
      <point x="1243" y="0" type="line"/>
    </contour>
    <contour>
      <point x="471" y="635" type="line"/>
      <point x="471" y="845" type="line"/>
      <point x="1243" y="845" type="line"/>
      <point x="1243" y="635" type="line"/>
    </contour>
  </outline>
</glyph>
<glyph name="Icircumflex" format="2">
  <advance width="491"/>
  <unicode hex="00CE"/>
  <outline>
    <contour>
      <point x="-66" y="1544" type="line"/>
      <point x="168" y="1853" type="line"/>
      <point x="323" y="1853" type="line"/>
      <point x="557" y="1544" type="line"/>
      <point x="416" y="1544" type="line"/>
      <point x="245" y="1716" type="line"/>
      <point x="75" y="1544" type="line"/>
    </contour>
    <contour>
      <point x="140" y="0" type="line"/>
      <point x="140" y="1422" type="line"/>
      <point x="351" y="1422" type="line"/>
      <point x="351" y="0" type="line"/>
    </contour>
  </outline>
</glyph>
<glyph name="Idieresis" format="2">
  <advance width="491"/>
  <unicode hex="00CF"/>
  <outline>
    <contour>
      <point x="-35" y="1654" type="curve" smooth="yes"/>
      <point x="-35" y="1716"/>
      <point x="14" y="1765"/>
      <point x="75" y="1765" type="curve" smooth="yes"/>
      <point x="137" y="1765"/>
      <point x="186" y="1716"/>
      <point x="186" y="1654" type="curve" smooth="yes"/>
      <point x="186" y="1593"/>
      <point x="137" y="1544"/>
      <point x="75" y="1544" type="curve" smooth="yes"/>
      <point x="14" y="1544"/>
      <point x="-35" y="1593"/>
    </contour>
    <contour>
      <point x="305" y="1654" type="curve" smooth="yes"/>
      <point x="305" y="1716"/>
      <point x="354" y="1765"/>
      <point x="415" y="1765" type="curve" smooth="yes"/>
      <point x="477" y="1765"/>
      <point x="526" y="1716"/>
      <point x="526" y="1654" type="curve" smooth="yes"/>
      <point x="526" y="1593"/>
      <point x="477" y="1544"/>
      <point x="415" y="1544" type="curve" smooth="yes"/>
      <point x="354" y="1544"/>
      <point x="305" y="1593"/>
    </contour>
    <contour>
      <point x="140" y="0" type="line"/>
      <point x="140" y="1422" type="line"/>
      <point x="351" y="1422" type="line"/>
      <point x="351" y="0" type="line"/>
    </contour>
  </outline>
</glyph>
<glyph name="Eth" format="2">
  <advance width="1465"/>
  <unicode hex="00D0"/>
  <outline>
    <contour>
      <point x="90" y="650" type="line"/>
      <point x="90" y="820" type="line"/>
      <point x="187" y="820" type="line"/>
      <point x="187" y="1422" type="line"/>
      <point x="942" y="1422" type="line" smooth="yes"/>
      <point x="1164" y="1422"/>
      <point x="1345" y="1243"/>
      <point x="1345" y="1022" type="curve" smooth="yes"/>
      <point x="1345" y="396" type="line" smooth="yes"/>
      <point x="1345" y="177"/>
      <point x="1164" y="0"/>
      <point x="942" y="0" type="curve" smooth="yes"/>
      <point x="187" y="0" type="line"/>
      <point x="187" y="650" type="line"/>
    </contour>
    <contour>
      <point x="397" y="211" type="line"/>
      <point x="942" y="211" type="line" smooth="yes"/>
      <point x="1048" y="211"/>
      <point x="1135" y="295"/>
      <point x="1135" y="399" type="curve" smooth="yes"/>
      <point x="1135" y="1022" type="line" smooth="yes"/>
      <point x="1135" y="1127"/>
      <point x="1048" y="1212"/>
      <point x="942" y="1212" type="curve" smooth="yes"/>
      <point x="397" y="1212" type="line"/>
      <point x="397" y="820" type="line"/>
      <point x="867" y="820" type="line"/>
      <point x="867" y="650" type="line"/>
      <point x="397" y="650" type="line"/>
    </contour>
  </outline>
</glyph>
<glyph name="Ntilde" format="2">
  <advance width="1384"/>
  <unicode hex="00D1"/>
  <outline>
    <contour>
      <point x="363" y="1552" type="line"/>
      <point x="364" y="1680"/>
      <point x="445" y="1773"/>
      <point x="557" y="1773" type="curve" smooth="yes"/>
      <point x="588" y="1773"/>
      <point x="620" y="1764"/>
      <point x="688" y="1736" type="curve" smooth="yes"/>
      <point x="761" y="1706"/>
      <point x="788" y="1698"/>
      <point x="819" y="1698" type="curve" smooth="yes"/>
      <point x="850" y="1698"/>
      <point x="864" y="1720"/>
      <point x="864" y="1768" type="curve"/>
      <point x="1021" y="1768" type="line"/>
      <point x="1021" y="1644"/>
      <point x="936" y="1544"/>
      <point x="829" y="1544" type="curve" smooth="yes"/>
      <point x="798" y="1544"/>
      <point x="766" y="1554"/>
      <point x="696" y="1584" type="curve" smooth="yes"/>
      <point x="621" y="1616"/>
      <point x="594" y="1625"/>
      <point x="563" y="1625" type="curve" smooth="yes"/>
      <point x="532" y="1625"/>
      <point x="518" y="1602"/>
      <point x="518" y="1552" type="curve"/>
    </contour>
    <contour>
      <point x="140" y="0" type="line"/>
      <point x="140" y="1422" type="line"/>
      <point x="414" y="1422" type="line"/>
      <point x="1033" y="305" type="line"/>
      <point x="1033" y="1422" type="line"/>
      <point x="1244" y="1422" type="line"/>
      <point x="1244" y="0" type="line"/>
      <point x="970" y="0" type="line"/>
      <point x="351" y="1102" type="line"/>
      <point x="351" y="0" type="line"/>
    </contour>
  </outline>
</glyph>
<glyph name="Oacute" format="2">
  <advance width="1461"/>
  <unicode hex="00D3"/>
  <outline>
    <contour>
      <point x="351" y="1023" type="curve" smooth="yes"/>
      <point x="351" y="399" type="line" smooth="yes"/>
      <point x="351" y="295"/>
      <point x="446" y="210"/>
      <point x="564" y="210" type="curve" smooth="yes"/>
      <point x="897" y="210" type="line" smooth="yes"/>
      <point x="1015" y="210"/>
      <point x="1110" y="295"/>
      <point x="1110" y="399" type="curve" smooth="yes"/>
      <point x="1110" y="1023" type="line" smooth="yes"/>
      <point x="1110" y="1127"/>
      <point x="1015" y="1212"/>
      <point x="897" y="1212" type="curve" smooth="yes"/>
      <point x="564" y="1212" type="line" smooth="yes"/>
      <point x="446" y="1212"/>
      <point x="351" y="1127"/>
    </contour>
    <contour>
      <point x="140" y="400" type="curve" smooth="yes"/>
      <point x="140" y="1022" type="line" smooth="yes"/>
      <point x="140" y="1243"/>
      <point x="330" y="1422"/>
      <point x="564" y="1422" type="curve" smooth="yes"/>
      <point x="897" y="1422" type="line" smooth="yes"/>
      <point x="1131" y="1422"/>
      <point x="1321" y="1243"/>
      <point x="1321" y="1022" type="curve" smooth="yes"/>
      <point x="1321" y="400" type="line" smooth="yes"/>
      <point x="1321" y="179"/>
      <point x="1131" y="0"/>
      <point x="897" y="0" type="curve" smooth="yes"/>
      <point x="564" y="0" type="line" smooth="yes"/>
      <point x="330" y="0"/>
      <point x="140" y="179"/>
    </contour>
    <contour>
      <point x="731" y="1544" type="line"/>
      <point x="617" y="1597" type="line"/>
      <point x="746" y="1966" type="line"/>
      <point x="929" y="1878" type="line"/>
    </contour>
  </outline>
</glyph>
<glyph name="Otilde" format="2">
  <advance width="1461"/>
  <unicode hex="00D5"/>
  <outline>
    <contour>
      <point x="351" y="1023" type="curve" smooth="yes"/>
      <point x="351" y="399" type="line" smooth="yes"/>
      <point x="351" y="295"/>
      <point x="446" y="210"/>
      <point x="564" y="210" type="curve" smooth="yes"/>
      <point x="897" y="210" type="line" smooth="yes"/>
      <point x="1015" y="210"/>
      <point x="1110" y="295"/>
      <point x="1110" y="399" type="curve" smooth="yes"/>
      <point x="1110" y="1023" type="line" smooth="yes"/>
      <point x="1110" y="1127"/>
      <point x="1015" y="1212"/>
      <point x="897" y="1212" type="curve" smooth="yes"/>
      <point x="564" y="1212" type="line" smooth="yes"/>
      <point x="446" y="1212"/>
      <point x="351" y="1127"/>
    </contour>
    <contour>
      <point x="140" y="400" type="curve" smooth="yes"/>
      <point x="140" y="1022" type="line" smooth="yes"/>
      <point x="140" y="1243"/>
      <point x="330" y="1422"/>
      <point x="564" y="1422" type="curve" smooth="yes"/>
      <point x="897" y="1422" type="line" smooth="yes"/>
      <point x="1131" y="1422"/>
      <point x="1321" y="1243"/>
      <point x="1321" y="1022" type="curve" smooth="yes"/>
      <point x="1321" y="400" type="line" smooth="yes"/>
      <point x="1321" y="179"/>
      <point x="1131" y="0"/>
      <point x="897" y="0" type="curve" smooth="yes"/>
      <point x="564" y="0" type="line" smooth="yes"/>
      <point x="330" y="0"/>
      <point x="140" y="179"/>
    </contour>
    <contour>
      <point x="557" y="1552" type="curve"/>
      <point x="402" y="1552" type="line"/>
      <point x="403" y="1680"/>
      <point x="484" y="1773"/>
      <point x="596" y="1773" type="curve" smooth="yes"/>
      <point x="627" y="1773"/>
      <point x="659" y="1764"/>
      <point x="727" y="1736" type="curve" smooth="yes"/>
      <point x="800" y="1706"/>
      <point x="827" y="1698"/>
      <point x="858" y="1698" type="curve" smooth="yes"/>
      <point x="889" y="1698"/>
      <point x="903" y="1720"/>
      <point x="903" y="1768" type="curve"/>
      <point x="1060" y="1768" type="line"/>
      <point x="1060" y="1644"/>
      <point x="975" y="1544"/>
      <point x="868" y="1544" type="curve" smooth="yes"/>
      <point x="837" y="1544"/>
      <point x="805" y="1554"/>
      <point x="735" y="1584" type="curve" smooth="yes"/>
      <point x="660" y="1616"/>
      <point x="633" y="1625"/>
      <point x="602" y="1625" type="curve" smooth="yes"/>
      <point x="571" y="1625"/>
      <point x="557" y="1602"/>
    </contour>
  </outline>
</glyph>
<glyph name="Odieresis" format="2">
  <advance width="1461"/>
  <unicode hex="00D6"/>
  <outline>
    <contour>
      <point x="351" y="1023" type="curve" smooth="yes"/>
      <point x="351" y="399" type="line" smooth="yes"/>
      <point x="351" y="295"/>
      <point x="446" y="210"/>
      <point x="564" y="210" type="curve" smooth="yes"/>
      <point x="897" y="210" type="line" smooth="yes"/>
      <point x="1015" y="210"/>
      <point x="1110" y="295"/>
      <point x="1110" y="399" type="curve" smooth="yes"/>
      <point x="1110" y="1023" type="line" smooth="yes"/>
      <point x="1110" y="1127"/>
      <point x="1015" y="1212"/>
      <point x="897" y="1212" type="curve" smooth="yes"/>
      <point x="564" y="1212" type="line" smooth="yes"/>
      <point x="446" y="1212"/>
      <point x="351" y="1127"/>
    </contour>
    <contour>
      <point x="140" y="400" type="curve" smooth="yes"/>
      <point x="140" y="1022" type="line" smooth="yes"/>
      <point x="140" y="1243"/>
      <point x="330" y="1422"/>
      <point x="564" y="1422" type="curve" smooth="yes"/>
      <point x="897" y="1422" type="line" smooth="yes"/>
      <point x="1131" y="1422"/>
      <point x="1321" y="1243"/>
      <point x="1321" y="1022" type="curve" smooth="yes"/>
      <point x="1321" y="400" type="line" smooth="yes"/>
      <point x="1321" y="179"/>
      <point x="1131" y="0"/>
      <point x="897" y="0" type="curve" smooth="yes"/>
      <point x="564" y="0" type="line" smooth="yes"/>
      <point x="330" y="0"/>
      <point x="140" y="179"/>
    </contour>
    <contour>
      <point x="450" y="1654" type="curve" smooth="yes"/>
      <point x="450" y="1716"/>
      <point x="499" y="1765"/>
      <point x="560" y="1765" type="curve" smooth="yes"/>
      <point x="622" y="1765"/>
      <point x="671" y="1716"/>
      <point x="671" y="1654" type="curve" smooth="yes"/>
      <point x="671" y="1593"/>
      <point x="622" y="1544"/>
      <point x="560" y="1544" type="curve" smooth="yes"/>
      <point x="499" y="1544"/>
      <point x="450" y="1593"/>
    </contour>
    <contour>
      <point x="790" y="1654" type="curve" smooth="yes"/>
      <point x="790" y="1716"/>
      <point x="839" y="1765"/>
      <point x="900" y="1765" type="curve" smooth="yes"/>
      <point x="962" y="1765"/>
      <point x="1011" y="1716"/>
      <point x="1011" y="1654" type="curve" smooth="yes"/>
      <point x="1011" y="1593"/>
      <point x="962" y="1544"/>
      <point x="900" y="1544" type="curve" smooth="yes"/>
      <point x="839" y="1544"/>
      <point x="790" y="1593"/>
    </contour>
  </outline>
</glyph>
<glyph name="multiply" format="2">
  <advance width="1034"/>
  <unicode hex="00D7"/>
  <outline>
    <contour>
      <point x="90" y="251" type="line"/>
      <point x="378" y="539" type="line"/>
      <point x="90" y="826" type="line"/>
      <point x="228" y="968" type="line"/>
      <point x="517" y="677" type="line"/>
      <point x="807" y="968" type="line"/>
      <point x="945" y="826" type="line"/>
      <point x="656" y="539" type="line"/>
      <point x="944" y="251" type="line"/>
      <point x="807" y="110" type="line"/>
      <point x="517" y="400" type="line"/>
      <point x="228" y="110" type="line"/>
    </contour>
  </outline>
</glyph>
<glyph name="Oslash" format="2">
  <advance width="1462"/>
  <unicode hex="00D8"/>
  <outline>
    <contour>
      <point x="355" y="1023" type="curve" smooth="yes"/>
      <point x="355" y="399" type="line" smooth="yes"/>
      <point x="355" y="382"/>
      <point x="356" y="370"/>
      <point x="359" y="359" type="curve"/>
      <point x="953" y="1206" type="line"/>
      <point x="936" y="1210"/>
      <point x="919" y="1212"/>
      <point x="901" y="1212" type="curve" smooth="yes"/>
      <point x="567" y="1212" type="line" smooth="yes"/>
      <point x="450" y="1212"/>
      <point x="355" y="1128"/>
    </contour>
    <contour>
      <point x="1100" y="1089" type="curve"/>
      <point x="493" y="222" type="line"/>
      <point x="516" y="214"/>
      <point x="541" y="210"/>
      <point x="567" y="210" type="curve" smooth="yes"/>
      <point x="901" y="210" type="line" smooth="yes"/>
      <point x="1018" y="210"/>
      <point x="1113" y="294"/>
      <point x="1113" y="399" type="curve" smooth="yes"/>
      <point x="1113" y="1023" type="line" smooth="yes"/>
      <point x="1113" y="1048"/>
      <point x="1109" y="1070"/>
    </contour>
    <contour>
      <point x="259" y="-111" type="line"/>
      <point x="105" y="-4" type="line"/>
      <point x="224" y="165" type="line"/>
      <point x="171" y="233"/>
      <point x="143" y="315"/>
      <point x="143" y="400" type="curve" smooth="yes"/>
      <point x="143" y="1022" type="line" smooth="yes"/>
      <point x="143" y="1243"/>
      <point x="333" y="1422"/>
      <point x="567" y="1422" type="curve" smooth="yes"/>
      <point x="901" y="1422" type="line" smooth="yes"/>
      <point x="962" y="1422"/>
      <point x="1022" y="1409"/>
      <point x="1078" y="1385" type="curve"/>
      <point x="1203" y="1564" type="line"/>
      <point x="1357" y="1457" type="line"/>
      <point x="1230" y="1274" type="line"/>
      <point x="1292" y="1202"/>
      <point x="1325" y="1114"/>
      <point x="1325" y="1022" type="curve" smooth="yes"/>
      <point x="1325" y="400" type="line" smooth="yes"/>
      <point x="1325" y="179"/>
      <point x="1135" y="0"/>
      <point x="901" y="0" type="curve" smooth="yes"/>
      <point x="567" y="0" type="line" smooth="yes"/>
      <point x="500" y="0"/>
      <point x="433" y="16"/>
      <point x="370" y="46" type="curve"/>
    </contour>
  </outline>
</glyph>
<glyph name="Uacute" format="2">
  <advance width="1438"/>
  <unicode hex="00DA"/>
  <outline>
    <contour>
      <point x="595" y="1597" type="line"/>
      <point x="724" y="1966" type="line"/>
      <point x="907" y="1878" type="line"/>
      <point x="709" y="1544" type="line"/>
    </contour>
    <contour>
      <point x="140" y="397" type="curve" smooth="yes"/>
      <point x="140" y="1422" type="line"/>
      <point x="351" y="1422" type="line"/>
      <point x="351" y="399" type="line" smooth="yes"/>
      <point x="351" y="295"/>
      <point x="438" y="211"/>
      <point x="545" y="211" type="curve" smooth="yes"/>
      <point x="894" y="211" type="line" smooth="yes"/>
      <point x="1001" y="211"/>
      <point x="1088" y="295"/>
      <point x="1088" y="399" type="curve" smooth="yes"/>
      <point x="1088" y="1422" type="line"/>
      <point x="1298" y="1422" type="line"/>
      <point x="1298" y="397" type="line" smooth="yes"/>
      <point x="1298" y="178"/>
      <point x="1117" y="0"/>
      <point x="894" y="0" type="curve" smooth="yes"/>
      <point x="545" y="0" type="line" smooth="yes"/>
      <point x="321" y="0"/>
      <point x="140" y="178"/>
    </contour>
  </outline>
</glyph>
<glyph name="Udieresis" format="2">
  <advance width="1438"/>
  <unicode hex="00DC"/>
  <outline>
    <contour>
      <point x="429" y="1654" type="curve" smooth="yes"/>
      <point x="429" y="1716"/>
      <point x="478" y="1765"/>
      <point x="539" y="1765" type="curve" smooth="yes"/>
      <point x="601" y="1765"/>
      <point x="650" y="1716"/>
      <point x="650" y="1654" type="curve" smooth="yes"/>
      <point x="650" y="1593"/>
      <point x="601" y="1544"/>
      <point x="539" y="1544" type="curve" smooth="yes"/>
      <point x="478" y="1544"/>
      <point x="429" y="1593"/>
    </contour>
    <contour>
      <point x="769" y="1654" type="curve" smooth="yes"/>
      <point x="769" y="1716"/>
      <point x="818" y="1765"/>
      <point x="879" y="1765" type="curve" smooth="yes"/>
      <point x="941" y="1765"/>
      <point x="990" y="1716"/>
      <point x="990" y="1654" type="curve" smooth="yes"/>
      <point x="990" y="1593"/>
      <point x="941" y="1544"/>
      <point x="879" y="1544" type="curve" smooth="yes"/>
      <point x="818" y="1544"/>
      <point x="769" y="1593"/>
    </contour>
    <contour>
      <point x="140" y="397" type="curve" smooth="yes"/>
      <point x="140" y="1422" type="line"/>
      <point x="351" y="1422" type="line"/>
      <point x="351" y="399" type="line" smooth="yes"/>
      <point x="351" y="295"/>
      <point x="438" y="211"/>
      <point x="545" y="211" type="curve" smooth="yes"/>
      <point x="894" y="211" type="line" smooth="yes"/>
      <point x="1001" y="211"/>
      <point x="1088" y="295"/>
      <point x="1088" y="399" type="curve" smooth="yes"/>
      <point x="1088" y="1422" type="line"/>
      <point x="1298" y="1422" type="line"/>
      <point x="1298" y="397" type="line" smooth="yes"/>
      <point x="1298" y="178"/>
      <point x="1117" y="0"/>
      <point x="894" y="0" type="curve" smooth="yes"/>
      <point x="545" y="0" type="line" smooth="yes"/>
      <point x="321" y="0"/>
      <point x="140" y="178"/>
    </contour>
  </outline>
</glyph>
<glyph name="Thorn" format="2">
  <advance width="1195"/>
  <unicode hex="00DE"/>
  <outline>
    <contour>
      <point x="120" y="0" type="line"/>
      <point x="120" y="1422" type="line"/>
      <point x="331" y="1422" type="line"/>
      <point x="331" y="1187" type="line"/>
      <point x="385" y="1212"/>
      <point x="440" y="1225"/>
      <point x="495" y="1225" type="curve" smooth="yes"/>
      <point x="721" y="1225" type="line" smooth="yes"/>
      <point x="927" y="1225"/>
      <point x="1095" y="1057"/>
      <point x="1095" y="851" type="curve" smooth="yes"/>
      <point x="1095" y="563" type="line" smooth="yes"/>
      <point x="1095" y="357"/>
      <point x="927" y="189"/>
      <point x="721" y="189" type="curve" smooth="yes"/>
      <point x="495" y="189" type="line" smooth="yes"/>
      <point x="440" y="189"/>
      <point x="385" y="202"/>
      <point x="331" y="227" type="curve"/>
      <point x="331" y="0" type="line"/>
    </contour>
    <contour>
      <point x="332" y="565" type="line" smooth="yes"/>
      <point x="332" y="474"/>
      <point x="405" y="400"/>
      <point x="495" y="400" type="curve" smooth="yes"/>
      <point x="721" y="400" type="line" smooth="yes"/>
      <point x="811" y="400"/>
      <point x="884" y="474"/>
      <point x="884" y="565" type="curve" smooth="yes"/>
      <point x="884" y="849" type="line" smooth="yes"/>
      <point x="884" y="940"/>
      <point x="811" y="1014"/>
      <point x="721" y="1014" type="curve" smooth="yes"/>
      <point x="495" y="1014" type="line" smooth="yes"/>
      <point x="405" y="1014"/>
      <point x="332" y="940"/>
      <point x="332" y="849" type="curve" smooth="yes"/>
    </contour>
  </outline>
</glyph>
<glyph name="germandbls" format="2">
  <advance width="1203"/>
  <unicode hex="00DF"/>
  <outline>
    <contour>
      <point x="140" y="0" type="line"/>
      <point x="140" y="1087" type="line" smooth="yes"/>
      <point x="140" y="1272"/>
      <point x="299" y="1422"/>
      <point x="495" y="1422" type="curve" smooth="yes"/>
      <point x="700" y="1422" type="line" smooth="yes"/>
      <point x="895" y="1422"/>
      <point x="1054" y="1272"/>
      <point x="1054" y="1087" type="curve" smooth="yes"/>
      <point x="1054" y="994" type="line" smooth="yes"/>
      <point x="1054" y="888"/>
      <point x="1021" y="813"/>
      <point x="949" y="758" type="curve"/>
      <point x="1036" y="710"/>
      <point x="1083" y="617"/>
      <point x="1083" y="494" type="curve" smooth="yes"/>
      <point x="1083" y="335" type="line" smooth="yes"/>
      <point x="1083" y="150"/>
      <point x="924" y="0"/>
      <point x="728" y="0" type="curve" smooth="yes"/>
      <point x="458" y="0" type="line"/>
      <point x="458" y="210" type="line"/>
      <point x="717" y="210" type="line" smooth="yes"/>
      <point x="804" y="210"/>
      <point x="873" y="266"/>
      <point x="873" y="335" type="curve" smooth="yes"/>
      <point x="873" y="494" type="line" smooth="yes"/>
      <point x="873" y="580"/>
      <point x="806" y="639"/>
      <point x="708" y="639" type="curve" smooth="yes"/>
      <point x="458" y="639" type="line"/>
      <point x="458" y="849" type="line"/>
      <point x="700" y="849" type="line" smooth="yes"/>
      <point x="780" y="849"/>
      <point x="844" y="914"/>
      <point x="844" y="994" type="curve" smooth="yes"/>
      <point x="844" y="1087" type="line" smooth="yes"/>
      <point x="844" y="1156"/>
      <point x="780" y="1212"/>
      <point x="700" y="1212" type="curve" smooth="yes"/>
      <point x="495" y="1212" type="line" smooth="yes"/>
      <point x="415" y="1212"/>
      <point x="350" y="1156"/>
      <point x="350" y="1087" type="curve" smooth="yes"/>
      <point x="350" y="0" type="line"/>
    </contour>
  </outline>
</glyph>
<glyph name="aacute" format="2">
  <advance width="1182"/>
  <unicode hex="00E1"/>
  <outline>
    <contour>
      <point x="472" y="1211" type="line"/>
      <point x="601" y="1580" type="line"/>
      <point x="784" y="1492" type="line"/>
      <point x="586" y="1158" type="line"/>
    </contour>
    <contour>
      <point x="110" y="374" type="curve" smooth="yes"/>
      <point x="110" y="664" type="line" smooth="yes"/>
      <point x="110" y="869"/>
      <point x="278" y="1036"/>
      <point x="484" y="1036" type="curve" smooth="yes"/>
      <point x="1062" y="1036" type="line"/>
      <point x="1062" y="0" type="line"/>
      <point x="851" y="0" type="line"/>
      <point x="851" y="825" type="line"/>
      <point x="484" y="825" type="line" smooth="yes"/>
      <point x="394" y="825"/>
      <point x="321" y="752"/>
      <point x="321" y="662" type="curve" smooth="yes"/>
      <point x="321" y="376" type="line" smooth="yes"/>
      <point x="321" y="285"/>
      <point x="394" y="211"/>
      <point x="484" y="211" type="curve" smooth="yes"/>
      <point x="731" y="211" type="line"/>
      <point x="731" y="0" type="line"/>
      <point x="484" y="0" type="line" smooth="yes"/>
      <point x="278" y="0"/>
      <point x="110" y="168"/>
    </contour>
  </outline>
</glyph>
<glyph name="aring" format="2">
  <advance width="1182"/>
  <unicode hex="00E5"/>
  <outline>
    <contour>
      <point x="514" y="1370" type="curve" smooth="yes"/>
      <point x="514" y="1327" type="line" smooth="yes"/>
      <point x="514" y="1299"/>
      <point x="537" y="1276"/>
      <point x="566" y="1276" type="curve" smooth="yes"/>
      <point x="606" y="1276" type="line" smooth="yes"/>
      <point x="635" y="1276"/>
      <point x="658" y="1299"/>
      <point x="658" y="1327" type="curve" smooth="yes"/>
      <point x="658" y="1370" type="line" smooth="yes"/>
      <point x="658" y="1398"/>
      <point x="635" y="1421"/>
      <point x="606" y="1421" type="curve" smooth="yes"/>
      <point x="566" y="1421" type="line" smooth="yes"/>
      <point x="537" y="1421"/>
      <point x="514" y="1398"/>
    </contour>
    <contour>
      <point x="110" y="374" type="curve" smooth="yes"/>
      <point x="110" y="664" type="line" smooth="yes"/>
      <point x="110" y="869"/>
      <point x="278" y="1036"/>
      <point x="484" y="1036" type="curve" smooth="yes"/>
      <point x="1062" y="1036" type="line"/>
      <point x="1062" y="0" type="line"/>
      <point x="851" y="0" type="line"/>
      <point x="851" y="825" type="line"/>
      <point x="484" y="825" type="line" smooth="yes"/>
      <point x="394" y="825"/>
      <point x="321" y="752"/>
      <point x="321" y="662" type="curve" smooth="yes"/>
      <point x="321" y="376" type="line" smooth="yes"/>
      <point x="321" y="285"/>
      <point x="394" y="211"/>
      <point x="484" y="211" type="curve" smooth="yes"/>
      <point x="731" y="211" type="line"/>
      <point x="731" y="0" type="line"/>
      <point x="484" y="0" type="line" smooth="yes"/>
      <point x="278" y="0"/>
      <point x="110" y="168"/>
    </contour>
    <contour>
      <point x="396" y="1327" type="curve" smooth="yes"/>
      <point x="396" y="1370" type="line" smooth="yes"/>
      <point x="396" y="1464"/>
      <point x="472" y="1539"/>
      <point x="566" y="1539" type="curve" smooth="yes"/>
      <point x="606" y="1539" type="line" smooth="yes"/>
      <point x="700" y="1539"/>
      <point x="776" y="1464"/>
      <point x="776" y="1370" type="curve" smooth="yes"/>
      <point x="776" y="1327" type="line" smooth="yes"/>
      <point x="776" y="1233"/>
      <point x="700" y="1158"/>
      <point x="606" y="1158" type="curve" smooth="yes"/>
      <point x="566" y="1158" type="line" smooth="yes"/>
      <point x="472" y="1158"/>
      <point x="396" y="1233"/>
    </contour>
  </outline>
</glyph>
<glyph name="ccedilla" format="2">
  <advance width="1187"/>
  <unicode hex="00E7"/>
  <outline>
    <contour>
      <point x="110" y="376" type="curve" smooth="yes"/>
      <point x="110" y="662" type="line" smooth="yes"/>
      <point x="110" y="868"/>
      <point x="282" y="1036"/>
      <point x="494" y="1036" type="curve" smooth="yes"/>
      <point x="1077" y="1036" type="line"/>
      <point x="1077" y="825" type="line"/>
      <point x="494" y="825" type="line" smooth="yes"/>
      <point x="399" y="825"/>
      <point x="321" y="751"/>
      <point x="321" y="659" type="curve" smooth="yes"/>
      <point x="321" y="378" type="line" smooth="yes"/>
      <point x="321" y="286"/>
      <point x="398" y="211"/>
      <point x="494" y="211" type="curve" smooth="yes"/>
      <point x="1077" y="211" type="line"/>
      <point x="1077" y="0" type="line"/>
      <point x="671" y="0" type="line"/>
      <point x="697" y="-74"/>
      <point x="710" y="-130"/>
      <point x="710" y="-173" type="curve" smooth="yes"/>
      <point x="710" y="-262"/>
      <point x="662" y="-303"/>
      <point x="558" y="-303" type="curve" smooth="yes"/>
      <point x="525" y="-303"/>
      <point x="496" y="-300"/>
      <point x="408" y="-287" type="curve"/>
      <point x="408" y="-139" type="line"/>
      <point x="490" y="-152"/>
      <point x="501" y="-153"/>
      <point x="518" y="-153" type="curve" smooth="yes"/>
      <point x="547" y="-153"/>
      <point x="558" y="-145"/>
      <point x="558" y="-122" type="curve" smooth="yes"/>
      <point x="558" y="-103"/>
      <point x="552" y="-82"/>
      <point x="523" y="0" type="curve"/>
      <point x="494" y="0" type="line" smooth="yes"/>
      <point x="282" y="0"/>
      <point x="110" y="169"/>
    </contour>
  </outline>
</glyph>
<glyph name="ecircumflex" format="2">
  <advance width="1182"/>
  <unicode hex="00EA"/>
  <outline>
    <contour>
      <point x="285" y="1158" type="line"/>
      <point x="519" y="1467" type="line"/>
      <point x="674" y="1467" type="line"/>
      <point x="908" y="1158" type="line"/>
      <point x="767" y="1158" type="line"/>
      <point x="596" y="1330" type="line"/>
      <point x="426" y="1158" type="line"/>
    </contour>
    <contour>
      <point x="120" y="292" type="curve" smooth="yes"/>
      <point x="120" y="822" type="line" smooth="yes"/>
      <point x="120" y="940"/>
      <point x="219" y="1036"/>
      <point x="341" y="1036" type="curve" smooth="yes"/>
      <point x="773" y="1036" type="line" smooth="yes"/>
      <point x="938" y="1036"/>
      <point x="1072" y="901"/>
      <point x="1072" y="735" type="curve" smooth="yes"/>
      <point x="1072" y="706" type="line" smooth="yes"/>
      <point x="1072" y="542"/>
      <point x="938" y="408"/>
      <point x="773" y="408" type="curve" smooth="yes"/>
      <point x="451" y="408" type="line"/>
      <point x="451" y="618" type="line"/>
      <point x="775" y="618" type="line" smooth="yes"/>
      <point x="823" y="618"/>
      <point x="862" y="658"/>
      <point x="862" y="707" type="curve" smooth="yes"/>
      <point x="862" y="735" type="line" smooth="yes"/>
      <point x="862" y="785"/>
      <point x="823" y="825"/>
      <point x="775" y="825" type="curve" smooth="yes"/>
      <point x="331" y="825" type="line"/>
      <point x="331" y="293" type="line" smooth="yes"/>
      <point x="331" y="248"/>
      <point x="366" y="211"/>
      <point x="410" y="211" type="curve" smooth="yes"/>
      <point x="999" y="211" type="line"/>
      <point x="999" y="0" type="line"/>
      <point x="410" y="0" type="line" smooth="yes"/>
      <point x="250" y="0"/>
      <point x="120" y="131"/>
    </contour>
  </outline>
</glyph>
<glyph name="igrave" format="2">
  <advance width="465"/>
  <unicode hex="00EC"/>
  <outline>
    <contour>
      <point x="35" y="1492" type="line"/>
      <point x="218" y="1580" type="line"/>
      <point x="347" y="1211" type="line"/>
      <point x="233" y="1158" type="line"/>
    </contour>
    <contour>
      <point x="127" y="0" type="line"/>
      <point x="127" y="1036" type="line"/>
      <point x="338" y="1036" type="line"/>
      <point x="338" y="0" type="line"/>
    </contour>
  </outline>
</glyph>
<glyph name="iacute" format="2">
  <advance width="465"/>
  <unicode hex="00ED"/>
  <outline>
    <contour>
      <point x="119" y="1211" type="line"/>
      <point x="248" y="1580" type="line"/>
      <point x="431" y="1492" type="line"/>
      <point x="233" y="1158" type="line"/>
    </contour>
    <contour>
      <point x="127" y="0" type="line"/>
      <point x="127" y="1036" type="line"/>
      <point x="338" y="1036" type="line"/>
      <point x="338" y="0" type="line"/>
    </contour>
  </outline>
</glyph>
<glyph name="icircumflex" format="2">
  <advance width="465"/>
  <unicode hex="00EE"/>
  <outline>
    <contour>
      <point x="-79" y="1158" type="line"/>
      <point x="155" y="1467" type="line"/>
      <point x="310" y="1467" type="line"/>
      <point x="544" y="1158" type="line"/>
      <point x="403" y="1158" type="line"/>
      <point x="232" y="1330" type="line"/>
      <point x="62" y="1158" type="line"/>
    </contour>
    <contour>
      <point x="127" y="0" type="line"/>
      <point x="127" y="1036" type="line"/>
      <point x="338" y="1036" type="line"/>
      <point x="338" y="0" type="line"/>
    </contour>
  </outline>
</glyph>
<glyph name="idieresis" format="2">
  <advance width="465"/>
  <unicode hex="00EF"/>
  <outline>
    <contour>
      <point x="-48" y="1268" type="curve" smooth="yes"/>
      <point x="-48" y="1330"/>
      <point x="1" y="1379"/>
      <point x="62" y="1379" type="curve" smooth="yes"/>
      <point x="124" y="1379"/>
      <point x="173" y="1330"/>
      <point x="173" y="1268" type="curve" smooth="yes"/>
      <point x="173" y="1207"/>
      <point x="124" y="1158"/>
      <point x="62" y="1158" type="curve" smooth="yes"/>
      <point x="1" y="1158"/>
      <point x="-48" y="1207"/>
    </contour>
    <contour>
      <point x="292" y="1268" type="curve" smooth="yes"/>
      <point x="292" y="1330"/>
      <point x="341" y="1379"/>
      <point x="402" y="1379" type="curve" smooth="yes"/>
      <point x="464" y="1379"/>
      <point x="513" y="1330"/>
      <point x="513" y="1268" type="curve" smooth="yes"/>
      <point x="513" y="1207"/>
      <point x="464" y="1158"/>
      <point x="402" y="1158" type="curve" smooth="yes"/>
      <point x="341" y="1158"/>
      <point x="292" y="1207"/>
    </contour>
    <contour>
      <point x="127" y="0" type="line"/>
      <point x="127" y="1036" type="line"/>
      <point x="338" y="1036" type="line"/>
      <point x="338" y="0" type="line"/>
    </contour>
  </outline>
</glyph>
<glyph name="ntilde" format="2">
  <advance width="1192"/>
  <unicode hex="00F1"/>
  <outline>
    <contour>
      <point x="267" y="1166" type="line"/>
      <point x="268" y="1294"/>
      <point x="349" y="1387"/>
      <point x="461" y="1387" type="curve" smooth="yes"/>
      <point x="492" y="1387"/>
      <point x="524" y="1378"/>
      <point x="592" y="1350" type="curve" smooth="yes"/>
      <point x="665" y="1320"/>
      <point x="692" y="1312"/>
      <point x="723" y="1312" type="curve" smooth="yes"/>
      <point x="754" y="1312"/>
      <point x="768" y="1334"/>
      <point x="768" y="1382" type="curve"/>
      <point x="925" y="1382" type="line"/>
      <point x="925" y="1258"/>
      <point x="840" y="1158"/>
      <point x="733" y="1158" type="curve" smooth="yes"/>
      <point x="702" y="1158"/>
      <point x="670" y="1168"/>
      <point x="600" y="1198" type="curve" smooth="yes"/>
      <point x="525" y="1230"/>
      <point x="498" y="1239"/>
      <point x="467" y="1239" type="curve" smooth="yes"/>
      <point x="436" y="1239"/>
      <point x="422" y="1216"/>
      <point x="422" y="1166" type="curve"/>
    </contour>
    <contour>
      <point x="120" y="0" type="line"/>
      <point x="120" y="826" type="line" smooth="yes"/>
      <point x="120" y="942"/>
      <point x="215" y="1036"/>
      <point x="333" y="1036" type="curve" smooth="yes"/>
      <point x="698" y="1036" type="line" smooth="yes"/>
      <point x="904" y="1036"/>
      <point x="1072" y="868"/>
      <point x="1072" y="662" type="curve" smooth="yes"/>
      <point x="1072" y="0" type="line"/>
      <point x="861" y="0" type="line"/>
      <point x="861" y="659" type="line" smooth="yes"/>
      <point x="861" y="752"/>
      <point x="788" y="827"/>
      <point x="698" y="827" type="curve" smooth="yes"/>
      <point x="331" y="827" type="line"/>
      <point x="331" y="0" type="line"/>
    </contour>
  </outline>
</glyph>
<glyph name="otilde" format="2">
  <advance width="1194"/>
  <unicode hex="00F5"/>
  <outline>
    <contour>
      <point x="321" y="660" type="curve" smooth="yes"/>
      <point x="321" y="376" type="line" smooth="yes"/>
      <point x="321" y="285"/>
      <point x="394" y="211"/>
      <point x="484" y="211" type="curve" smooth="yes"/>
      <point x="710" y="211" type="line" smooth="yes"/>
      <point x="800" y="211"/>
      <point x="873" y="285"/>
      <point x="873" y="376" type="curve" smooth="yes"/>
      <point x="873" y="660" type="line" smooth="yes"/>
      <point x="873" y="751"/>
      <point x="800" y="825"/>
      <point x="710" y="825" type="curve" smooth="yes"/>
      <point x="484" y="825" type="line" smooth="yes"/>
      <point x="394" y="825"/>
      <point x="321" y="751"/>
    </contour>
    <contour>
      <point x="110" y="374" type="curve" smooth="yes"/>
      <point x="110" y="662" type="line" smooth="yes"/>
      <point x="110" y="868"/>
      <point x="278" y="1036"/>
      <point x="484" y="1036" type="curve" smooth="yes"/>
      <point x="710" y="1036" type="line" smooth="yes"/>
      <point x="916" y="1036"/>
      <point x="1084" y="868"/>
      <point x="1084" y="662" type="curve" smooth="yes"/>
      <point x="1084" y="374" type="line" smooth="yes"/>
      <point x="1084" y="168"/>
      <point x="916" y="0"/>
      <point x="710" y="0" type="curve" smooth="yes"/>
      <point x="484" y="0" type="line" smooth="yes"/>
      <point x="278" y="0"/>
      <point x="110" y="168"/>
    </contour>
    <contour>
      <point x="423" y="1166" type="curve"/>
      <point x="268" y="1166" type="line"/>
      <point x="269" y="1294"/>
      <point x="350" y="1387"/>
      <point x="462" y="1387" type="curve" smooth="yes"/>
      <point x="493" y="1387"/>
      <point x="525" y="1378"/>
      <point x="593" y="1350" type="curve" smooth="yes"/>
      <point x="666" y="1320"/>
      <point x="693" y="1312"/>
      <point x="724" y="1312" type="curve" smooth="yes"/>
      <point x="755" y="1312"/>
      <point x="769" y="1334"/>
      <point x="769" y="1382" type="curve"/>
      <point x="926" y="1382" type="line"/>
      <point x="926" y="1258"/>
      <point x="841" y="1158"/>
      <point x="734" y="1158" type="curve" smooth="yes"/>
      <point x="703" y="1158"/>
      <point x="671" y="1168"/>
      <point x="601" y="1198" type="curve" smooth="yes"/>
      <point x="526" y="1230"/>
      <point x="499" y="1239"/>
      <point x="468" y="1239" type="curve" smooth="yes"/>
      <point x="437" y="1239"/>
      <point x="423" y="1216"/>
    </contour>
  </outline>
</glyph>
<glyph name="odieresis" format="2">
  <advance width="1194"/>
  <unicode hex="00F6"/>
  <outline>
    <contour>
      <point x="321" y="660" type="curve" smooth="yes"/>
      <point x="321" y="376" type="line" smooth="yes"/>
      <point x="321" y="285"/>
      <point x="394" y="211"/>
      <point x="484" y="211" type="curve" smooth="yes"/>
      <point x="710" y="211" type="line" smooth="yes"/>
      <point x="800" y="211"/>
      <point x="873" y="285"/>
      <point x="873" y="376" type="curve" smooth="yes"/>
      <point x="873" y="660" type="line" smooth="yes"/>
      <point x="873" y="751"/>
      <point x="800" y="825"/>
      <point x="710" y="825" type="curve" smooth="yes"/>
      <point x="484" y="825" type="line" smooth="yes"/>
      <point x="394" y="825"/>
      <point x="321" y="751"/>
    </contour>
    <contour>
      <point x="110" y="374" type="curve" smooth="yes"/>
      <point x="110" y="662" type="line" smooth="yes"/>
      <point x="110" y="868"/>
      <point x="278" y="1036"/>
      <point x="484" y="1036" type="curve" smooth="yes"/>
      <point x="710" y="1036" type="line" smooth="yes"/>
      <point x="916" y="1036"/>
      <point x="1084" y="868"/>
      <point x="1084" y="662" type="curve" smooth="yes"/>
      <point x="1084" y="374" type="line" smooth="yes"/>
      <point x="1084" y="168"/>
      <point x="916" y="0"/>
      <point x="710" y="0" type="curve" smooth="yes"/>
      <point x="484" y="0" type="line" smooth="yes"/>
      <point x="278" y="0"/>
      <point x="110" y="168"/>
    </contour>
    <contour>
      <point x="317" y="1268" type="curve" smooth="yes"/>
      <point x="317" y="1330"/>
      <point x="366" y="1379"/>
      <point x="427" y="1379" type="curve" smooth="yes"/>
      <point x="489" y="1379"/>
      <point x="538" y="1330"/>
      <point x="538" y="1268" type="curve" smooth="yes"/>
      <point x="538" y="1207"/>
      <point x="489" y="1158"/>
      <point x="427" y="1158" type="curve" smooth="yes"/>
      <point x="366" y="1158"/>
      <point x="317" y="1207"/>
    </contour>
    <contour>
      <point x="657" y="1268" type="curve" smooth="yes"/>
      <point x="657" y="1330"/>
      <point x="706" y="1379"/>
      <point x="767" y="1379" type="curve" smooth="yes"/>
      <point x="829" y="1379"/>
      <point x="878" y="1330"/>
      <point x="878" y="1268" type="curve" smooth="yes"/>
      <point x="878" y="1207"/>
      <point x="829" y="1158"/>
      <point x="767" y="1158" type="curve" smooth="yes"/>
      <point x="706" y="1158"/>
      <point x="657" y="1207"/>
    </contour>
  </outline>
</glyph>
<glyph name="yacute" format="2">
  <advance width="1121"/>
  <unicode hex="00FD"/>
  <outline>
    <contour>
      <point x="447" y="1211" type="line"/>
      <point x="576" y="1580" type="line"/>
      <point x="759" y="1492" type="line"/>
      <point x="561" y="1158" type="line"/>
    </contour>
    <contour>
      <point x="60" y="1036" type="line"/>
      <point x="284" y="1036" type="line"/>
      <point x="553" y="318" type="line"/>
      <point x="828" y="1036" type="line"/>
      <point x="1061" y="1036" type="line"/>
      <point x="511" y="-390" type="line"/>
      <point x="280" y="-390" type="line"/>
      <point x="441" y="34" type="line"/>
    </contour>
  </outline>
</glyph>
<glyph name="ydieresis" format="2">
  <advance width="1121"/>
  <unicode hex="00FF"/>
  <outline>
    <contour>
      <point x="280" y="1268" type="curve" smooth="yes"/>
      <point x="280" y="1330"/>
      <point x="329" y="1379"/>
      <point x="390" y="1379" type="curve" smooth="yes"/>
      <point x="452" y="1379"/>
      <point x="501" y="1330"/>
      <point x="501" y="1268" type="curve" smooth="yes"/>
      <point x="501" y="1207"/>
      <point x="452" y="1158"/>
      <point x="390" y="1158" type="curve" smooth="yes"/>
      <point x="329" y="1158"/>
      <point x="280" y="1207"/>
    </contour>
    <contour>
      <point x="620" y="1268" type="curve" smooth="yes"/>
      <point x="620" y="1330"/>
      <point x="669" y="1379"/>
      <point x="730" y="1379" type="curve" smooth="yes"/>
      <point x="792" y="1379"/>
      <point x="841" y="1330"/>
      <point x="841" y="1268" type="curve" smooth="yes"/>
      <point x="841" y="1207"/>
      <point x="792" y="1158"/>
      <point x="730" y="1158" type="curve" smooth="yes"/>
      <point x="669" y="1158"/>
      <point x="620" y="1207"/>
    </contour>
    <contour>
      <point x="60" y="1036" type="line"/>
      <point x="284" y="1036" type="line"/>
      <point x="553" y="318" type="line"/>
      <point x="828" y="1036" type="line"/>
      <point x="1061" y="1036" type="line"/>
      <point x="511" y="-390" type="line"/>
      <point x="280" y="-390" type="line"/>
      <point x="441" y="34" type="line"/>
    </contour>
  </outline>
</glyph>
<glyph name="Abreve" format="2">
  <advance width="1361"/>
  <unicode hex="0102"/>
  <outline>
    <contour>
      <point x="383" y="1842" type="curve"/>
      <point x="517" y="1842" type="line"/>
      <point x="517" y="1752"/>
      <point x="591" y="1678"/>
      <point x="681" y="1678" type="curve" smooth="yes"/>
      <point x="771" y="1678"/>
      <point x="845" y="1752"/>
      <point x="845" y="1842" type="curve"/>
      <point x="979" y="1842" type="line"/>
      <point x="979" y="1678"/>
      <point x="845" y="1544"/>
      <point x="681" y="1544" type="curve" smooth="yes"/>
      <point x="517" y="1544"/>
      <point x="383" y="1678"/>
    </contour>
    <contour>
      <point x="40" y="0" type="line"/>
      <point x="549" y="1422" type="line"/>
      <point x="812" y="1422" type="line"/>
      <point x="1321" y="0" type="line"/>
      <point x="1096" y="0" type="line"/>
      <point x="941" y="428" type="line"/>
      <point x="544" y="428" type="line"/>
      <point x="620" y="638" type="line"/>
      <point x="865" y="638" type="line"/>
      <point x="681" y="1146" type="line"/>
      <point x="265" y="0" type="line"/>
    </contour>
  </outline>
</glyph>
<glyph name="Aogonek" format="2">
  <advance width="1361"/>
  <unicode hex="0104"/>
  <outline>
    <contour>
      <point x="40" y="0" type="line"/>
      <point x="549" y="1422" type="line"/>
      <point x="812" y="1422" type="line"/>
      <point x="1321" y="0" type="line"/>
      <point x="1283" y="0" type="line"/>
      <point x="1252" y="-89"/>
      <point x="1247" y="-104"/>
      <point x="1247" y="-122" type="curve" smooth="yes"/>
      <point x="1247" y="-144"/>
      <point x="1258" y="-153"/>
      <point x="1288" y="-153" type="curve" smooth="yes"/>
      <point x="1305" y="-153"/>
      <point x="1316" y="-152"/>
      <point x="1398" y="-139" type="curve"/>
      <point x="1398" y="-287" type="line"/>
      <point x="1310" y="-300"/>
      <point x="1281" y="-303"/>
      <point x="1248" y="-303" type="curve" smooth="yes"/>
      <point x="1144" y="-303"/>
      <point x="1096" y="-262"/>
      <point x="1096" y="-173" type="curve" smooth="yes"/>
      <point x="1096" y="-130"/>
      <point x="1109" y="-74"/>
      <point x="1135" y="0" type="curve"/>
      <point x="1096" y="0" type="line"/>
      <point x="941" y="428" type="line"/>
      <point x="544" y="428" type="line"/>
      <point x="620" y="638" type="line"/>
      <point x="865" y="638" type="line"/>
      <point x="681" y="1146" type="line"/>
      <point x="265" y="0" type="line"/>
    </contour>
  </outline>
</glyph>
<glyph name="aogonek" format="2">
  <advance width="1182"/>
  <unicode hex="0105"/>
  <outline>
    <contour>
      <point x="110" y="374" type="curve" smooth="yes"/>
      <point x="110" y="664" type="line" smooth="yes"/>
      <point x="110" y="869"/>
      <point x="278" y="1036"/>
      <point x="484" y="1036" type="curve" smooth="yes"/>
      <point x="1062" y="1036" type="line"/>
      <point x="1062" y="0" type="line"/>
      <point x="1030" y="0" type="line"/>
      <point x="1001" y="-82"/>
      <point x="995" y="-103"/>
      <point x="995" y="-122" type="curve" smooth="yes"/>
      <point x="995" y="-144"/>
      <point x="1006" y="-153"/>
      <point x="1036" y="-153" type="curve" smooth="yes"/>
      <point x="1053" y="-153"/>
      <point x="1064" y="-152"/>
      <point x="1146" y="-139" type="curve"/>
      <point x="1146" y="-287" type="line"/>
      <point x="1058" y="-300"/>
      <point x="1029" y="-303"/>
      <point x="996" y="-303" type="curve" smooth="yes"/>
      <point x="892" y="-303"/>
      <point x="844" y="-262"/>
      <point x="844" y="-173" type="curve" smooth="yes"/>
      <point x="844" y="-129"/>
      <point x="857" y="-71"/>
      <point x="882" y="0" type="curve"/>
      <point x="851" y="0" type="line"/>
      <point x="851" y="825" type="line"/>
      <point x="484" y="825" type="line" smooth="yes"/>
      <point x="394" y="825"/>
      <point x="321" y="752"/>
      <point x="321" y="662" type="curve" smooth="yes"/>
      <point x="321" y="376" type="line" smooth="yes"/>
      <point x="321" y="285"/>
      <point x="394" y="211"/>
      <point x="484" y="211" type="curve" smooth="yes"/>
      <point x="731" y="211" type="line"/>
      <point x="731" y="0" type="line"/>
      <point x="484" y="0" type="line" smooth="yes"/>
      <point x="278" y="0"/>
      <point x="110" y="168"/>
    </contour>
  </outline>
</glyph>
<glyph name="Ccircumflex" format="2">
  <advance width="1381"/>
  <unicode hex="0108"/>
  <outline>
    <contour>
      <point x="384" y="1544" type="line"/>
      <point x="618" y="1853" type="line"/>
      <point x="773" y="1853" type="line"/>
      <point x="1007" y="1544" type="line"/>
      <point x="866" y="1544" type="line"/>
      <point x="695" y="1716" type="line"/>
      <point x="525" y="1544" type="line"/>
    </contour>
    <contour>
      <point x="120" y="393" type="curve" smooth="yes"/>
      <point x="120" y="1022" type="line" smooth="yes"/>
      <point x="120" y="1243"/>
      <point x="302" y="1422"/>
      <point x="526" y="1422" type="curve" smooth="yes"/>
      <point x="1271" y="1422" type="line"/>
      <point x="1271" y="1212" type="line"/>
      <point x="526" y="1212" type="line" smooth="yes"/>
      <point x="418" y="1212"/>
      <point x="331" y="1127"/>
      <point x="331" y="1022" type="curve" smooth="yes"/>
      <point x="331" y="396" type="line" smooth="yes"/>
      <point x="331" y="294"/>
      <point x="418" y="211"/>
      <point x="526" y="211" type="curve" smooth="yes"/>
      <point x="1271" y="211" type="line"/>
      <point x="1271" y="0" type="line"/>
      <point x="526" y="0" type="line" smooth="yes"/>
      <point x="302" y="0"/>
      <point x="120" y="176"/>
    </contour>
  </outline>
</glyph>
<glyph name="ccircumflex" format="2">
  <advance width="1187"/>
  <unicode hex="0109"/>
  <outline>
    <contour>
      <point x="282" y="1158" type="line"/>
      <point x="516" y="1467" type="line"/>
      <point x="671" y="1467" type="line"/>
      <point x="905" y="1158" type="line"/>
      <point x="764" y="1158" type="line"/>
      <point x="593" y="1330" type="line"/>
      <point x="423" y="1158" type="line"/>
    </contour>
    <contour>
      <point x="110" y="376" type="curve" smooth="yes"/>
      <point x="110" y="662" type="line" smooth="yes"/>
      <point x="110" y="868"/>
      <point x="282" y="1036"/>
      <point x="494" y="1036" type="curve" smooth="yes"/>
      <point x="1077" y="1036" type="line"/>
      <point x="1077" y="825" type="line"/>
      <point x="494" y="825" type="line" smooth="yes"/>
      <point x="399" y="825"/>
      <point x="321" y="751"/>
      <point x="321" y="659" type="curve" smooth="yes"/>
      <point x="321" y="378" type="line" smooth="yes"/>
      <point x="321" y="286"/>
      <point x="398" y="211"/>
      <point x="494" y="211" type="curve" smooth="yes"/>
      <point x="1077" y="211" type="line"/>
      <point x="1077" y="0" type="line"/>
      <point x="494" y="0" type="line" smooth="yes"/>
      <point x="282" y="0"/>
      <point x="110" y="169"/>
    </contour>
  </outline>
</glyph>
<glyph name="Cdotaccent" format="2">
  <advance width="1381"/>
  <unicode hex="010A"/>
  <outline>
    <contour>
      <point x="585" y="1654" type="curve" smooth="yes"/>
      <point x="585" y="1716"/>
      <point x="634" y="1765"/>
      <point x="696" y="1765" type="curve" smooth="yes"/>
      <point x="757" y="1765"/>
      <point x="806" y="1716"/>
      <point x="806" y="1654" type="curve" smooth="yes"/>
      <point x="806" y="1593"/>
      <point x="757" y="1544"/>
      <point x="696" y="1544" type="curve" smooth="yes"/>
      <point x="635" y="1544"/>
      <point x="585" y="1593"/>
    </contour>
    <contour>
      <point x="120" y="393" type="curve" smooth="yes"/>
      <point x="120" y="1022" type="line" smooth="yes"/>
      <point x="120" y="1243"/>
      <point x="302" y="1422"/>
      <point x="526" y="1422" type="curve" smooth="yes"/>
      <point x="1271" y="1422" type="line"/>
      <point x="1271" y="1212" type="line"/>
      <point x="526" y="1212" type="line" smooth="yes"/>
      <point x="418" y="1212"/>
      <point x="331" y="1127"/>
      <point x="331" y="1022" type="curve" smooth="yes"/>
      <point x="331" y="396" type="line" smooth="yes"/>
      <point x="331" y="294"/>
      <point x="418" y="211"/>
      <point x="526" y="211" type="curve" smooth="yes"/>
      <point x="1271" y="211" type="line"/>
      <point x="1271" y="0" type="line"/>
      <point x="526" y="0" type="line" smooth="yes"/>
      <point x="302" y="0"/>
      <point x="120" y="176"/>
    </contour>
  </outline>
</glyph>
<glyph name="Emacron" format="2">
  <advance width="1363"/>
  <unicode hex="0112"/>
  <outline>
    <contour>
      <point x="393" y="1544" type="line"/>
      <point x="393" y="1691" type="line"/>
      <point x="990" y="1691" type="line"/>
      <point x="990" y="1544" type="line"/>
    </contour>
    <contour>
      <point x="140" y="0" type="line"/>
      <point x="140" y="1422" type="line"/>
      <point x="1243" y="1422" type="line"/>
      <point x="1243" y="1212" type="line"/>
      <point x="351" y="1212" type="line"/>
      <point x="351" y="211" type="line"/>
      <point x="1243" y="211" type="line"/>
      <point x="1243" y="0" type="line"/>
    </contour>
    <contour>
      <point x="471" y="635" type="line"/>
      <point x="471" y="845" type="line"/>
      <point x="1243" y="845" type="line"/>
      <point x="1243" y="635" type="line"/>
    </contour>
  </outline>
</glyph>
<glyph name="Ebreve" format="2">
  <advance width="1363"/>
  <unicode hex="0114"/>
  <outline>
    <contour>
      <point x="394" y="1842" type="curve"/>
      <point x="528" y="1842" type="line"/>
      <point x="528" y="1752"/>
      <point x="602" y="1678"/>
      <point x="692" y="1678" type="curve" smooth="yes"/>
      <point x="782" y="1678"/>
      <point x="856" y="1752"/>
      <point x="856" y="1842" type="curve"/>
      <point x="990" y="1842" type="line"/>
      <point x="990" y="1678"/>
      <point x="856" y="1544"/>
      <point x="692" y="1544" type="curve" smooth="yes"/>
      <point x="528" y="1544"/>
      <point x="394" y="1678"/>
    </contour>
    <contour>
      <point x="140" y="0" type="line"/>
      <point x="140" y="1422" type="line"/>
      <point x="1243" y="1422" type="line"/>
      <point x="1243" y="1212" type="line"/>
      <point x="351" y="1212" type="line"/>
      <point x="351" y="211" type="line"/>
      <point x="1243" y="211" type="line"/>
      <point x="1243" y="0" type="line"/>
    </contour>
    <contour>
      <point x="471" y="635" type="line"/>
      <point x="471" y="845" type="line"/>
      <point x="1243" y="845" type="line"/>
      <point x="1243" y="635" type="line"/>
    </contour>
  </outline>
</glyph>
<glyph name="Edotaccent" format="2">
  <advance width="1363"/>
  <unicode hex="0116"/>
  <outline>
    <contour>
      <point x="581" y="1654" type="curve" smooth="yes"/>
      <point x="581" y="1716"/>
      <point x="630" y="1765"/>
      <point x="692" y="1765" type="curve" smooth="yes"/>
      <point x="753" y="1765"/>
      <point x="802" y="1716"/>
      <point x="802" y="1654" type="curve" smooth="yes"/>
      <point x="802" y="1593"/>
      <point x="753" y="1544"/>
      <point x="692" y="1544" type="curve" smooth="yes"/>
      <point x="631" y="1544"/>
      <point x="581" y="1593"/>
    </contour>
    <contour>
      <point x="140" y="0" type="line"/>
      <point x="140" y="1422" type="line"/>
      <point x="1243" y="1422" type="line"/>
      <point x="1243" y="1212" type="line"/>
      <point x="351" y="1212" type="line"/>
      <point x="351" y="211" type="line"/>
      <point x="1243" y="211" type="line"/>
      <point x="1243" y="0" type="line"/>
    </contour>
    <contour>
      <point x="471" y="635" type="line"/>
      <point x="471" y="845" type="line"/>
      <point x="1243" y="845" type="line"/>
      <point x="1243" y="635" type="line"/>
    </contour>
  </outline>
</glyph>
<glyph name="Eogonek" format="2">
  <advance width="1363"/>
  <unicode hex="0118"/>
  <outline>
    <contour>
      <point x="140" y="0" type="line"/>
      <point x="140" y="1422" type="line"/>
      <point x="1243" y="1422" type="line"/>
      <point x="1243" y="1212" type="line"/>
      <point x="351" y="1212" type="line"/>
      <point x="351" y="211" type="line"/>
      <point x="1243" y="211" type="line"/>
      <point x="1243" y="0" type="line"/>
      <point x="836" y="0" type="line"/>
      <point x="805" y="-89"/>
      <point x="800" y="-104"/>
      <point x="800" y="-122" type="curve" smooth="yes"/>
      <point x="800" y="-144"/>
      <point x="812" y="-153"/>
      <point x="842" y="-153" type="curve" smooth="yes"/>
      <point x="859" y="-153"/>
      <point x="870" y="-152"/>
      <point x="952" y="-139" type="curve"/>
      <point x="952" y="-287" type="line"/>
      <point x="864" y="-300"/>
      <point x="835" y="-303"/>
      <point x="802" y="-303" type="curve" smooth="yes"/>
      <point x="698" y="-303"/>
      <point x="650" y="-262"/>
      <point x="650" y="-173" type="curve" smooth="yes"/>
      <point x="650" y="-129"/>
      <point x="663" y="-71"/>
      <point x="688" y="0" type="curve"/>
    </contour>
    <contour>
      <point x="471" y="635" type="line"/>
      <point x="471" y="845" type="line"/>
      <point x="1243" y="845" type="line"/>
      <point x="1243" y="635" type="line"/>
    </contour>
  </outline>
</glyph>
<glyph name="Ecaron" format="2">
  <advance width="1363"/>
  <unicode hex="011A"/>
  <outline>
    <contour>
      <point x="380" y="1853" type="line"/>
      <point x="521" y="1853" type="line"/>
      <point x="691" y="1681" type="line"/>
      <point x="862" y="1853" type="line"/>
      <point x="1003" y="1853" type="line"/>
      <point x="769" y="1544" type="line"/>
      <point x="614" y="1544" type="line"/>
    </contour>
    <contour>
      <point x="140" y="0" type="line"/>
      <point x="140" y="1422" type="line"/>
      <point x="1243" y="1422" type="line"/>
      <point x="1243" y="1212" type="line"/>
      <point x="351" y="1212" type="line"/>
      <point x="351" y="211" type="line"/>
      <point x="1243" y="211" type="line"/>
      <point x="1243" y="0" type="line"/>
    </contour>
    <contour>
      <point x="471" y="635" type="line"/>
      <point x="471" y="845" type="line"/>
      <point x="1243" y="845" type="line"/>
      <point x="1243" y="635" type="line"/>
    </contour>
  </outline>
</glyph>
<glyph name="Gbreve" format="2">
  <advance width="1421"/>
  <unicode hex="011E"/>
  <outline>
    <contour>
      <point x="412" y="1842" type="curve"/>
      <point x="546" y="1842" type="line"/>
      <point x="546" y="1752"/>
      <point x="620" y="1678"/>
      <point x="710" y="1678" type="curve" smooth="yes"/>
      <point x="800" y="1678"/>
      <point x="874" y="1752"/>
      <point x="874" y="1842" type="curve"/>
      <point x="1008" y="1842" type="line"/>
      <point x="1008" y="1678"/>
      <point x="874" y="1544"/>
      <point x="710" y="1544" type="curve" smooth="yes"/>
      <point x="546" y="1544"/>
      <point x="412" y="1678"/>
    </contour>
    <contour>
      <point x="120" y="400" type="curve" smooth="yes"/>
      <point x="120" y="1022" type="line" smooth="yes"/>
      <point x="120" y="1243"/>
      <point x="310" y="1422"/>
      <point x="544" y="1422" type="curve" smooth="yes"/>
      <point x="1217" y="1422" type="line"/>
      <point x="1217" y="1212" type="line"/>
      <point x="544" y="1212" type="line" smooth="yes"/>
      <point x="426" y="1212"/>
      <point x="331" y="1127"/>
      <point x="331" y="1023" type="curve" smooth="yes"/>
      <point x="331" y="399" type="line" smooth="yes"/>
      <point x="331" y="295"/>
      <point x="426" y="210"/>
      <point x="544" y="210" type="curve" smooth="yes"/>
      <point x="877" y="210" type="line" smooth="yes"/>
      <point x="995" y="210"/>
      <point x="1090" y="295"/>
      <point x="1090" y="399" type="curve" smooth="yes"/>
      <point x="1090" y="585" type="line"/>
      <point x="704" y="585" type="line"/>
      <point x="704" y="795" type="line"/>
      <point x="1301" y="795" type="line"/>
      <point x="1301" y="400" type="line" smooth="yes"/>
      <point x="1301" y="179"/>
      <point x="1111" y="0"/>
      <point x="877" y="0" type="curve" smooth="yes"/>
      <point x="544" y="0" type="line" smooth="yes"/>
      <point x="310" y="0"/>
      <point x="120" y="179"/>
    </contour>
  </outline>
</glyph>
<glyph name="hcircumflex" format="2">
  <advance width="1167"/>
  <unicode hex="0125"/>
  <outline>
    <contour>
      <point x="272" y="1544" type="line"/>
      <point x="506" y="1853" type="line"/>
      <point x="661" y="1853" type="line"/>
      <point x="895" y="1544" type="line"/>
      <point x="754" y="1544" type="line"/>
      <point x="583" y="1716" type="line"/>
      <point x="413" y="1544" type="line"/>
    </contour>
    <contour>
      <point x="120" y="0" type="line"/>
      <point x="120" y="1422" type="line"/>
      <point x="331" y="1422" type="line"/>
      <point x="331" y="1036" type="line"/>
      <point x="657" y="1036" type="line" smooth="yes"/>
      <point x="872" y="1036"/>
      <point x="1047" y="869"/>
      <point x="1047" y="663" type="curve" smooth="yes"/>
      <point x="1047" y="0" type="line"/>
      <point x="836" y="0" type="line"/>
      <point x="836" y="660" type="line" smooth="yes"/>
      <point x="836" y="748"/>
      <point x="753" y="825"/>
      <point x="657" y="825" type="curve" smooth="yes"/>
      <point x="331" y="825" type="line"/>
      <point x="331" y="0" type="line"/>
    </contour>
  </outline>
</glyph>
<glyph name="hbar" format="2">
  <advance width="1287"/>
  <unicode hex="0127"/>
  <outline>
    <contour>
      <point x="60" y="1156" type="line"/>
      <point x="60" y="1303" type="line"/>
      <point x="220" y="1303" type="line"/>
      <point x="220" y="1422" type="line"/>
      <point x="431" y="1422" type="line"/>
      <point x="431" y="1303" type="line"/>
      <point x="591" y="1303" type="line"/>
      <point x="591" y="1156" type="line"/>
      <point x="431" y="1156" type="line"/>
      <point x="431" y="1036" type="line"/>
      <point x="757" y="1036" type="line" smooth="yes"/>
      <point x="972" y="1036"/>
      <point x="1147" y="869"/>
      <point x="1147" y="663" type="curve" smooth="yes"/>
      <point x="1147" y="0" type="line"/>
      <point x="936" y="0" type="line"/>
      <point x="936" y="660" type="line" smooth="yes"/>
      <point x="936" y="748"/>
      <point x="853" y="825"/>
      <point x="757" y="825" type="curve" smooth="yes"/>
      <point x="431" y="825" type="line"/>
      <point x="431" y="0" type="line"/>
      <point x="220" y="0" type="line"/>
      <point x="220" y="1156" type="line"/>
    </contour>
  </outline>
</glyph>
<glyph name="Itilde" format="2">
  <advance width="491"/>
  <unicode hex="0128"/>
  <outline>
    <contour>
      <point x="-84" y="1552" type="line"/>
      <point x="-83" y="1680"/>
      <point x="-2" y="1773"/>
      <point x="110" y="1773" type="curve" smooth="yes"/>
      <point x="141" y="1773"/>
      <point x="173" y="1764"/>
      <point x="241" y="1736" type="curve" smooth="yes"/>
      <point x="314" y="1706"/>
      <point x="341" y="1698"/>
      <point x="372" y="1698" type="curve" smooth="yes"/>
      <point x="403" y="1698"/>
      <point x="417" y="1720"/>
      <point x="417" y="1768" type="curve"/>
      <point x="574" y="1768" type="line"/>
      <point x="574" y="1644"/>
      <point x="489" y="1544"/>
      <point x="382" y="1544" type="curve" smooth="yes"/>
      <point x="351" y="1544"/>
      <point x="319" y="1554"/>
      <point x="249" y="1584" type="curve" smooth="yes"/>
      <point x="174" y="1616"/>
      <point x="147" y="1625"/>
      <point x="116" y="1625" type="curve" smooth="yes"/>
      <point x="85" y="1625"/>
      <point x="71" y="1602"/>
      <point x="71" y="1552" type="curve"/>
    </contour>
    <contour>
      <point x="140" y="0" type="line"/>
      <point x="140" y="1422" type="line"/>
      <point x="351" y="1422" type="line"/>
      <point x="351" y="0" type="line"/>
    </contour>
  </outline>
</glyph>
<glyph name="itilde" format="2">
  <advance width="465"/>
  <unicode hex="0129"/>
  <outline>
    <contour>
      <point x="-96" y="1166" type="line"/>
      <point x="-95" y="1294"/>
      <point x="-14" y="1387"/>
      <point x="98" y="1387" type="curve" smooth="yes"/>
      <point x="129" y="1387"/>
      <point x="161" y="1378"/>
      <point x="229" y="1350" type="curve" smooth="yes"/>
      <point x="302" y="1320"/>
      <point x="329" y="1312"/>
      <point x="360" y="1312" type="curve" smooth="yes"/>
      <point x="391" y="1312"/>
      <point x="405" y="1334"/>
      <point x="405" y="1382" type="curve"/>
      <point x="562" y="1382" type="line"/>
      <point x="562" y="1258"/>
      <point x="477" y="1158"/>
      <point x="370" y="1158" type="curve" smooth="yes"/>
      <point x="339" y="1158"/>
      <point x="307" y="1168"/>
      <point x="237" y="1198" type="curve" smooth="yes"/>
      <point x="162" y="1230"/>
      <point x="135" y="1239"/>
      <point x="104" y="1239" type="curve" smooth="yes"/>
      <point x="73" y="1239"/>
      <point x="59" y="1216"/>
      <point x="59" y="1166" type="curve"/>
    </contour>
    <contour>
      <point x="127" y="0" type="line"/>
      <point x="127" y="1036" type="line"/>
      <point x="338" y="1036" type="line"/>
      <point x="338" y="0" type="line"/>
    </contour>
  </outline>
</glyph>
<glyph name="Ibreve" format="2">
  <advance width="491"/>
  <unicode hex="012C"/>
  <outline>
    <contour>
      <point x="-52" y="1842" type="curve"/>
      <point x="82" y="1842" type="line"/>
      <point x="82" y="1752"/>
      <point x="156" y="1678"/>
      <point x="246" y="1678" type="curve" smooth="yes"/>
      <point x="336" y="1678"/>
      <point x="410" y="1752"/>
      <point x="410" y="1842" type="curve"/>
      <point x="544" y="1842" type="line"/>
      <point x="544" y="1678"/>
      <point x="410" y="1544"/>
      <point x="246" y="1544" type="curve" smooth="yes"/>
      <point x="82" y="1544"/>
      <point x="-52" y="1678"/>
    </contour>
    <contour>
      <point x="140" y="0" type="line"/>
      <point x="140" y="1422" type="line"/>
      <point x="351" y="1422" type="line"/>
      <point x="351" y="0" type="line"/>
    </contour>
  </outline>
</glyph>
<glyph name="ibreve" format="2">
  <advance width="465"/>
  <unicode hex="012D"/>
  <outline>
    <contour>
      <point x="-66" y="1456" type="curve"/>
      <point x="68" y="1456" type="line"/>
      <point x="68" y="1366"/>
      <point x="142" y="1292"/>
      <point x="232" y="1292" type="curve" smooth="yes"/>
      <point x="322" y="1292"/>
      <point x="396" y="1366"/>
      <point x="396" y="1456" type="curve"/>
      <point x="530" y="1456" type="line"/>
      <point x="530" y="1292"/>
      <point x="396" y="1158"/>
      <point x="232" y="1158" type="curve" smooth="yes"/>
      <point x="68" y="1158"/>
      <point x="-66" y="1292"/>
    </contour>
    <contour>
      <point x="127" y="0" type="line"/>
      <point x="127" y="1036" type="line"/>
      <point x="338" y="1036" type="line"/>
      <point x="338" y="0" type="line"/>
    </contour>
  </outline>
</glyph>
<glyph name="Iogonek" format="2">
  <advance width="491"/>
  <unicode hex="012E"/>
  <outline>
    <contour>
      <point x="130" y="-173" type="curve" smooth="yes"/>
      <point x="130" y="-129"/>
      <point x="143" y="-71"/>
      <point x="168" y="0" type="curve"/>
      <point x="140" y="0" type="line"/>
      <point x="140" y="1422" type="line"/>
      <point x="351" y="1422" type="line"/>
      <point x="351" y="0" type="line"/>
      <point x="316" y="0" type="line"/>
      <point x="285" y="-89"/>
      <point x="280" y="-104"/>
      <point x="280" y="-122" type="curve" smooth="yes"/>
      <point x="280" y="-144"/>
      <point x="292" y="-153"/>
      <point x="322" y="-153" type="curve" smooth="yes"/>
      <point x="339" y="-153"/>
      <point x="350" y="-152"/>
      <point x="432" y="-139" type="curve"/>
      <point x="432" y="-287" type="line"/>
      <point x="344" y="-300"/>
      <point x="315" y="-303"/>
      <point x="282" y="-303" type="curve" smooth="yes"/>
      <point x="178" y="-303"/>
      <point x="130" y="-262"/>
    </contour>
  </outline>
</glyph>
<glyph name="iogonek" format="2">
  <advance width="452"/>
  <unicode hex="012F"/>
  <outline>
    <contour>
      <point x="96" y="1318" type="curve" smooth="yes"/>
      <point x="96" y="1390"/>
      <point x="154" y="1448"/>
      <point x="226" y="1448" type="curve" smooth="yes"/>
      <point x="298" y="1448"/>
      <point x="356" y="1390"/>
      <point x="356" y="1318" type="curve" smooth="yes"/>
      <point x="356" y="1246"/>
      <point x="298" y="1188"/>
      <point x="226" y="1188" type="curve" smooth="yes"/>
      <point x="154" y="1188"/>
      <point x="96" y="1246"/>
    </contour>
    <contour>
      <point x="110" y="-173" type="curve" smooth="yes"/>
      <point x="110" y="-126"/>
      <point x="123" y="-68"/>
      <point x="148" y="0" type="curve"/>
      <point x="120" y="0" type="line"/>
      <point x="120" y="1036" type="line"/>
      <point x="332" y="1036" type="line"/>
      <point x="332" y="0" type="line"/>
      <point x="296" y="0" type="line"/>
      <point x="268" y="-78"/>
      <point x="261" y="-102"/>
      <point x="261" y="-122" type="curve" smooth="yes"/>
      <point x="261" y="-144"/>
      <point x="272" y="-153"/>
      <point x="302" y="-153" type="curve" smooth="yes"/>
      <point x="319" y="-153"/>
      <point x="330" y="-152"/>
      <point x="412" y="-139" type="curve"/>
      <point x="412" y="-287" type="line"/>
      <point x="324" y="-300"/>
      <point x="295" y="-303"/>
      <point x="262" y="-303" type="curve" smooth="yes"/>
      <point x="158" y="-303"/>
      <point x="110" y="-262"/>
    </contour>
  </outline>
</glyph>
<glyph name="Idotaccent" format="2">
  <advance width="451"/>
  <unicode hex="0130"/>
  <outline>
    <contour>
      <point x="120" y="0" type="line"/>
      <point x="120" y="1422" type="line"/>
      <point x="331" y="1422" type="line"/>
      <point x="331" y="0" type="line"/>
    </contour>
    <contour>
      <point x="121" y="1638" type="curve" smooth="yes"/>
      <point x="121" y="1699"/>
      <point x="171" y="1749"/>
      <point x="232" y="1749" type="curve" smooth="yes"/>
      <point x="293" y="1749"/>
      <point x="342" y="1699"/>
      <point x="342" y="1638" type="curve" smooth="yes"/>
      <point x="342" y="1577"/>
      <point x="293" y="1528"/>
      <point x="232" y="1528" type="curve" smooth="yes"/>
      <point x="171" y="1528"/>
      <point x="121" y="1577"/>
    </contour>
  </outline>
</glyph>
<glyph name="dotlessi" format="2">
  <advance width="465"/>
  <unicode hex="0131"/>
  <outline>
    <contour>
      <point x="127" y="0" type="line"/>
      <point x="127" y="1036" type="line"/>
      <point x="338" y="1036" type="line"/>
      <point x="338" y="0" type="line"/>
    </contour>
  </outline>
</glyph>
<glyph name="IJ" format="2">
  <advance width="1326"/>
  <unicode hex="0132"/>
  <outline>
    <contour>
      <point x="140" y="0" type="line"/>
      <point x="140" y="1422" type="line"/>
      <point x="351" y="1422" type="line"/>
      <point x="351" y="0" type="line"/>
    </contour>
    <contour>
      <point x="531" y="0" type="line"/>
      <point x="531" y="210" type="line"/>
      <point x="785" y="210" type="line" smooth="yes"/>
      <point x="890" y="210"/>
      <point x="976" y="294"/>
      <point x="976" y="398" type="curve" smooth="yes"/>
      <point x="976" y="1422" type="line"/>
      <point x="1186" y="1422" type="line"/>
      <point x="1186" y="395" type="line" smooth="yes"/>
      <point x="1186" y="177"/>
      <point x="1006" y="0"/>
      <point x="785" y="0" type="curve" smooth="yes"/>
    </contour>
  </outline>
</glyph>
<glyph name="ij" format="2">
  <advance width="929"/>
  <unicode hex="0133"/>
  <outline>
    <contour>
      <point x="442" y="-180" type="line"/>
      <point x="589" y="-180"/>
      <point x="601" y="-171"/>
      <point x="601" y="-60" type="curve" smooth="yes"/>
      <point x="601" y="1036" type="line"/>
      <point x="812" y="1036" type="line"/>
      <point x="812" y="-60" type="line" smooth="yes"/>
      <point x="812" y="-313"/>
      <point x="725" y="-391"/>
      <point x="442" y="-391" type="curve"/>
    </contour>
    <contour>
      <point x="573" y="1317" type="curve" smooth="yes"/>
      <point x="573" y="1389"/>
      <point x="632" y="1448"/>
      <point x="704" y="1448" type="curve" smooth="yes"/>
      <point x="775" y="1448"/>
      <point x="833" y="1390"/>
      <point x="833" y="1317" type="curve" smooth="yes"/>
      <point x="833" y="1245"/>
      <point x="776" y="1188"/>
      <point x="704" y="1188" type="curve" smooth="yes"/>
      <point x="631" y="1188"/>
      <point x="573" y="1246"/>
    </contour>
    <contour>
      <point x="96" y="1318" type="curve" smooth="yes"/>
      <point x="96" y="1390"/>
      <point x="154" y="1448"/>
      <point x="226" y="1448" type="curve" smooth="yes"/>
      <point x="298" y="1448"/>
      <point x="356" y="1390"/>
      <point x="356" y="1318" type="curve" smooth="yes"/>
      <point x="356" y="1246"/>
      <point x="298" y="1188"/>
      <point x="226" y="1188" type="curve" smooth="yes"/>
      <point x="154" y="1188"/>
      <point x="96" y="1246"/>
    </contour>
    <contour>
      <point x="120" y="0" type="line"/>
      <point x="120" y="1036" type="line"/>
      <point x="332" y="1036" type="line"/>
      <point x="332" y="0" type="line"/>
    </contour>
  </outline>
</glyph>
<glyph name="Jcircumflex" format="2">
  <advance width="835"/>
  <unicode hex="0134"/>
  <outline>
    <contour>
      <point x="278" y="1544" type="line"/>
      <point x="512" y="1853" type="line"/>
      <point x="667" y="1853" type="line"/>
      <point x="901" y="1544" type="line"/>
      <point x="760" y="1544" type="line"/>
      <point x="589" y="1716" type="line"/>
      <point x="419" y="1544" type="line"/>
    </contour>
    <contour>
      <point x="40" y="0" type="line"/>
      <point x="40" y="210" type="line"/>
      <point x="294" y="210" type="line" smooth="yes"/>
      <point x="399" y="210"/>
      <point x="485" y="294"/>
      <point x="485" y="398" type="curve" smooth="yes"/>
      <point x="485" y="1422" type="line"/>
      <point x="695" y="1422" type="line"/>
      <point x="695" y="395" type="line" smooth="yes"/>
      <point x="695" y="177"/>
      <point x="515" y="0"/>
      <point x="294" y="0" type="curve" smooth="yes"/>
    </contour>
  </outline>
</glyph>
<glyph name="jcircumflex" format="2">
  <advance width="535"/>
  <unicode hex="0135"/>
  <outline>
    <contour>
      <point x="-8" y="1158" type="line"/>
      <point x="226" y="1467" type="line"/>
      <point x="381" y="1467" type="line"/>
      <point x="615" y="1158" type="line"/>
      <point x="474" y="1158" type="line"/>
      <point x="303" y="1330" type="line"/>
      <point x="133" y="1158" type="line"/>
    </contour>
    <contour>
      <point x="40" y="-180" type="line"/>
      <point x="187" y="-180"/>
      <point x="199" y="-171"/>
      <point x="199" y="-60" type="curve" smooth="yes"/>
      <point x="199" y="1036" type="line"/>
      <point x="410" y="1036" type="line"/>
      <point x="410" y="-60" type="line" smooth="yes"/>
      <point x="410" y="-313"/>
      <point x="323" y="-391"/>
      <point x="40" y="-391" type="curve"/>
    </contour>
  </outline>
</glyph>
<glyph name="uni0136" format="2">
  <advance width="1394"/>
  <unicode hex="0136"/>
  <outline>
    <contour>
      <point x="140" y="0" type="line"/>
      <point x="140" y="1422" type="line"/>
      <point x="351" y="1422" type="line"/>
      <point x="351" y="846" type="line"/>
      <point x="456" y="846" type="line"/>
      <point x="1020" y="1422" type="line"/>
      <point x="1311" y="1422" type="line"/>
      <point x="623" y="719" type="line"/>
      <point x="1354" y="0" type="line"/>
      <point x="1059" y="0" type="line"/>
      <point x="413" y="635" type="line"/>
      <point x="351" y="635" type="line"/>
      <point x="351" y="0" type="line"/>
    </contour>
    <contour>
      <point x="604" y="-536" type="line"/>
      <point x="679" y="-122" type="line"/>
      <point x="891" y="-122" type="line"/>
      <point x="762" y="-536" type="line"/>
    </contour>
  </outline>
</glyph>
<glyph name="uni0137" format="2">
  <advance width="1123"/>
  <unicode hex="0137"/>
  <outline>
    <contour>
      <point x="463" y="-536" type="line"/>
      <point x="538" y="-122" type="line"/>
      <point x="750" y="-122" type="line"/>
      <point x="621" y="-536" type="line"/>
    </contour>
    <contour>
      <point x="120" y="0" type="line"/>
      <point x="120" y="1422" type="line"/>
      <point x="331" y="1422" type="line"/>
      <point x="331" y="639" type="line"/>
      <point x="402" y="639" type="line"/>
      <point x="777" y="1036" type="line"/>
      <point x="1051" y="1036" type="line"/>
      <point x="578" y="534" type="line"/>
      <point x="1093" y="0" type="line"/>
      <point x="798" y="0" type="line"/>
      <point x="383" y="428" type="line"/>
      <point x="331" y="428" type="line"/>
      <point x="331" y="0" type="line"/>
    </contour>
  </outline>
</glyph>
<glyph name="Lacute" format="2">
  <advance width="1282"/>
  <unicode hex="0139"/>
  <outline>
    <contour>
      <point x="131" y="1597" type="line"/>
      <point x="260" y="1966" type="line"/>
      <point x="443" y="1878" type="line"/>
      <point x="245" y="1544" type="line"/>
    </contour>
    <contour>
      <point x="140" y="398" type="curve" smooth="yes"/>
      <point x="140" y="1422" type="line"/>
      <point x="350" y="1422" type="line"/>
      <point x="350" y="398" type="line" smooth="yes"/>
      <point x="350" y="294"/>
      <point x="434" y="210"/>
      <point x="537" y="210" type="curve" smooth="yes"/>
      <point x="1242" y="210" type="line"/>
      <point x="1242" y="0" type="line"/>
      <point x="537" y="0" type="line" smooth="yes"/>
      <point x="318" y="0"/>
      <point x="140" y="178"/>
    </contour>
  </outline>
</glyph>
<glyph name="lacute" format="2">
  <advance width="451"/>
  <unicode hex="013A"/>
  <outline>
    <contour>
      <point x="111" y="1597" type="line"/>
      <point x="240" y="1966" type="line"/>
      <point x="423" y="1878" type="line"/>
      <point x="225" y="1544" type="line"/>
    </contour>
    <contour>
      <point x="120" y="0" type="line"/>
      <point x="120" y="1422" type="line"/>
      <point x="331" y="1422" type="line"/>
      <point x="331" y="0" type="line"/>
    </contour>
  </outline>
</glyph>
<glyph name="uni013B" format="2">
  <advance width="1282"/>
  <unicode hex="013B"/>
  <outline>
    <contour>
      <point x="578" y="-536" type="line"/>
      <point x="653" y="-122" type="line"/>
      <point x="865" y="-122" type="line"/>
      <point x="736" y="-536" type="line"/>
    </contour>
    <contour>
      <point x="140" y="398" type="curve" smooth="yes"/>
      <point x="140" y="1422" type="line"/>
      <point x="350" y="1422" type="line"/>
      <point x="350" y="398" type="line" smooth="yes"/>
      <point x="350" y="294"/>
      <point x="434" y="210"/>
      <point x="537" y="210" type="curve" smooth="yes"/>
      <point x="1242" y="210" type="line"/>
      <point x="1242" y="0" type="line"/>
      <point x="537" y="0" type="line" smooth="yes"/>
      <point x="318" y="0"/>
      <point x="140" y="178"/>
    </contour>
  </outline>
</glyph>
<glyph name="uni013C" format="2">
  <advance width="451"/>
  <unicode hex="013C"/>
  <outline>
    <contour>
      <point x="82" y="-536" type="line"/>
      <point x="157" y="-122" type="line"/>
      <point x="369" y="-122" type="line"/>
      <point x="240" y="-536" type="line"/>
    </contour>
    <contour>
      <point x="120" y="0" type="line"/>
      <point x="120" y="1422" type="line"/>
      <point x="331" y="1422" type="line"/>
      <point x="331" y="0" type="line"/>
    </contour>
  </outline>
</glyph>
<glyph name="Lcaron" format="2">
  <advance width="1705"/>
  <unicode hex="013D"/>
  <outline>
    <contour>
      <point x="1353" y="1053" type="line"/>
      <point x="1482" y="1422" type="line"/>
      <point x="1665" y="1334" type="line"/>
      <point x="1467" y="1000" type="line"/>
    </contour>
    <contour>
      <point x="140" y="398" type="curve" smooth="yes"/>
      <point x="140" y="1422" type="line"/>
      <point x="350" y="1422" type="line"/>
      <point x="350" y="398" type="line" smooth="yes"/>
      <point x="350" y="294"/>
      <point x="434" y="210"/>
      <point x="537" y="210" type="curve" smooth="yes"/>
      <point x="1242" y="210" type="line"/>
      <point x="1242" y="0" type="line"/>
      <point x="537" y="0" type="line" smooth="yes"/>
      <point x="318" y="0"/>
      <point x="140" y="178"/>
    </contour>
  </outline>
</glyph>
<glyph name="lcaron" format="2">
  <advance width="846"/>
  <unicode hex="013E"/>
  <outline>
    <contour>
      <point x="442" y="1053" type="line"/>
      <point x="571" y="1422" type="line"/>
      <point x="754" y="1334" type="line"/>
      <point x="556" y="1000" type="line"/>
    </contour>
    <contour>
      <point x="120" y="0" type="line"/>
      <point x="120" y="1422" type="line"/>
      <point x="331" y="1422" type="line"/>
      <point x="331" y="0" type="line"/>
    </contour>
  </outline>
</glyph>
<glyph name="Ldot" format="2">
  <advance width="1282"/>
  <unicode hex="013F"/>
  <outline>
    <contour>
      <point x="580" y="712" type="curve" smooth="yes"/>
      <point x="580" y="773"/>
      <point x="629" y="822"/>
      <point x="690" y="822" type="curve" smooth="yes"/>
      <point x="752" y="822"/>
      <point x="801" y="773"/>
      <point x="801" y="712" type="curve" smooth="yes"/>
      <point x="801" y="650"/>
      <point x="752" y="601"/>
      <point x="690" y="601" type="curve" smooth="yes"/>
      <point x="629" y="601"/>
      <point x="580" y="651"/>
    </contour>
    <contour>
      <point x="140" y="398" type="curve" smooth="yes"/>
      <point x="140" y="1422" type="line"/>
      <point x="350" y="1422" type="line"/>
      <point x="350" y="398" type="line" smooth="yes"/>
      <point x="350" y="294"/>
      <point x="434" y="210"/>
      <point x="537" y="210" type="curve" smooth="yes"/>
      <point x="1242" y="210" type="line"/>
      <point x="1242" y="0" type="line"/>
      <point x="537" y="0" type="line" smooth="yes"/>
      <point x="318" y="0"/>
      <point x="140" y="178"/>
    </contour>
  </outline>
</glyph>
<glyph name="ldot" format="2">
  <advance width="892"/>
  <unicode hex="0140"/>
  <outline>
    <contour>
      <point x="120" y="0" type="line"/>
      <point x="120" y="1422" type="line"/>
      <point x="331" y="1422" type="line"/>
      <point x="331" y="0" type="line"/>
    </contour>
    <contour>
      <point x="571" y="886" type="curve" smooth="yes"/>
      <point x="571" y="947"/>
      <point x="620" y="996"/>
      <point x="681" y="996" type="curve" smooth="yes"/>
      <point x="743" y="996"/>
      <point x="792" y="947"/>
      <point x="792" y="886" type="curve" smooth="yes"/>
      <point x="792" y="824"/>
      <point x="743" y="775"/>
      <point x="681" y="775" type="curve" smooth="yes"/>
      <point x="620" y="775"/>
      <point x="571" y="825"/>
    </contour>
  </outline>
</glyph>
<glyph name="lslash" format="2">
  <advance width="570"/>
  <unicode hex="0142"/>
  <outline>
    <contour>
      <point x="64" y="626" type="line"/>
      <point x="254" y="735" type="line"/>
      <point x="254" y="1422" type="line"/>
      <point x="465" y="1422" type="line"/>
      <point x="465" y="857" type="line"/>
      <point x="581" y="924" type="line"/>
      <point x="655" y="797" type="line"/>
      <point x="465" y="687" type="line"/>
      <point x="465" y="0" type="line"/>
      <point x="254" y="0" type="line"/>
      <point x="254" y="565" type="line"/>
      <point x="138" y="499" type="line"/>
    </contour>
  </outline>
</glyph>
<glyph name="Nacute" format="2">
  <advance width="1384"/>
  <unicode hex="0143"/>
  <outline>
    <contour>
      <point x="506" y="1597" type="line"/>
      <point x="635" y="1966" type="line"/>
      <point x="818" y="1878" type="line"/>
      <point x="620" y="1544" type="line"/>
    </contour>
    <contour>
      <point x="140" y="0" type="line"/>
      <point x="140" y="1422" type="line"/>
      <point x="414" y="1422" type="line"/>
      <point x="1033" y="305" type="line"/>
      <point x="1033" y="1422" type="line"/>
      <point x="1244" y="1422" type="line"/>
      <point x="1244" y="0" type="line"/>
      <point x="970" y="0" type="line"/>
      <point x="351" y="1102" type="line"/>
      <point x="351" y="0" type="line"/>
    </contour>
  </outline>
</glyph>
<glyph name="uni0145" format="2">
  <advance width="1384"/>
  <unicode hex="0145"/>
  <outline>
    <contour>
      <point x="580" y="-536" type="line"/>
      <point x="655" y="-122" type="line"/>
      <point x="867" y="-122" type="line"/>
      <point x="738" y="-536" type="line"/>
    </contour>
    <contour>
      <point x="140" y="0" type="line"/>
      <point x="140" y="1422" type="line"/>
      <point x="414" y="1422" type="line"/>
      <point x="1033" y="305" type="line"/>
      <point x="1033" y="1422" type="line"/>
      <point x="1244" y="1422" type="line"/>
      <point x="1244" y="0" type="line"/>
      <point x="970" y="0" type="line"/>
      <point x="351" y="1102" type="line"/>
      <point x="351" y="0" type="line"/>
    </contour>
  </outline>
</glyph>
<glyph name="uni0146" format="2">
  <advance width="1192"/>
  <unicode hex="0146"/>
  <outline>
    <contour>
      <point x="484" y="-536" type="line"/>
      <point x="559" y="-122" type="line"/>
      <point x="771" y="-122" type="line"/>
      <point x="642" y="-536" type="line"/>
    </contour>
    <contour>
      <point x="120" y="0" type="line"/>
      <point x="120" y="826" type="line" smooth="yes"/>
      <point x="120" y="942"/>
      <point x="215" y="1036"/>
      <point x="333" y="1036" type="curve" smooth="yes"/>
      <point x="698" y="1036" type="line" smooth="yes"/>
      <point x="904" y="1036"/>
      <point x="1072" y="868"/>
      <point x="1072" y="662" type="curve" smooth="yes"/>
      <point x="1072" y="0" type="line"/>
      <point x="861" y="0" type="line"/>
      <point x="861" y="659" type="line" smooth="yes"/>
      <point x="861" y="752"/>
      <point x="788" y="827"/>
      <point x="698" y="827" type="curve" smooth="yes"/>
      <point x="331" y="827" type="line"/>
      <point x="331" y="0" type="line"/>
    </contour>
  </outline>
</glyph>
<glyph name="ncaron" format="2">
  <advance width="1192"/>
  <unicode hex="0148"/>
  <outline>
    <contour>
      <point x="284" y="1467" type="line"/>
      <point x="425" y="1467" type="line"/>
      <point x="595" y="1295" type="line"/>
      <point x="766" y="1467" type="line"/>
      <point x="907" y="1467" type="line"/>
      <point x="673" y="1158" type="line"/>
      <point x="518" y="1158" type="line"/>
    </contour>
    <contour>
      <point x="120" y="0" type="line"/>
      <point x="120" y="826" type="line" smooth="yes"/>
      <point x="120" y="942"/>
      <point x="215" y="1036"/>
      <point x="333" y="1036" type="curve" smooth="yes"/>
      <point x="698" y="1036" type="line" smooth="yes"/>
      <point x="904" y="1036"/>
      <point x="1072" y="868"/>
      <point x="1072" y="662" type="curve" smooth="yes"/>
      <point x="1072" y="0" type="line"/>
      <point x="861" y="0" type="line"/>
      <point x="861" y="659" type="line" smooth="yes"/>
      <point x="861" y="752"/>
      <point x="788" y="827"/>
      <point x="698" y="827" type="curve" smooth="yes"/>
      <point x="331" y="827" type="line"/>
      <point x="331" y="0" type="line"/>
    </contour>
  </outline>
</glyph>
<glyph name="napostrophe" format="2">
  <advance width="1402"/>
  <unicode hex="0149"/>
  <outline>
    <contour>
      <point x="100" y="1211" type="line"/>
      <point x="229" y="1580" type="line"/>
      <point x="412" y="1492" type="line"/>
      <point x="214" y="1158" type="line"/>
    </contour>
    <contour>
      <point x="330" y="0" type="line"/>
      <point x="330" y="826" type="line" smooth="yes"/>
      <point x="330" y="942"/>
      <point x="425" y="1036"/>
      <point x="543" y="1036" type="curve" smooth="yes"/>
      <point x="908" y="1036" type="line" smooth="yes"/>
      <point x="1114" y="1036"/>
      <point x="1282" y="868"/>
      <point x="1282" y="662" type="curve" smooth="yes"/>
      <point x="1282" y="0" type="line"/>
      <point x="1071" y="0" type="line"/>
      <point x="1071" y="659" type="line" smooth="yes"/>
      <point x="1071" y="752"/>
      <point x="998" y="827"/>
      <point x="908" y="827" type="curve" smooth="yes"/>
      <point x="541" y="827" type="line"/>
      <point x="541" y="0" type="line"/>
    </contour>
  </outline>
</glyph>
<glyph name="eng" format="2">
  <advance width="1192"/>
  <unicode hex="014B"/>
  <outline>
    <contour>
      <point x="120" y="0" type="line"/>
      <point x="120" y="826" type="line" smooth="yes"/>
      <point x="120" y="942"/>
      <point x="215" y="1036"/>
      <point x="333" y="1036" type="curve" smooth="yes"/>
      <point x="698" y="1036" type="line" smooth="yes"/>
      <point x="904" y="1036"/>
      <point x="1072" y="868"/>
      <point x="1072" y="662" type="curve" smooth="yes"/>
      <point x="1072" y="-60" type="line" smooth="yes"/>
      <point x="1072" y="-313"/>
      <point x="985" y="-391"/>
      <point x="702" y="-391" type="curve"/>
      <point x="702" y="-180" type="line"/>
      <point x="849" y="-180"/>
      <point x="861" y="-171"/>
      <point x="861" y="-60" type="curve" smooth="yes"/>
      <point x="861" y="659" type="line" smooth="yes"/>
      <point x="861" y="752"/>
      <point x="788" y="827"/>
      <point x="698" y="827" type="curve" smooth="yes"/>
      <point x="331" y="827" type="line"/>
      <point x="331" y="0" type="line"/>
    </contour>
  </outline>
</glyph>
<glyph name="Obreve" format="2">
  <advance width="1461"/>
  <unicode hex="014E"/>
  <outline>
    <contour>
      <point x="351" y="1023" type="curve" smooth="yes"/>
      <point x="351" y="399" type="line" smooth="yes"/>
      <point x="351" y="295"/>
      <point x="446" y="210"/>
      <point x="564" y="210" type="curve" smooth="yes"/>
      <point x="897" y="210" type="line" smooth="yes"/>
      <point x="1015" y="210"/>
      <point x="1110" y="295"/>
      <point x="1110" y="399" type="curve" smooth="yes"/>
      <point x="1110" y="1023" type="line" smooth="yes"/>
      <point x="1110" y="1127"/>
      <point x="1015" y="1212"/>
      <point x="897" y="1212" type="curve" smooth="yes"/>
      <point x="564" y="1212" type="line" smooth="yes"/>
      <point x="446" y="1212"/>
      <point x="351" y="1127"/>
    </contour>
    <contour>
      <point x="140" y="400" type="curve" smooth="yes"/>
      <point x="140" y="1022" type="line" smooth="yes"/>
      <point x="140" y="1243"/>
      <point x="330" y="1422"/>
      <point x="564" y="1422" type="curve" smooth="yes"/>
      <point x="897" y="1422" type="line" smooth="yes"/>
      <point x="1131" y="1422"/>
      <point x="1321" y="1243"/>
      <point x="1321" y="1022" type="curve" smooth="yes"/>
      <point x="1321" y="400" type="line" smooth="yes"/>
      <point x="1321" y="179"/>
      <point x="1131" y="0"/>
      <point x="897" y="0" type="curve" smooth="yes"/>
      <point x="564" y="0" type="line" smooth="yes"/>
      <point x="330" y="0"/>
      <point x="140" y="179"/>
    </contour>
    <contour>
      <point x="412" y="1842" type="curve"/>
      <point x="546" y="1842" type="line"/>
      <point x="546" y="1752"/>
      <point x="620" y="1678"/>
      <point x="710" y="1678" type="curve" smooth="yes"/>
      <point x="800" y="1678"/>
      <point x="874" y="1752"/>
      <point x="874" y="1842" type="curve"/>
      <point x="1008" y="1842" type="line"/>
      <point x="1008" y="1678"/>
      <point x="874" y="1544"/>
      <point x="710" y="1544" type="curve" smooth="yes"/>
      <point x="546" y="1544"/>
      <point x="412" y="1678"/>
    </contour>
  </outline>
</glyph>
<glyph name="obreve" format="2">
  <advance width="1194"/>
  <unicode hex="014F"/>
  <outline>
    <contour>
      <point x="321" y="660" type="curve" smooth="yes"/>
      <point x="321" y="376" type="line" smooth="yes"/>
      <point x="321" y="285"/>
      <point x="394" y="211"/>
      <point x="484" y="211" type="curve" smooth="yes"/>
      <point x="710" y="211" type="line" smooth="yes"/>
      <point x="800" y="211"/>
      <point x="873" y="285"/>
      <point x="873" y="376" type="curve" smooth="yes"/>
      <point x="873" y="660" type="line" smooth="yes"/>
      <point x="873" y="751"/>
      <point x="800" y="825"/>
      <point x="710" y="825" type="curve" smooth="yes"/>
      <point x="484" y="825" type="line" smooth="yes"/>
      <point x="394" y="825"/>
      <point x="321" y="751"/>
    </contour>
    <contour>
      <point x="110" y="374" type="curve" smooth="yes"/>
      <point x="110" y="662" type="line" smooth="yes"/>
      <point x="110" y="868"/>
      <point x="278" y="1036"/>
      <point x="484" y="1036" type="curve" smooth="yes"/>
      <point x="710" y="1036" type="line" smooth="yes"/>
      <point x="916" y="1036"/>
      <point x="1084" y="868"/>
      <point x="1084" y="662" type="curve" smooth="yes"/>
      <point x="1084" y="374" type="line" smooth="yes"/>
      <point x="1084" y="168"/>
      <point x="916" y="0"/>
      <point x="710" y="0" type="curve" smooth="yes"/>
      <point x="484" y="0" type="line" smooth="yes"/>
      <point x="278" y="0"/>
      <point x="110" y="168"/>
    </contour>
    <contour>
      <point x="299" y="1456" type="curve"/>
      <point x="433" y="1456" type="line"/>
      <point x="433" y="1366"/>
      <point x="507" y="1292"/>
      <point x="597" y="1292" type="curve" smooth="yes"/>
      <point x="687" y="1292"/>
      <point x="761" y="1366"/>
      <point x="761" y="1456" type="curve"/>
      <point x="895" y="1456" type="line"/>
      <point x="895" y="1292"/>
      <point x="761" y="1158"/>
      <point x="597" y="1158" type="curve" smooth="yes"/>
      <point x="433" y="1158"/>
      <point x="299" y="1292"/>
    </contour>
  </outline>
</glyph>
<glyph name="OE" format="2">
  <advance width="2333"/>
  <unicode hex="0152"/>
  <outline>
    <contour>
      <point x="140" y="400" type="curve" smooth="yes"/>
      <point x="140" y="1022" type="line" smooth="yes"/>
      <point x="140" y="1243"/>
      <point x="330" y="1422"/>
      <point x="564" y="1422" type="curve" smooth="yes"/>
      <point x="897" y="1422" type="line" smooth="yes"/>
      <point x="973" y="1422"/>
      <point x="1044" y="1404"/>
      <point x="1110" y="1368" type="curve"/>
      <point x="1110" y="1422" type="line"/>
      <point x="2213" y="1422" type="line"/>
      <point x="2213" y="1212" type="line"/>
      <point x="1321" y="1212" type="line"/>
      <point x="1321" y="211" type="line"/>
      <point x="2213" y="211" type="line"/>
      <point x="2213" y="0" type="line"/>
      <point x="1110" y="0" type="line"/>
      <point x="1110" y="54" type="line"/>
      <point x="1044" y="18"/>
      <point x="973" y="0"/>
      <point x="897" y="0" type="curve" smooth="yes"/>
      <point x="564" y="0" type="line" smooth="yes"/>
      <point x="330" y="0"/>
      <point x="140" y="179"/>
    </contour>
    <contour>
      <point x="351" y="399" type="line" smooth="yes"/>
      <point x="351" y="295"/>
      <point x="446" y="210"/>
      <point x="564" y="210" type="curve" smooth="yes"/>
      <point x="897" y="210" type="line" smooth="yes"/>
      <point x="1015" y="210"/>
      <point x="1110" y="295"/>
      <point x="1110" y="399" type="curve" smooth="yes"/>
      <point x="1110" y="1023" type="line" smooth="yes"/>
      <point x="1110" y="1127"/>
      <point x="1015" y="1212"/>
      <point x="897" y="1212" type="curve" smooth="yes"/>
      <point x="564" y="1212" type="line" smooth="yes"/>
      <point x="446" y="1212"/>
      <point x="351" y="1127"/>
      <point x="351" y="1023" type="curve" smooth="yes"/>
    </contour>
    <contour>
      <point x="1441" y="635" type="line"/>
      <point x="1441" y="845" type="line"/>
      <point x="2213" y="845" type="line"/>
      <point x="2213" y="635" type="line"/>
    </contour>
  </outline>
</glyph>
<glyph name="Racute" format="2">
  <advance width="1375"/>
  <unicode hex="0154"/>
  <outline>
    <contour>
      <point x="542" y="1597" type="line"/>
      <point x="671" y="1966" type="line"/>
      <point x="854" y="1878" type="line"/>
      <point x="656" y="1544" type="line"/>
    </contour>
    <contour>
      <point x="140" y="0" type="line"/>
      <point x="140" y="1422" type="line"/>
      <point x="892" y="1422" type="line" smooth="yes"/>
      <point x="1085" y="1422"/>
      <point x="1243" y="1265"/>
      <point x="1243" y="1072" type="curve" smooth="yes"/>
      <point x="1243" y="930" type="line" smooth="yes"/>
      <point x="1243" y="736"/>
      <point x="1089" y="585"/>
      <point x="891" y="585" type="curve"/>
      <point x="1315" y="0" type="line"/>
      <point x="1058" y="0" type="line"/>
      <point x="634" y="585" type="line"/>
      <point x="471" y="585" type="line"/>
      <point x="471" y="795" type="line"/>
      <point x="892" y="795" type="line" smooth="yes"/>
      <point x="970" y="795"/>
      <point x="1033" y="857"/>
      <point x="1033" y="933" type="curve" smooth="yes"/>
      <point x="1033" y="1072" type="line" smooth="yes"/>
      <point x="1033" y="1149"/>
      <point x="970" y="1212"/>
      <point x="892" y="1212" type="curve" smooth="yes"/>
      <point x="351" y="1212" type="line"/>
      <point x="351" y="0" type="line"/>
    </contour>
  </outline>
</glyph>
<glyph name="uni0156" format="2">
  <advance width="1375"/>
  <unicode hex="0156"/>
  <outline>
    <contour>
      <point x="584" y="-536" type="line"/>
      <point x="659" y="-122" type="line"/>
      <point x="871" y="-122" type="line"/>
      <point x="742" y="-536" type="line"/>
    </contour>
    <contour>
      <point x="140" y="0" type="line"/>
      <point x="140" y="1422" type="line"/>
      <point x="892" y="1422" type="line" smooth="yes"/>
      <point x="1085" y="1422"/>
      <point x="1243" y="1265"/>
      <point x="1243" y="1072" type="curve" smooth="yes"/>
      <point x="1243" y="930" type="line" smooth="yes"/>
      <point x="1243" y="736"/>
      <point x="1089" y="585"/>
      <point x="891" y="585" type="curve"/>
      <point x="1315" y="0" type="line"/>
      <point x="1058" y="0" type="line"/>
      <point x="634" y="585" type="line"/>
      <point x="471" y="585" type="line"/>
      <point x="471" y="795" type="line"/>
      <point x="892" y="795" type="line" smooth="yes"/>
      <point x="970" y="795"/>
      <point x="1033" y="857"/>
      <point x="1033" y="933" type="curve" smooth="yes"/>
      <point x="1033" y="1072" type="line" smooth="yes"/>
      <point x="1033" y="1149"/>
      <point x="970" y="1212"/>
      <point x="892" y="1212" type="curve" smooth="yes"/>
      <point x="351" y="1212" type="line"/>
      <point x="351" y="0" type="line"/>
    </contour>
  </outline>
</glyph>
<glyph name="rcaron" format="2">
  <advance width="719"/>
  <unicode hex="0159"/>
  <outline>
    <contour>
      <point x="73" y="1467" type="line"/>
      <point x="214" y="1467" type="line"/>
      <point x="384" y="1295" type="line"/>
      <point x="555" y="1467" type="line"/>
      <point x="696" y="1467" type="line"/>
      <point x="462" y="1158" type="line"/>
      <point x="307" y="1158" type="line"/>
    </contour>
    <contour>
      <point x="120" y="0" type="line"/>
      <point x="120" y="746" type="line" smooth="yes"/>
      <point x="120" y="906"/>
      <point x="254" y="1036"/>
      <point x="418" y="1036" type="curve" smooth="yes"/>
      <point x="649" y="1036" type="line"/>
      <point x="649" y="826" type="line"/>
      <point x="418" y="826" type="line" smooth="yes"/>
      <point x="370" y="826"/>
      <point x="331" y="789"/>
      <point x="331" y="742" type="curve" smooth="yes"/>
      <point x="331" y="0" type="line"/>
    </contour>
  </outline>
</glyph>
<glyph name="scircumflex" format="2">
  <advance width="1193"/>
  <unicode hex="015D"/>
  <outline>
    <contour>
      <point x="285" y="1158" type="line"/>
      <point x="519" y="1467" type="line"/>
      <point x="674" y="1467" type="line"/>
      <point x="908" y="1158" type="line"/>
      <point x="767" y="1158" type="line"/>
      <point x="596" y="1330" type="line"/>
      <point x="426" y="1158" type="line"/>
    </contour>
    <contour>
      <point x="110" y="720" type="curve" smooth="yes"/>
      <point x="110" y="745" type="line" smooth="yes"/>
      <point x="110" y="906"/>
      <point x="244" y="1036"/>
      <point x="408" y="1036" type="curve" smooth="yes"/>
      <point x="1016" y="1036" type="line"/>
      <point x="1016" y="825" type="line"/>
      <point x="408" y="825" type="line" smooth="yes"/>
      <point x="360" y="825"/>
      <point x="321" y="789"/>
      <point x="321" y="745" type="curve" smooth="yes"/>
      <point x="321" y="720" type="line" smooth="yes"/>
      <point x="321" y="675"/>
      <point x="360" y="638"/>
      <point x="408" y="638" type="curve" smooth="yes"/>
      <point x="786" y="638" type="line" smooth="yes"/>
      <point x="950" y="638"/>
      <point x="1083" y="507"/>
      <point x="1083" y="346" type="curve" smooth="yes"/>
      <point x="1083" y="292" type="line" smooth="yes"/>
      <point x="1083" y="131"/>
      <point x="950" y="0"/>
      <point x="786" y="0" type="curve" smooth="yes"/>
      <point x="157" y="0" type="line"/>
      <point x="157" y="211" type="line"/>
      <point x="786" y="211" type="line" smooth="yes"/>
      <point x="834" y="211"/>
      <point x="873" y="248"/>
      <point x="873" y="293" type="curve" smooth="yes"/>
      <point x="873" y="345" type="line" smooth="yes"/>
      <point x="873" y="391"/>
      <point x="834" y="428"/>
      <point x="786" y="428" type="curve" smooth="yes"/>
      <point x="408" y="428" type="line" smooth="yes"/>
      <point x="244" y="428"/>
      <point x="110" y="559"/>
    </contour>
  </outline>
</glyph>
<glyph name="scedilla" format="2">
  <advance width="1193"/>
  <unicode hex="015F"/>
  <outline>
    <contour>
      <point x="110" y="720" type="curve" smooth="yes"/>
      <point x="110" y="745" type="line" smooth="yes"/>
      <point x="110" y="906"/>
      <point x="244" y="1036"/>
      <point x="408" y="1036" type="curve" smooth="yes"/>
      <point x="1016" y="1036" type="line"/>
      <point x="1016" y="825" type="line"/>
      <point x="408" y="825" type="line" smooth="yes"/>
      <point x="360" y="825"/>
      <point x="321" y="789"/>
      <point x="321" y="745" type="curve" smooth="yes"/>
      <point x="321" y="720" type="line" smooth="yes"/>
      <point x="321" y="675"/>
      <point x="360" y="638"/>
      <point x="408" y="638" type="curve" smooth="yes"/>
      <point x="786" y="638" type="line" smooth="yes"/>
      <point x="950" y="638"/>
      <point x="1083" y="507"/>
      <point x="1083" y="346" type="curve" smooth="yes"/>
      <point x="1083" y="292" type="line" smooth="yes"/>
      <point x="1083" y="131"/>
      <point x="950" y="0"/>
      <point x="786" y="0" type="curve" smooth="yes"/>
      <point x="674" y="0" type="line"/>
      <point x="699" y="-71"/>
      <point x="712" y="-129"/>
      <point x="712" y="-173" type="curve" smooth="yes"/>
      <point x="712" y="-262"/>
      <point x="664" y="-303"/>
      <point x="560" y="-303" type="curve" smooth="yes"/>
      <point x="527" y="-303"/>
      <point x="498" y="-300"/>
      <point x="410" y="-287" type="curve"/>
      <point x="410" y="-139" type="line"/>
      <point x="492" y="-152"/>
      <point x="503" y="-153"/>
      <point x="520" y="-153" type="curve" smooth="yes"/>
      <point x="550" y="-153"/>
      <point x="562" y="-144"/>
      <point x="562" y="-122" type="curve" smooth="yes"/>
      <point x="562" y="-104"/>
      <point x="557" y="-89"/>
      <point x="526" y="0" type="curve"/>
      <point x="157" y="0" type="line"/>
      <point x="157" y="211" type="line"/>
      <point x="786" y="211" type="line" smooth="yes"/>
      <point x="834" y="211"/>
      <point x="873" y="248"/>
      <point x="873" y="293" type="curve" smooth="yes"/>
      <point x="873" y="345" type="line" smooth="yes"/>
      <point x="873" y="391"/>
      <point x="834" y="428"/>
      <point x="786" y="428" type="curve" smooth="yes"/>
      <point x="408" y="428" type="line" smooth="yes"/>
      <point x="244" y="428"/>
      <point x="110" y="559"/>
    </contour>
  </outline>
</glyph>
<glyph name="Scaron" format="2">
  <advance width="1399"/>
  <unicode hex="0160"/>
  <outline>
    <contour>
      <point x="388" y="1853" type="line"/>
      <point x="529" y="1853" type="line"/>
      <point x="699" y="1681" type="line"/>
      <point x="870" y="1853" type="line"/>
      <point x="1011" y="1853" type="line"/>
      <point x="777" y="1544" type="line"/>
      <point x="622" y="1544" type="line"/>
    </contour>
    <contour>
      <point x="120" y="973" type="curve" smooth="yes"/>
      <point x="120" y="1078" type="line" smooth="yes"/>
      <point x="120" y="1268"/>
      <point x="278" y="1422"/>
      <point x="473" y="1422" type="curve" smooth="yes"/>
      <point x="1209" y="1422" type="line"/>
      <point x="1209" y="1212" type="line"/>
      <point x="473" y="1212" type="line" smooth="yes"/>
      <point x="395" y="1212"/>
      <point x="331" y="1149"/>
      <point x="331" y="1072" type="curve" smooth="yes"/>
      <point x="331" y="974" type="line" smooth="yes"/>
      <point x="331" y="903"/>
      <point x="395" y="845"/>
      <point x="473" y="845" type="curve" smooth="yes"/>
      <point x="926" y="845" type="line" smooth="yes"/>
      <point x="1121" y="845"/>
      <point x="1279" y="690"/>
      <point x="1279" y="500" type="curve" smooth="yes"/>
      <point x="1279" y="345" type="line" smooth="yes"/>
      <point x="1279" y="155"/>
      <point x="1121" y="0"/>
      <point x="926" y="0" type="curve" smooth="yes"/>
      <point x="121" y="0" type="line"/>
      <point x="121" y="211" type="line"/>
      <point x="926" y="211" type="line" smooth="yes"/>
      <point x="1004" y="211"/>
      <point x="1068" y="271"/>
      <point x="1068" y="346" type="curve" smooth="yes"/>
      <point x="1068" y="499" type="line" smooth="yes"/>
      <point x="1068" y="574"/>
      <point x="1004" y="635"/>
      <point x="926" y="635" type="curve" smooth="yes"/>
      <point x="473" y="635" type="line" smooth="yes"/>
      <point x="278" y="635"/>
      <point x="120" y="786"/>
    </contour>
  </outline>
</glyph>
<glyph name="uni0162" format="2">
  <advance width="1238"/>
  <unicode hex="0162"/>
  <outline>
    <contour>
      <point x="40" y="1212" type="line"/>
      <point x="40" y="1422" type="line"/>
      <point x="1198" y="1422" type="line"/>
      <point x="1198" y="1212" type="line"/>
      <point x="725" y="1212" type="line"/>
      <point x="725" y="0" type="line"/>
      <point x="696" y="0" type="line"/>
      <point x="721" y="-70"/>
      <point x="734" y="-128"/>
      <point x="734" y="-173" type="curve" smooth="yes"/>
      <point x="734" y="-262"/>
      <point x="686" y="-303"/>
      <point x="582" y="-303" type="curve" smooth="yes"/>
      <point x="549" y="-303"/>
      <point x="520" y="-300"/>
      <point x="432" y="-287" type="curve"/>
      <point x="432" y="-139" type="line"/>
      <point x="514" y="-152"/>
      <point x="525" y="-153"/>
      <point x="542" y="-153" type="curve" smooth="yes"/>
      <point x="572" y="-153"/>
      <point x="583" y="-144"/>
      <point x="583" y="-122" type="curve" smooth="yes"/>
      <point x="583" y="-103"/>
      <point x="577" y="-80"/>
      <point x="548" y="0" type="curve"/>
      <point x="513" y="0" type="line"/>
      <point x="513" y="1212" type="line"/>
    </contour>
  </outline>
</glyph>
<glyph name="uni0163" format="2">
  <advance width="805"/>
  <unicode hex="0163"/>
  <outline>
    <contour>
      <point x="70" y="825" type="line"/>
      <point x="70" y="1036" type="line"/>
      <point x="205" y="1036" type="line"/>
      <point x="205" y="1422" type="line"/>
      <point x="416" y="1422" type="line"/>
      <point x="416" y="1036" type="line"/>
      <point x="735" y="1036" type="line"/>
      <point x="735" y="825" type="line"/>
      <point x="416" y="825" type="line"/>
      <point x="416" y="294" type="line" smooth="yes"/>
      <point x="416" y="248"/>
      <point x="456" y="211"/>
      <point x="506" y="211" type="curve" smooth="yes"/>
      <point x="735" y="211" type="line"/>
      <point x="735" y="0" type="line"/>
      <point x="630" y="0" type="line"/>
      <point x="656" y="-74"/>
      <point x="669" y="-130"/>
      <point x="669" y="-173" type="curve" smooth="yes"/>
      <point x="669" y="-262"/>
      <point x="620" y="-303"/>
      <point x="516" y="-303" type="curve" smooth="yes"/>
      <point x="483" y="-303"/>
      <point x="454" y="-300"/>
      <point x="366" y="-287" type="curve"/>
      <point x="366" y="-139" type="line"/>
      <point x="448" y="-152"/>
      <point x="459" y="-153"/>
      <point x="476" y="-153" type="curve" smooth="yes"/>
      <point x="506" y="-153"/>
      <point x="518" y="-144"/>
      <point x="518" y="-122" type="curve" smooth="yes"/>
      <point x="518" y="-102"/>
      <point x="511" y="-78"/>
      <point x="482" y="1" type="curve"/>
      <point x="326" y="12"/>
      <point x="205" y="139"/>
      <point x="205" y="293" type="curve" smooth="yes"/>
      <point x="205" y="825" type="line"/>
    </contour>
  </outline>
</glyph>
<glyph name="Tcaron" format="2">
  <advance width="1238"/>
  <unicode hex="0164"/>
  <outline>
    <contour>
      <point x="308" y="1853" type="line"/>
      <point x="449" y="1853" type="line"/>
      <point x="619" y="1681" type="line"/>
      <point x="790" y="1853" type="line"/>
      <point x="931" y="1853" type="line"/>
      <point x="697" y="1544" type="line"/>
      <point x="542" y="1544" type="line"/>
    </contour>
    <contour>
      <point x="40" y="1212" type="line"/>
      <point x="40" y="1422" type="line"/>
      <point x="1198" y="1422" type="line"/>
      <point x="1198" y="1212" type="line"/>
      <point x="725" y="1212" type="line"/>
      <point x="725" y="0" type="line"/>
      <point x="513" y="0" type="line"/>
      <point x="513" y="1212" type="line"/>
    </contour>
  </outline>
</glyph>
<glyph name="tcaron" format="2">
  <advance width="805"/>
  <unicode hex="0165"/>
  <outline>
    <contour>
      <point x="70" y="825" type="line"/>
      <point x="70" y="1036" type="line"/>
      <point x="205" y="1036" type="line"/>
      <point x="205" y="1422" type="line"/>
      <point x="416" y="1422" type="line"/>
      <point x="416" y="1036" type="line"/>
      <point x="735" y="1036" type="line"/>
      <point x="735" y="825" type="line"/>
      <point x="416" y="825" type="line"/>
      <point x="416" y="294" type="line" smooth="yes"/>
      <point x="416" y="248"/>
      <point x="456" y="211"/>
      <point x="506" y="211" type="curve" smooth="yes"/>
      <point x="735" y="211" type="line"/>
      <point x="735" y="0" type="line"/>
      <point x="503" y="0" type="line" smooth="yes"/>
      <point x="339" y="0"/>
      <point x="205" y="131"/>
      <point x="205" y="293" type="curve" smooth="yes"/>
      <point x="205" y="825" type="line"/>
    </contour>
    <contour>
      <point x="898" y="1422" type="line"/>
      <point x="1047" y="1422" type="line"/>
      <point x="1040" y="1146" type="line"/>
      <point x="905" y="1146" type="line"/>
    </contour>
  </outline>
</glyph>
<glyph name="tbar" format="2">
  <advance width="866"/>
  <unicode hex="0167"/>
  <outline>
    <contour>
      <point x="100" y="825" type="line"/>
      <point x="100" y="1036" type="line"/>
      <point x="235" y="1036" type="line"/>
      <point x="235" y="1422" type="line"/>
      <point x="446" y="1422" type="line"/>
      <point x="446" y="1036" type="line"/>
      <point x="765" y="1036" type="line"/>
      <point x="765" y="825" type="line"/>
      <point x="446" y="825" type="line"/>
      <point x="446" y="696" type="line"/>
      <point x="766" y="696" type="line"/>
      <point x="766" y="484" type="line"/>
      <point x="446" y="484" type="line"/>
      <point x="446" y="294" type="line" smooth="yes"/>
      <point x="446" y="248"/>
      <point x="486" y="211"/>
      <point x="536" y="211" type="curve" smooth="yes"/>
      <point x="765" y="211" type="line"/>
      <point x="765" y="0" type="line"/>
      <point x="533" y="0" type="line" smooth="yes"/>
      <point x="369" y="0"/>
      <point x="235" y="131"/>
      <point x="235" y="293" type="curve" smooth="yes"/>
      <point x="235" y="484" type="line"/>
      <point x="101" y="484" type="line"/>
      <point x="101" y="696" type="line"/>
      <point x="235" y="696" type="line"/>
      <point x="235" y="825" type="line"/>
    </contour>
  </outline>
</glyph>
<glyph name="Utilde" format="2">
  <advance width="1438"/>
  <unicode hex="0168"/>
  <outline>
    <contour>
      <point x="380" y="1552" type="line"/>
      <point x="381" y="1680"/>
      <point x="462" y="1773"/>
      <point x="574" y="1773" type="curve" smooth="yes"/>
      <point x="605" y="1773"/>
      <point x="637" y="1764"/>
      <point x="705" y="1736" type="curve" smooth="yes"/>
      <point x="778" y="1706"/>
      <point x="805" y="1698"/>
      <point x="836" y="1698" type="curve" smooth="yes"/>
      <point x="867" y="1698"/>
      <point x="881" y="1720"/>
      <point x="881" y="1768" type="curve"/>
      <point x="1038" y="1768" type="line"/>
      <point x="1038" y="1644"/>
      <point x="953" y="1544"/>
      <point x="846" y="1544" type="curve" smooth="yes"/>
      <point x="815" y="1544"/>
      <point x="783" y="1554"/>
      <point x="713" y="1584" type="curve" smooth="yes"/>
      <point x="638" y="1616"/>
      <point x="611" y="1625"/>
      <point x="580" y="1625" type="curve" smooth="yes"/>
      <point x="549" y="1625"/>
      <point x="535" y="1602"/>
      <point x="535" y="1552" type="curve"/>
    </contour>
    <contour>
      <point x="140" y="397" type="curve" smooth="yes"/>
      <point x="140" y="1422" type="line"/>
      <point x="351" y="1422" type="line"/>
      <point x="351" y="399" type="line" smooth="yes"/>
      <point x="351" y="295"/>
      <point x="438" y="211"/>
      <point x="545" y="211" type="curve" smooth="yes"/>
      <point x="894" y="211" type="line" smooth="yes"/>
      <point x="1001" y="211"/>
      <point x="1088" y="295"/>
      <point x="1088" y="399" type="curve" smooth="yes"/>
      <point x="1088" y="1422" type="line"/>
      <point x="1298" y="1422" type="line"/>
      <point x="1298" y="397" type="line" smooth="yes"/>
      <point x="1298" y="178"/>
      <point x="1117" y="0"/>
      <point x="894" y="0" type="curve" smooth="yes"/>
      <point x="545" y="0" type="line" smooth="yes"/>
      <point x="321" y="0"/>
      <point x="140" y="178"/>
    </contour>
  </outline>
</glyph>
<glyph name="Umacron" format="2">
  <advance width="1438"/>
  <unicode hex="016A"/>
  <outline>
    <contour>
      <point x="411" y="1544" type="line"/>
      <point x="411" y="1691" type="line"/>
      <point x="1008" y="1691" type="line"/>
      <point x="1008" y="1544" type="line"/>
    </contour>
    <contour>
      <point x="140" y="397" type="curve" smooth="yes"/>
      <point x="140" y="1422" type="line"/>
      <point x="351" y="1422" type="line"/>
      <point x="351" y="399" type="line" smooth="yes"/>
      <point x="351" y="295"/>
      <point x="438" y="211"/>
      <point x="545" y="211" type="curve" smooth="yes"/>
      <point x="894" y="211" type="line" smooth="yes"/>
      <point x="1001" y="211"/>
      <point x="1088" y="295"/>
      <point x="1088" y="399" type="curve" smooth="yes"/>
      <point x="1088" y="1422" type="line"/>
      <point x="1298" y="1422" type="line"/>
      <point x="1298" y="397" type="line" smooth="yes"/>
      <point x="1298" y="178"/>
      <point x="1117" y="0"/>
      <point x="894" y="0" type="curve" smooth="yes"/>
      <point x="545" y="0" type="line" smooth="yes"/>
      <point x="321" y="0"/>
      <point x="140" y="178"/>
    </contour>
  </outline>
</glyph>
<glyph name="Uring" format="2">
  <advance width="1438"/>
  <unicode hex="016E"/>
  <outline>
    <contour>
      <point x="637" y="1756" type="curve" smooth="yes"/>
      <point x="637" y="1713" type="line" smooth="yes"/>
      <point x="637" y="1685"/>
      <point x="660" y="1662"/>
      <point x="689" y="1662" type="curve" smooth="yes"/>
      <point x="729" y="1662" type="line" smooth="yes"/>
      <point x="758" y="1662"/>
      <point x="781" y="1685"/>
      <point x="781" y="1713" type="curve" smooth="yes"/>
      <point x="781" y="1756" type="line" smooth="yes"/>
      <point x="781" y="1784"/>
      <point x="758" y="1807"/>
      <point x="729" y="1807" type="curve" smooth="yes"/>
      <point x="689" y="1807" type="line" smooth="yes"/>
      <point x="660" y="1807"/>
      <point x="637" y="1784"/>
    </contour>
    <contour>
      <point x="140" y="397" type="curve" smooth="yes"/>
      <point x="140" y="1422" type="line"/>
      <point x="351" y="1422" type="line"/>
      <point x="351" y="399" type="line" smooth="yes"/>
      <point x="351" y="295"/>
      <point x="438" y="211"/>
      <point x="545" y="211" type="curve" smooth="yes"/>
      <point x="894" y="211" type="line" smooth="yes"/>
      <point x="1001" y="211"/>
      <point x="1088" y="295"/>
      <point x="1088" y="399" type="curve" smooth="yes"/>
      <point x="1088" y="1422" type="line"/>
      <point x="1298" y="1422" type="line"/>
      <point x="1298" y="397" type="line" smooth="yes"/>
      <point x="1298" y="178"/>
      <point x="1117" y="0"/>
      <point x="894" y="0" type="curve" smooth="yes"/>
      <point x="545" y="0" type="line" smooth="yes"/>
      <point x="321" y="0"/>
      <point x="140" y="178"/>
    </contour>
    <contour>
      <point x="519" y="1713" type="curve" smooth="yes"/>
      <point x="519" y="1756" type="line" smooth="yes"/>
      <point x="519" y="1850"/>
      <point x="595" y="1925"/>
      <point x="689" y="1925" type="curve" smooth="yes"/>
      <point x="729" y="1925" type="line" smooth="yes"/>
      <point x="823" y="1925"/>
      <point x="899" y="1850"/>
      <point x="899" y="1756" type="curve" smooth="yes"/>
      <point x="899" y="1713" type="line" smooth="yes"/>
      <point x="899" y="1619"/>
      <point x="823" y="1544"/>
      <point x="729" y="1544" type="curve" smooth="yes"/>
      <point x="689" y="1544" type="line" smooth="yes"/>
      <point x="595" y="1544"/>
      <point x="519" y="1619"/>
    </contour>
  </outline>
</glyph>
<glyph name="Uogonek" format="2">
  <advance width="1438"/>
  <unicode hex="0172"/>
  <outline>
    <contour>
      <point x="140" y="397" type="curve" smooth="yes"/>
      <point x="140" y="1422" type="line"/>
      <point x="351" y="1422" type="line"/>
      <point x="351" y="399" type="line" smooth="yes"/>
      <point x="351" y="295"/>
      <point x="438" y="211"/>
      <point x="545" y="211" type="curve" smooth="yes"/>
      <point x="894" y="211" type="line" smooth="yes"/>
      <point x="1001" y="211"/>
      <point x="1088" y="295"/>
      <point x="1088" y="399" type="curve" smooth="yes"/>
      <point x="1088" y="1422" type="line"/>
      <point x="1298" y="1422" type="line"/>
      <point x="1298" y="397" type="line" smooth="yes"/>
      <point x="1298" y="178"/>
      <point x="1117" y="0"/>
      <point x="894" y="0" type="curve" smooth="yes"/>
      <point x="789" y="0" type="line"/>
      <point x="762" y="-73"/>
      <point x="754" y="-101"/>
      <point x="754" y="-122" type="curve" smooth="yes"/>
      <point x="754" y="-144"/>
      <point x="765" y="-153"/>
      <point x="795" y="-153" type="curve" smooth="yes"/>
      <point x="812" y="-153"/>
      <point x="823" y="-152"/>
      <point x="905" y="-139" type="curve"/>
      <point x="905" y="-287" type="line"/>
      <point x="817" y="-300"/>
      <point x="788" y="-303"/>
      <point x="755" y="-303" type="curve" smooth="yes"/>
      <point x="651" y="-303"/>
      <point x="603" y="-262"/>
      <point x="603" y="-173" type="curve" smooth="yes"/>
      <point x="603" y="-130"/>
      <point x="616" y="-72"/>
      <point x="641" y="0" type="curve"/>
      <point x="545" y="0" type="line" smooth="yes"/>
      <point x="321" y="0"/>
      <point x="140" y="178"/>
    </contour>
  </outline>
</glyph>
<glyph name="uogonek" format="2">
  <advance width="1192"/>
  <unicode hex="0173"/>
  <outline>
    <contour>
      <point x="120" y="374" type="curve" smooth="yes"/>
      <point x="120" y="1036" type="line"/>
      <point x="331" y="1036" type="line"/>
      <point x="331" y="377" type="line" smooth="yes"/>
      <point x="331" y="284"/>
      <point x="404" y="209"/>
      <point x="494" y="209" type="curve" smooth="yes"/>
      <point x="861" y="209" type="line"/>
      <point x="861" y="1036" type="line"/>
      <point x="1072" y="1036" type="line"/>
      <point x="1072" y="210" type="line" smooth="yes"/>
      <point x="1072" y="94"/>
      <point x="977" y="0"/>
      <point x="859" y="0" type="curve" smooth="yes"/>
      <point x="846" y="0" type="line"/>
      <point x="819" y="-73"/>
      <point x="811" y="-101"/>
      <point x="811" y="-122" type="curve" smooth="yes"/>
      <point x="811" y="-144"/>
      <point x="822" y="-153"/>
      <point x="852" y="-153" type="curve" smooth="yes"/>
      <point x="869" y="-153"/>
      <point x="880" y="-152"/>
      <point x="962" y="-139" type="curve"/>
      <point x="962" y="-287" type="line"/>
      <point x="874" y="-300"/>
      <point x="845" y="-303"/>
      <point x="812" y="-303" type="curve" smooth="yes"/>
      <point x="708" y="-303"/>
      <point x="660" y="-262"/>
      <point x="660" y="-173" type="curve" smooth="yes"/>
      <point x="660" y="-130"/>
      <point x="673" y="-72"/>
      <point x="698" y="0" type="curve"/>
      <point x="494" y="0" type="line" smooth="yes"/>
      <point x="288" y="0"/>
      <point x="120" y="168"/>
    </contour>
  </outline>
</glyph>
<glyph name="Wcircumflex" format="2">
  <advance width="1646"/>
  <unicode hex="0174"/>
  <outline>
    <contour>
      <point x="512" y="1544" type="line"/>
      <point x="746" y="1853" type="line"/>
      <point x="901" y="1853" type="line"/>
      <point x="1135" y="1544" type="line"/>
      <point x="994" y="1544" type="line"/>
      <point x="823" y="1716" type="line"/>
      <point x="653" y="1544" type="line"/>
    </contour>
    <contour>
      <point x="70" y="1422" type="line"/>
      <point x="282" y="1422" type="line"/>
      <point x="468" y="350" type="line"/>
      <point x="724" y="816" type="line"/>
      <point x="923" y="816" type="line"/>
      <point x="1179" y="350" type="line"/>
      <point x="1365" y="1422" type="line"/>
      <point x="1576" y="1422" type="line"/>
      <point x="1329" y="0" type="line"/>
      <point x="1139" y="0" type="line"/>
      <point x="823" y="572" type="line"/>
      <point x="508" y="0" type="line"/>
      <point x="317" y="0" type="line"/>
    </contour>
  </outline>
</glyph>
<glyph name="wcircumflex" format="2">
  <advance width="1492"/>
  <unicode hex="0175"/>
  <outline>
    <contour>
      <point x="435" y="1158" type="line"/>
      <point x="669" y="1467" type="line"/>
      <point x="824" y="1467" type="line"/>
      <point x="1058" y="1158" type="line"/>
      <point x="917" y="1158" type="line"/>
      <point x="746" y="1330" type="line"/>
      <point x="576" y="1158" type="line"/>
    </contour>
    <contour>
      <point x="60" y="1036" type="line"/>
      <point x="272" y="1036" type="line"/>
      <point x="391" y="350" type="line"/>
      <point x="647" y="787" type="line"/>
      <point x="846" y="787" type="line"/>
      <point x="1102" y="350" type="line"/>
      <point x="1221" y="1036" type="line"/>
      <point x="1432" y="1036" type="line"/>
      <point x="1253" y="0" type="line"/>
      <point x="1068" y="0" type="line"/>
      <point x="747" y="543" type="line"/>
      <point x="425" y="0" type="line"/>
      <point x="240" y="0" type="line"/>
    </contour>
  </outline>
</glyph>
<glyph name="Ycircumflex" format="2">
  <advance width="1371"/>
  <unicode hex="0176"/>
  <outline>
    <contour>
      <point x="374" y="1544" type="line"/>
      <point x="608" y="1853" type="line"/>
      <point x="763" y="1853" type="line"/>
      <point x="997" y="1544" type="line"/>
      <point x="856" y="1544" type="line"/>
      <point x="685" y="1716" type="line"/>
      <point x="515" y="1544" type="line"/>
    </contour>
    <contour>
      <point x="40" y="1422" type="line"/>
      <point x="297" y="1422" type="line"/>
      <point x="687" y="883" type="line"/>
      <point x="1075" y="1422" type="line"/>
      <point x="1331" y="1422" type="line"/>
      <point x="795" y="679" type="line"/>
      <point x="795" y="0" type="line"/>
      <point x="579" y="0" type="line"/>
      <point x="579" y="679" type="line"/>
    </contour>
  </outline>
</glyph>
<glyph name="ycircumflex" format="2">
  <advance width="1121"/>
  <unicode hex="0177"/>
  <outline>
    <contour>
      <point x="249" y="1158" type="line"/>
      <point x="483" y="1467" type="line"/>
      <point x="638" y="1467" type="line"/>
      <point x="872" y="1158" type="line"/>
      <point x="731" y="1158" type="line"/>
      <point x="560" y="1330" type="line"/>
      <point x="390" y="1158" type="line"/>
    </contour>
    <contour>
      <point x="60" y="1036" type="line"/>
      <point x="284" y="1036" type="line"/>
      <point x="553" y="318" type="line"/>
      <point x="828" y="1036" type="line"/>
      <point x="1061" y="1036" type="line"/>
      <point x="511" y="-390" type="line"/>
      <point x="280" y="-390" type="line"/>
      <point x="441" y="34" type="line"/>
    </contour>
  </outline>
</glyph>
<glyph name="Ydieresis" format="2">
  <advance width="1371"/>
  <unicode hex="0178"/>
  <outline>
    <contour>
      <point x="405" y="1654" type="curve" smooth="yes"/>
      <point x="405" y="1716"/>
      <point x="454" y="1765"/>
      <point x="515" y="1765" type="curve" smooth="yes"/>
      <point x="577" y="1765"/>
      <point x="626" y="1716"/>
      <point x="626" y="1654" type="curve" smooth="yes"/>
      <point x="626" y="1593"/>
      <point x="577" y="1544"/>
      <point x="515" y="1544" type="curve" smooth="yes"/>
      <point x="454" y="1544"/>
      <point x="405" y="1593"/>
    </contour>
    <contour>
      <point x="745" y="1654" type="curve" smooth="yes"/>
      <point x="745" y="1716"/>
      <point x="794" y="1765"/>
      <point x="855" y="1765" type="curve" smooth="yes"/>
      <point x="917" y="1765"/>
      <point x="966" y="1716"/>
      <point x="966" y="1654" type="curve" smooth="yes"/>
      <point x="966" y="1593"/>
      <point x="917" y="1544"/>
      <point x="855" y="1544" type="curve" smooth="yes"/>
      <point x="794" y="1544"/>
      <point x="745" y="1593"/>
    </contour>
    <contour>
      <point x="40" y="1422" type="line"/>
      <point x="297" y="1422" type="line"/>
      <point x="687" y="883" type="line"/>
      <point x="1075" y="1422" type="line"/>
      <point x="1331" y="1422" type="line"/>
      <point x="795" y="679" type="line"/>
      <point x="795" y="0" type="line"/>
      <point x="579" y="0" type="line"/>
      <point x="579" y="679" type="line"/>
    </contour>
  </outline>
</glyph>
<glyph name="Zacute" format="2">
  <advance width="1347"/>
  <unicode hex="0179"/>
  <outline>
    <contour>
      <point x="560" y="1597" type="line"/>
      <point x="689" y="1966" type="line"/>
      <point x="872" y="1878" type="line"/>
      <point x="674" y="1544" type="line"/>
    </contour>
    <contour>
      <point x="120" y="0" type="line"/>
      <point x="120" y="155" type="line"/>
      <point x="927" y="1212" type="line"/>
      <point x="120" y="1212" type="line"/>
      <point x="120" y="1422" type="line"/>
      <point x="1227" y="1422" type="line"/>
      <point x="1227" y="1265" type="line"/>
      <point x="422" y="208" type="line"/>
      <point x="1223" y="208" type="line"/>
      <point x="1223" y="0" type="line"/>
    </contour>
  </outline>
</glyph>
<glyph name="zacute" format="2">
  <advance width="1175"/>
  <unicode hex="017A"/>
  <outline>
    <contour>
      <point x="474" y="1211" type="line"/>
      <point x="603" y="1580" type="line"/>
      <point x="786" y="1492" type="line"/>
      <point x="588" y="1158" type="line"/>
    </contour>
    <contour>
      <point x="110" y="0" type="line"/>
      <point x="110" y="161" type="line"/>
      <point x="733" y="826" type="line"/>
      <point x="110" y="826" type="line"/>
      <point x="110" y="1036" type="line"/>
      <point x="1065" y="1036" type="line"/>
      <point x="1065" y="878" type="line"/>
      <point x="439" y="210" type="line"/>
      <point x="1065" y="210" type="line"/>
      <point x="1065" y="0" type="line"/>
    </contour>
  </outline>
</glyph>
<glyph name="Zdotaccent" format="2">
  <advance width="1347"/>
  <unicode hex="017B"/>
  <outline>
    <contour>
      <point x="563" y="1654" type="curve" smooth="yes"/>
      <point x="563" y="1716"/>
      <point x="612" y="1765"/>
      <point x="674" y="1765" type="curve" smooth="yes"/>
      <point x="735" y="1765"/>
      <point x="784" y="1716"/>
      <point x="784" y="1654" type="curve" smooth="yes"/>
      <point x="784" y="1593"/>
      <point x="735" y="1544"/>
      <point x="674" y="1544" type="curve" smooth="yes"/>
      <point x="613" y="1544"/>
      <point x="563" y="1593"/>
    </contour>
    <contour>
      <point x="120" y="0" type="line"/>
      <point x="120" y="155" type="line"/>
      <point x="927" y="1212" type="line"/>
      <point x="120" y="1212" type="line"/>
      <point x="120" y="1422" type="line"/>
      <point x="1227" y="1422" type="line"/>
      <point x="1227" y="1265" type="line"/>
      <point x="422" y="208" type="line"/>
      <point x="1223" y="208" type="line"/>
      <point x="1223" y="0" type="line"/>
    </contour>
  </outline>
</glyph>
